<svg width="328" height="64" viewBox="0 0 328 64" fill="none" xmlns="http://www.w3.org/2000/svg">
<g clip-path="url(#clip0_10511_8213)">
<path d="M0 4C0 1.79086 1.79086 0 4 0H324C326.209 0 328 1.79086 328 4V64H0V4Z" fill="#DA0081"/>
<g clip-path="url(#clip1_10511_8213)">
<path d="M50 17L50 -19C50 -20.6569 48.6569 -22 47 -22L11 -22C9.34315 -22 8.00001 -20.6569 8.00001 -19L8.00001 17C8.00001 18.6568 9.34315 20 11 20L47 20C48.6569 20 50 18.6568 50 17Z" fill="#E366A7"/>
<path d="M29 50L47 50C48.6569 50 50 48.6569 50 47L50 29C50 27.3431 48.6569 26 47 26L29 26C27.3431 26 26 27.3431 26 29L26 47C26 48.6569 27.3431 50 29 50Z" fill="#F1BFDA"/>
<path d="M11 68L20 68C21.6569 68 23 66.6569 23 65L23 56C23 54.3431 21.6569 53 20 53L11 53C9.34314 53 8 54.3431 8 56L8 65C8 66.6569 9.34314 68 11 68Z" fill="#ECE7F5"/>
<path d="M56 29L56 65C56 66.6569 57.3431 68 59 68L95 68C96.6568 68 98 66.6569 98 65L98 29C98 27.3432 96.6568 26 95 26L59 26C57.3431 26 56 27.3432 56 29Z" fill="#E366A7"/>
<path d="M77 -4L59 -4C57.3431 -4 56 -2.65685 56 -0.999999L56 17C56 18.6569 57.3431 20 59 20L77 20C78.6569 20 80 18.6569 80 17L80 -0.999998C80 -2.65685 78.6569 -4 77 -4Z" fill="#ECE7F5"/>
</g>
</g>
<defs>
<clipPath id="clip0_10511_8213">
<path d="M0 4C0 1.79086 1.79086 0 4 0H324C326.209 0 328 1.79086 328 4V64H0V4Z" fill="white"/>
</clipPath>
<clipPath id="clip1_10511_8213">
<rect width="90" height="90" fill="white" transform="translate(98 -22) rotate(90)"/>
</clipPath>
</defs>
</svg>
