<svg xmlns="http://www.w3.org/2000/svg" viewBox="0 0 120 120" role="img">
  <defs>
    <radialGradient id="bg" cx="50%" cy="40%" r="70%">
      <stop offset="0%" stop-color="#3a0505"/>
      <stop offset="55%" stop-color="#120202"/>
      <stop offset="100%" stop-color="#000"/>
    </radialGradient>
    <linearGradient id="blood" x1="0" y1="0" x2="0" y2="1">
      <stop offset="0%" stop-color="#ff1a1a"/>
      <stop offset="100%" stop-color="#5a0000"/>
    </linearGradient>
    <filter id="glow">
      <feGaussianBlur stdDeviation="2.2" result="b"/>
      <feMerge><feMergeNode in="b"/><feMergeNode in="SourceGraphic"/></feMerge>
    </filter>
  </defs>
  <rect width="120" height="120" rx="26" fill="url(#bg)"/>
  <path d="M18 0h6l-2 28 8-10 2 14-6 20h-8z" fill="url(#blood)" opacity=".85"/>
  <path d="M92 0h7l1 22-9 12 4 18 8 16h-9l-6-20 7-16z" fill="url(#blood)" opacity=".7"/>
  <!-- skull -->
  <g filter="url(#glow)" transform="translate(60 52)">
    <ellipse cx="0" cy="-6" rx="28" ry="26" fill="#e8e0d4"/>
    <ellipse cx="-11" cy="-8" rx="7.5" ry="9" fill="#0a0000"/>
    <ellipse cx="11" cy="-8" rx="7.5" ry="9" fill="#0a0000"/>
    <circle cx="-9" cy="-6" r="2.2" fill="#ff2a2a" opacity=".9"/>
    <circle cx="13" cy="-6" r="2.2" fill="#ff2a2a" opacity=".75"/>
    <path d="M-5 6 L0 16 L5 6 Z" fill="#1a0505"/>
    <rect x="-16" y="18" width="32" height="14" rx="3" fill="#d9d0c2"/>
    <path d="M-12 22h4M-4 22h4M4 22h4M-12 28h4M-4 28h4M4 28h4" stroke="#1a0505" stroke-width="2" stroke-linecap="round"/>
  </g>
  <text x="60" y="108" text-anchor="middle" font-family="serif" font-size="11" font-weight="700" fill="#ff3b3b" letter-spacing="2">DOX</text>
</svg>
