<svg width="208" height="210" viewBox="0 0 208 210" fill="none" xmlns="http://www.w3.org/2000/svg">
<path d="M79.8652 148.36H81.2892V149.832H79.8652V148.36ZM79.8652 151.24H81.2892V159.88H79.8652V151.24ZM84.4908 157V145.48H85.9148V155.648H91.2588V157H84.4908ZM92.7721 146.832V145.36H94.1961V146.832H92.7721ZM92.7721 157V148.36H94.1961V157H92.7721ZM99.8605 157.232C98.8311 157.232 97.9858 157.008 97.3245 156.56C96.6685 156.107 96.2658 155.475 96.1165 154.664L97.5725 154.432C97.6898 154.901 97.9591 155.275 98.3805 155.552C98.8018 155.824 99.3245 155.96 99.9485 155.96C100.541 155.96 101.005 155.837 101.341 155.592C101.677 155.347 101.845 155.013 101.845 154.592C101.845 154.347 101.789 154.149 101.677 154C101.565 153.845 101.333 153.701 100.981 153.568C100.634 153.435 100.109 153.275 99.4045 153.088C98.6418 152.885 98.0418 152.675 97.6045 152.456C97.1671 152.237 96.8551 151.984 96.6685 151.696C96.4818 151.408 96.3885 151.059 96.3885 150.648C96.3885 150.141 96.5271 149.699 96.8045 149.32C97.0818 148.936 97.4685 148.64 97.9645 148.432C98.4658 148.224 99.0471 148.12 99.7085 148.12C100.365 148.12 100.951 148.224 101.469 148.432C101.986 148.64 102.402 148.936 102.717 149.32C103.037 149.699 103.226 150.141 103.285 150.648L101.829 150.912C101.759 150.448 101.535 150.083 101.157 149.816C100.783 149.549 100.301 149.408 99.7085 149.392C99.1485 149.371 98.6925 149.469 98.3405 149.688C97.9938 149.907 97.8205 150.203 97.8205 150.576C97.8205 150.784 97.8845 150.963 98.0125 151.112C98.1458 151.261 98.3885 151.403 98.7405 151.536C99.0978 151.669 99.6151 151.821 100.293 151.992C101.055 152.184 101.655 152.395 102.093 152.624C102.535 152.848 102.85 153.115 103.037 153.424C103.223 153.728 103.317 154.104 103.317 154.552C103.317 155.384 103.01 156.04 102.397 156.52C101.783 156.995 100.938 157.232 99.8605 157.232ZM109.905 157C109.393 157.101 108.886 157.141 108.385 157.12C107.889 157.104 107.446 157.005 107.057 156.824C106.668 156.637 106.372 156.349 106.169 155.96C105.998 155.619 105.905 155.275 105.889 154.928C105.878 154.576 105.873 154.179 105.873 153.736V145.96H107.297V153.672C107.297 154.024 107.3 154.325 107.305 154.576C107.316 154.827 107.372 155.043 107.473 155.224C107.665 155.565 107.969 155.765 108.385 155.824C108.806 155.883 109.313 155.867 109.905 155.776V157ZM104.121 149.536V148.36H109.905V149.536H104.121ZM114.98 157.24C114.121 157.24 113.38 157.045 112.756 156.656C112.137 156.267 111.66 155.728 111.324 155.04C110.988 154.352 110.82 153.563 110.82 152.672C110.82 151.765 110.99 150.971 111.332 150.288C111.673 149.605 112.156 149.075 112.78 148.696C113.404 148.312 114.137 148.12 114.98 148.12C115.844 148.12 116.588 148.315 117.212 148.704C117.836 149.088 118.313 149.624 118.644 150.312C118.98 150.995 119.148 151.781 119.148 152.672C119.148 153.573 118.98 154.368 118.644 155.056C118.308 155.739 117.828 156.275 117.204 156.664C116.58 157.048 115.838 157.24 114.98 157.24ZM114.98 155.888C115.876 155.888 116.542 155.589 116.98 154.992C117.417 154.395 117.636 153.621 117.636 152.672C117.636 151.696 117.414 150.92 116.972 150.344C116.529 149.763 115.865 149.472 114.98 149.472C114.377 149.472 113.881 149.608 113.492 149.88C113.102 150.152 112.812 150.528 112.62 151.008C112.428 151.488 112.332 152.043 112.332 152.672C112.332 153.643 112.556 154.421 113.004 155.008C113.452 155.595 114.11 155.888 114.98 155.888ZM121.709 157V155.528H123.133V157H121.709ZM121.709 154.12V145.48H123.133V154.12H121.709Z" fill="#200020"/>
<path d="M165.306 26H42.6943C28.5037 26 17 37.6873 17 52.1043V157.896C17 172.313 28.5037 184 42.6943 184H165.306C179.496 184 191 172.313 191 157.896V52.1043C191 37.6873 179.496 26 165.306 26Z" fill="#46D5E8"/>
<path fill-rule="evenodd" clip-rule="evenodd" d="M139.893 61.4315C141.133 62.5297 141.249 64.4257 140.151 65.6663L94.1187 117.666C93.562 118.295 92.767 118.662 91.9272 118.677C91.0873 118.693 90.2795 118.355 89.7002 117.747L65.7321 92.5845C64.5893 91.3848 64.6355 89.4858 65.8352 88.3431C67.0349 87.2003 68.9338 87.2465 70.0765 88.4462L91.7915 111.243L135.658 61.6893C136.756 60.4487 138.652 60.3332 139.893 61.4315Z" fill="white"/>
<path d="M79.8653 148.36H81.2893V149.832H79.8653V148.36ZM79.8653 151.24H81.2893V159.88H79.8653V151.24ZM84.4909 157V145.48H85.9149V155.648H91.2589V157H84.4909ZM92.7722 146.832V145.36H94.1962V146.832H92.7722ZM92.7722 157V148.36H94.1962V157H92.7722ZM99.8606 157.232C98.8312 157.232 97.9859 157.008 97.3246 156.56C96.6686 156.107 96.2659 155.475 96.1166 154.664L97.5726 154.432C97.6899 154.901 97.9592 155.275 98.3806 155.552C98.8019 155.824 99.3246 155.96 99.9486 155.96C100.541 155.96 101.005 155.837 101.341 155.592C101.677 155.347 101.845 155.013 101.845 154.592C101.845 154.347 101.789 154.149 101.677 154C101.565 153.845 101.333 153.701 100.981 153.568C100.634 153.435 100.109 153.275 99.4046 153.088C98.6419 152.885 98.0419 152.675 97.6046 152.456C97.1672 152.237 96.8552 151.984 96.6686 151.696C96.4819 151.408 96.3886 151.059 96.3886 150.648C96.3886 150.141 96.5272 149.699 96.8046 149.32C97.0819 148.936 97.4686 148.64 97.9646 148.432C98.4659 148.224 99.0472 148.12 99.7086 148.12C100.365 148.12 100.951 148.224 101.469 148.432C101.986 148.64 102.402 148.936 102.717 149.32C103.037 149.699 103.226 150.141 103.285 150.648L101.829 150.912C101.759 150.448 101.535 150.083 101.157 149.816C100.783 149.549 100.301 149.408 99.7086 149.392C99.1486 149.371 98.6926 149.469 98.3406 149.688C97.9939 149.907 97.8206 150.203 97.8206 150.576C97.8206 150.784 97.8846 150.963 98.0126 151.112C98.1459 151.261 98.3886 151.403 98.7406 151.536C99.0979 151.669 99.6152 151.821 100.293 151.992C101.055 152.184 101.655 152.395 102.093 152.624C102.535 152.848 102.85 153.115 103.037 153.424C103.223 153.728 103.317 154.104 103.317 154.552C103.317 155.384 103.01 156.04 102.397 156.52C101.783 156.995 100.938 157.232 99.8606 157.232ZM109.905 157C109.393 157.101 108.886 157.141 108.385 157.12C107.889 157.104 107.446 157.005 107.057 156.824C106.668 156.637 106.372 156.349 106.169 155.96C105.998 155.619 105.905 155.275 105.889 154.928C105.878 154.576 105.873 154.179 105.873 153.736V145.96H107.297V153.672C107.297 154.024 107.3 154.325 107.305 154.576C107.316 154.827 107.372 155.043 107.473 155.224C107.665 155.565 107.969 155.765 108.385 155.824C108.806 155.883 109.313 155.867 109.905 155.776V157ZM104.121 149.536V148.36H109.905V149.536H104.121ZM114.98 157.24C114.121 157.24 113.38 157.045 112.756 156.656C112.137 156.267 111.66 155.728 111.324 155.04C110.988 154.352 110.82 153.563 110.82 152.672C110.82 151.765 110.99 150.971 111.332 150.288C111.673 149.605 112.156 149.075 112.78 148.696C113.404 148.312 114.137 148.12 114.98 148.12C115.844 148.12 116.588 148.315 117.212 148.704C117.836 149.088 118.313 149.624 118.644 150.312C118.98 150.995 119.148 151.781 119.148 152.672C119.148 153.573 118.98 154.368 118.644 155.056C118.308 155.739 117.828 156.275 117.204 156.664C116.58 157.048 115.838 157.24 114.98 157.24ZM114.98 155.888C115.876 155.888 116.542 155.589 116.98 154.992C117.417 154.395 117.636 153.621 117.636 152.672C117.636 151.696 117.414 150.92 116.972 150.344C116.529 149.763 115.865 149.472 114.98 149.472C114.377 149.472 113.881 149.608 113.492 149.88C113.102 150.152 112.812 150.528 112.62 151.008C112.428 151.488 112.332 152.043 112.332 152.672C112.332 153.643 112.556 154.421 113.004 155.008C113.452 155.595 114.11 155.888 114.98 155.888ZM121.709 157V155.528H123.133V157H121.709ZM121.709 154.12V145.48H123.133V154.12H121.709Z" fill="#200020"/>
</svg>
