<svg xmlns="http://www.w3.org/2000/svg" xmlns:xlink="http://www.w3.org/1999/xlink" preserveAspectRatio="xMidYMid meet" width="1080" height="1920" viewBox="0 0 1080 1920" style="width:100%;height:100%"><defs><animate repeatCount="1" dur="2s" begin="0s" xlink:href="#_R_G_L_24_G_M" fill="freeze" attributeName="opacity" from="0" to="0" keyTimes="0;0.02;0.020002;0.04;0.04;1" values="0;0;1;1;0;0" keySplines="0 0 0 0;0 0 0 0;0 0 0 0;0 0 0 0;0 0 0 0" calcMode="spline"/><animate repeatCount="1" dur="2s" begin="0s" xlink:href="#_R_G_L_23_G_M" fill="freeze" attributeName="opacity" from="0" to="0" keyTimes="0;0.04;0.040002;0.06;0.06;1" values="0;0;1;1;0;0" keySplines="0 0 0 0;0 0 0 0;0 0 0 0;0 0 0 0;0 0 0 0" calcMode="spline"/><animate repeatCount="1" dur="2s" begin="0s" xlink:href="#_R_G_L_22_G_M" fill="freeze" attributeName="opacity" from="0" to="0" keyTimes="0;0.06;0.060002;0.08;0.08;1" values="0;0;1;1;0;0" keySplines="0 0 0 0;0 0 0 0;0 0 0 0;0 0 0 0;0 0 0 0" calcMode="spline"/><animate repeatCount="1" dur="2s" begin="0s" xlink:href="#_R_G_L_21_G_M" fill="freeze" attributeName="opacity" from="0" to="0" keyTimes="0;0.08;0.080002;0.1;0.1;1" values="0;0;1;1;0;0" keySplines="0 0 0 0;0 0 0 0;0 0 0 0;0 0 0 0;0 0 0 0" calcMode="spline"/><animate repeatCount="1" dur="2s" begin="0s" xlink:href="#_R_G_L_20_G_M" fill="freeze" attributeName="opacity" from="0" to="0" keyTimes="0;0.1;0.100002;0.12;0.12;1" values="0;0;1;1;0;0" keySplines="0 0 0 0;0 0 0 0;0 0 0 0;0 0 0 0;0 0 0 0" calcMode="spline"/><animate repeatCount="1" dur="2s" begin="0s" xlink:href="#_R_G_L_19_G_M" fill="freeze" attributeName="opacity" from="0" to="0" keyTimes="0;0.12;0.120002;0.14;0.14;1" values="0;0;1;1;0;0" keySplines="0 0 0 0;0 0 0 0;0 0 0 0;0 0 0 0;0 0 0 0" calcMode="spline"/><animate repeatCount="1" dur="2s" begin="0s" xlink:href="#_R_G_L_18_G_M" fill="freeze" attributeName="opacity" from="0" to="0" keyTimes="0;0.14;0.140002;0.16;0.16;1" values="0;0;1;1;0;0" keySplines="0 0 0 0;0 0 0 0;0 0 0 0;0 0 0 0;0 0 0 0" calcMode="spline"/><animate repeatCount="1" dur="2s" begin="0s" xlink:href="#_R_G_L_17_G_M" fill="freeze" attributeName="opacity" from="0" to="0" keyTimes="0;0.16;0.160002;0.18;0.18;1" values="0;0;1;1;0;0" keySplines="0 0 0 0;0 0 0 0;0 0 0 0;0 0 0 0;0 0 0 0" calcMode="spline"/><animate repeatCount="1" dur="2s" begin="0s" xlink:href="#_R_G_L_16_G_M" fill="freeze" attributeName="opacity" from="0" to="0" keyTimes="0;0.18;0.180002;0.2;0.2;1" values="0;0;1;1;0;0" keySplines="0 0 0 0;0 0 0 0;0 0 0 0;0 0 0 0;0 0 0 0" calcMode="spline"/><animate repeatCount="1" dur="2s" begin="0s" xlink:href="#_R_G_L_15_G_M" fill="freeze" attributeName="opacity" from="0" to="0" keyTimes="0;0.2;0.200002;0.22;0.22;1" values="0;0;1;1;0;0" keySplines="0 0 0 0;0 0 0 0;0 0 0 0;0 0 0 0;0 0 0 0" calcMode="spline"/><animate repeatCount="1" dur="2s" begin="0s" xlink:href="#_R_G_L_14_G_M" fill="freeze" attributeName="opacity" from="0" to="0" keyTimes="0;0.22;0.220002;0.24;0.24;1" values="0;0;1;1;0;0" keySplines="0 0 0 0;0 0 0 0;0 0 0 0;0 0 0 0;0 0 0 0" calcMode="spline"/><animate repeatCount="1" dur="2s" begin="0s" xlink:href="#_R_G_L_13_G_M" fill="freeze" attributeName="opacity" from="0" to="0" keyTimes="0;0.24;0.240002;0.26;0.26;1" values="0;0;1;1;0;0" keySplines="0 0 0 0;0 0 0 0;0 0 0 0;0 0 0 0;0 0 0 0" calcMode="spline"/><animate repeatCount="1" dur="2s" begin="0s" xlink:href="#_R_G_L_12_G_M" fill="freeze" attributeName="opacity" from="0" to="0" keyTimes="0;0.26;0.260002;0.28;0.28;1" values="0;0;1;1;0;0" keySplines="0 0 0 0;0 0 0 0;0 0 0 0;0 0 0 0;0 0 0 0" calcMode="spline"/><animate repeatCount="1" dur="2s" begin="0s" xlink:href="#_R_G_L_11_G_M" fill="freeze" attributeName="opacity" from="0" to="0" keyTimes="0;0.28;0.280002;0.3;0.3;1" values="0;0;1;1;0;0" keySplines="0 0 0 0;0 0 0 0;0 0 0 0;0 0 0 0;0 0 0 0" calcMode="spline"/><animate repeatCount="1" dur="2s" begin="0s" xlink:href="#_R_G_L_10_G_M" fill="freeze" attributeName="opacity" from="0" to="0" keyTimes="0;0.3;0.300002;0.32;0.32;1" values="0;0;1;1;0;0" keySplines="0 0 0 0;0 0 0 0;0 0 0 0;0 0 0 0;0 0 0 0" calcMode="spline"/><animate repeatCount="1" dur="2s" begin="0s" xlink:href="#_R_G_L_9_G_M" fill="freeze" attributeName="opacity" from="0" to="0" keyTimes="0;0.32;0.320002;0.34;0.34;1" values="0;0;1;1;0;0" keySplines="0 0 0 0;0 0 0 0;0 0 0 0;0 0 0 0;0 0 0 0" calcMode="spline"/><animate repeatCount="1" dur="2s" begin="0s" xlink:href="#_R_G_L_8_G_M" fill="freeze" attributeName="opacity" from="0" to="0" keyTimes="0;0.34;0.340002;0.36;0.36;1" values="0;0;1;1;0;0" keySplines="0 0 0 0;0 0 0 0;0 0 0 0;0 0 0 0;0 0 0 0" calcMode="spline"/><animate repeatCount="1" dur="2s" begin="0s" xlink:href="#_R_G_L_7_G_M" fill="freeze" attributeName="opacity" from="0" to="0" keyTimes="0;0.36;0.360002;0.38;0.38;1" values="0;0;1;1;0;0" keySplines="0 0 0 0;0 0 0 0;0 0 0 0;0 0 0 0;0 0 0 0" calcMode="spline"/><animate repeatCount="1" dur="2s" begin="0s" xlink:href="#_R_G_L_6_G_M" fill="freeze" attributeName="opacity" from="0" to="0" keyTimes="0;0.38;0.380002;0.4;0.4;1" values="0;0;1;1;0;0" keySplines="0 0 0 0;0 0 0 0;0 0 0 0;0 0 0 0;0 0 0 0" calcMode="spline"/><animate repeatCount="1" dur="2s" begin="0s" xlink:href="#_R_G_L_5_G_M" fill="freeze" attributeName="opacity" from="0" to="0" keyTimes="0;0.4;0.400002;0.42;0.42;1" values="0;0;1;1;0;0" keySplines="0 0 0 0;0 0 0 0;0 0 0 0;0 0 0 0;0 0 0 0" calcMode="spline"/><animate repeatCount="1" dur="2s" begin="0s" xlink:href="#_R_G_L_4_G_M" fill="freeze" attributeName="opacity" from="0" to="0" keyTimes="0;0.42;0.420002;0.44;0.44;1" values="0;0;1;1;0;0" keySplines="0 0 0 0;0 0 0 0;0 0 0 0;0 0 0 0;0 0 0 0" calcMode="spline"/><animate repeatCount="1" dur="2s" begin="0s" xlink:href="#_R_G_L_3_G_M" fill="freeze" attributeName="opacity" from="0" to="0" keyTimes="0;0.44;0.440002;0.46;0.46;1" values="0;0;1;1;0;0" keySplines="0 0 0 0;0 0 0 0;0 0 0 0;0 0 0 0;0 0 0 0" calcMode="spline"/><animate repeatCount="1" dur="2s" begin="0s" xlink:href="#_R_G_L_2_G_M" fill="freeze" attributeName="opacity" from="0" to="0" keyTimes="0;0.46;0.460002;0.48;0.48;1" values="0;0;1;1;0;0" keySplines="0 0 0 0;0 0 0 0;0 0 0 0;0 0 0 0;0 0 0 0" calcMode="spline"/><animate repeatCount="1" dur="2s" begin="0s" xlink:href="#_R_G_L_1_G_M" fill="freeze" attributeName="opacity" from="0" to="0" keyTimes="0;0.48;0.480002;0.5;0.5;1" values="0;0;1;1;0;0" keySplines="0 0 0 0;0 0 0 0;0 0 0 0;0 0 0 0;0 0 0 0" calcMode="spline"/><animate repeatCount="1" dur="2s" begin="0s" xlink:href="#_R_G_L_0_G_M" fill="freeze" attributeName="opacity" from="0" to="1" keyTimes="0;0.5;0.500002;1" values="0;0;1;1" keySplines="0 0 0 0;0 0 0 0;0 0 0 0" calcMode="spline"/><animate attributeType="XML" attributeName="opacity" dur="2s" from="0" to="1" xlink:href="#time_group"/></defs><g id="_R_G"><g id="_R_G_L_24_G_M"><g id="_R_G_L_24_G" transform=" translate(37.362, 1037.2) translate(-39.632, -190.75)"><path id="_R_G_L_24_G_D_0_P_0" fill="#da0081" fill-opacity="1" fill-rule="nonzero" d=" M1.82 306.25 C1.82,306.25 1.82,62.25 1.82,62.25 C9.3,87.92 0.25,99.65 15.1,127.78 C17.35,132.05 17.36,136.92 16.71,141.31 C24.34,153.83 28.37,166.94 31.68,181.22 C33.88,190.73 34.34,199.39 34.49,209.32 C34.67,221.31 39.06,232.96 37.79,245.04 C35.83,263.79 12.88,291.41 1.82,306.25z "/><path id="_R_G_L_24_G_D_1_P_0" fill="#da0081" fill-opacity="1" fill-rule="nonzero" d=" M1.82 32.25 C1.82,32.25 1.82,0.25 1.82,0.25 C1.82,0.25 9.45,5.82 9.45,5.82 C14.78,9.72 21.38,11.26 26.83,15.41 C44.69,29.04 42.17,24.07 59.25,35.01 C64.7,38.5 78.78,43.58 78.96,49.96 C79.01,51.93 77.98,54.21 76.35,55.91 C67.05,65.63 46.37,55.1 37.14,51.73 C15.58,43.87 18.66,37.96 1.82,32.25z "/><path id="_R_G_L_24_G_D_2_P_0" fill="#da0081" fill-opacity="1" fill-rule="nonzero" d=" M1.82 381.25 C1.82,381.25 1.82,350.25 1.82,350.25 C6.1,355.61 13.83,372.22 8.39,378.12 C6.89,379.73 4.11,380.48 1.82,381.25z "/></g></g><g id="_R_G_L_23_G_M"><g id="_R_G_L_23_G" transform=" translate(520.145, 811.578) translate(-520.84, -431.21)"><path id="_R_G_L_23_G_D_0_P_0" fill="#da0081" fill-opacity="1" fill-rule="nonzero" d=" M0.25 548.33 C0.25,548.33 0.25,518.33 0.25,518.33 C6.97,513.05 14.29,508.91 22.9,506.3 C28.07,504.74 32.38,501.96 35.87,497.82 C43.87,488.35 52.3,479.93 61.45,471.54 C82.32,452.39 87.36,454.7 109.59,440.37 C109.51,433.19 109.58,425.8 106.45,419.36 C104.92,416.22 101.63,413.45 102.87,409.51 C104.16,405.39 104.95,401.11 104.08,396.83 C102.12,387.12 107.23,379.09 115.98,375.29 C122.48,372.46 128.98,370.54 136.17,371.66 C145.59,373.14 153.59,379.08 155.19,388.19 C155.19,388.19 158.01,404.31 158.01,404.31 C159.2,411.12 161.9,416.63 160.3,423.73 C158.86,430.14 157.62,436.19 157,443.71 C164.12,443.93 170.28,446.21 176.76,446.9 C196.98,449.07 199.93,464.07 212.42,471.19 C219.56,475.25 227,477.89 233.18,483.49 C239.18,488.92 246.54,491.51 253.43,495.43 C253.43,495.43 272.6,506.36 272.6,506.36 C276.09,508.35 281.09,510.78 282.37,514.76 C283.97,519.77 279.01,524.07 274.46,525.21 C269.72,526.4 264.64,526.09 259.76,524.54 C248.82,521.07 237.9,517.16 227.89,511.55 C222.33,508.44 207.28,494.41 202.52,499.1 C198.77,502.79 203.38,518.25 204.96,524.32 C213.06,555.42 204.59,565.8 218.38,592.98 C220.86,597.86 221.96,602.64 220.54,608.31 C228.6,619.97 231.9,632.79 235.19,646.15 C237.64,656.07 238.28,665.1 238.39,675.4 C238.53,687.43 242.88,699.09 241.58,711.32 C239.51,730.97 213.8,761.08 201.52,777.67 C199.5,780.41 198.2,783.78 198.83,787.4 C200.26,795.59 200.92,803.92 203.96,811.59 C206.92,819.05 218.79,836.74 212.39,843.77 C206.48,850.24 201.13,841.95 195.54,853.78 C191.41,856.88 177,862.17 171.83,855.78 C155.64,835.73 143.76,834.06 133.43,822.37 C128.49,816.77 128.1,809.55 133.35,804.18 C144.02,793.27 145.95,798.21 156.6,783.56 C160.79,777.81 162.77,771.7 160.2,764.64 C154.41,748.7 150.39,732.54 147.2,715.81 C145.3,705.82 149.16,693.54 138.84,692.47 C118.02,690.33 125.7,664.23 122.76,655.91 C122.76,655.91 111.88,625.03 111.88,625.03 C103.11,600.14 112.36,591.76 105.56,571.32 C105.56,571.32 96.06,542.78 96.06,542.78 C93.5,535.08 91,527.59 87.49,520.32 C86.09,517.42 82.83,517.14 80.43,515.96 C69.09,510.42 64.9,521.33 56.56,520.59 C53.64,520.34 50.64,517.56 47.6,519.45 C47.6,519.45 32.75,528.69 32.75,528.69 C32.75,528.69 2.9,547.81 2.9,547.81 C1.97,548.41 0.95,548.24 0.25,548.33z  M200.61 715.57 C203.95,710 201.7,705.42 198.17,701.33 C192.67,694.96 188.28,688.11 179.58,684.03 C176.71,702.46 180.05,712.09 188.08,728.78 C193.38,725.05 197.49,720.77 200.61,715.57z "/><path id="_R_G_L_23_G_D_1_P_0" fill="#46d5e8" fill-opacity="1" fill-rule="nonzero" d=" M1041.43 38.32 C1041.43,59.34 1024.39,76.38 1003.37,76.38 C982.34,76.38 965.3,59.34 965.3,38.32 C965.3,17.29 982.34,0.25 1003.37,0.25 C1024.39,0.25 1041.43,17.29 1041.43,38.32z "/></g></g><g id="_R_G_L_22_G_M"><g id="_R_G_L_22_G" transform=" translate(469.697, 826.999) translate(-470.392, -414.027)"><path id="_R_G_L_22_G_D_0_P_0" fill="#da0081" fill-opacity="1" fill-rule="nonzero" d=" M0.25 561.73 C0.25,561.73 0.25,540.73 0.25,540.73 C11.84,530.04 38.2,510.76 52.54,504.17 C74.27,494.18 74.47,481.71 99.88,473.71 C105.15,472.05 109.35,469.46 112.9,465.25 C129.34,445.77 150.3,425.76 173.75,415.44 C178.38,413.4 182.37,410.88 186.69,407.69 C186.47,400.51 186.62,393.15 183.47,386.72 C181.97,383.66 178.65,380.75 179.89,376.94 C183.93,364.58 177.27,356.62 184.58,348.96 C191.78,341.41 202.84,337.81 213.05,339.1 C234.88,341.86 233.48,366.58 235.02,371.72 C236.9,378.02 238.79,383.38 237.48,390.21 C237.48,390.21 234.11,407.8 234.11,407.8 C233.94,408.71 234.55,411.51 235.8,411.46 C241.77,411.22 247.21,413.65 252.96,414.18 C274.06,416.13 276.96,431.6 289.43,438.59 C296.64,442.63 303.96,445.31 310.21,450.89 C316.21,456.26 323.63,458.9 330.49,462.81 C330.49,462.81 350.21,474.06 350.21,474.06 C353.44,475.91 357.66,478.01 359.22,481.51 C361.23,486.05 357.25,490.7 352.83,492.18 C347.49,493.97 341.55,493.58 335.97,491.73 C325.54,488.28 315.14,484.59 305.51,479.28 C299.52,475.97 285.49,462.94 280.14,466.04 C275.29,468.85 280.48,485.83 282.01,491.66 C284.81,502.39 286.3,512.58 286.39,523.78 C286.49,536.22 289.24,548.69 295.25,559.54 C298.28,565.01 296.32,570.35 298.55,575.4 C298.55,575.4 307.67,596.12 307.67,596.12 C315.25,613.34 314.49,641.7 316.75,655.86 C318.02,663.79 319.89,672.5 318.39,680.49 C314.64,700.39 291.32,728.17 278.53,745.11 C276.52,747.78 275.25,751.22 275.88,754.79 C277.37,763.2 277.94,771.87 281.26,779.63 C284.24,786.59 295.68,804.27 289.47,811.08 C288.03,812.66 284.98,814.43 282.33,814.18 C276.3,813.59 275.26,817.28 272.66,821.25 C270.65,824.32 264.64,824.05 261.48,825.42 C255.99,827.8 250.89,826.09 247.4,821.61 C234.03,804.45 220.03,800.76 210.5,789.79 C205.12,783.61 205.53,776.12 211.24,770.65 C221.2,761.11 230.4,761.2 237.77,743.1 C240.74,735.82 224.74,698.46 223.79,679.7 C223.79,679.7 223.16,667.15 223.16,667.15 C222.96,663.22 219.79,660.26 215.86,659.86 C195.11,657.74 202.72,631.57 199.8,623.26 C199.8,623.26 188.95,592.4 188.95,592.4 C180.62,568.7 188.62,557.11 183.29,540.97 C183.29,540.97 171.86,506.38 171.86,506.38 C169.65,499.7 167.4,493.19 164.06,487.07 C162.56,484.32 158.96,484.35 156.68,483.19 C152.51,481.09 149.28,481.27 145.11,483.59 C125.66,494.46 133.7,480.77 121.36,488.75 C121.36,488.75 95.89,505.22 95.89,505.22 C84.77,512.41 73.82,518.74 61.64,523.89 C52.16,527.9 44.04,532.96 36.68,540.1 C28.68,547.85 16.7,542.51 8,554.59 C5.87,557.54 3.25,560.26 0.25,561.73z  M277.68 683.15 C280.67,677.62 279.05,673.24 275.62,669.21 C270.02,662.65 265.45,655.69 256.61,651.4 C253.81,670.23 257.02,679.2 265.15,696.2 C270.34,692.44 274.52,688.2 277.68,683.15z "/><path id="_R_G_L_22_G_D_1_P_0" fill="#46d5e8" fill-opacity="1" fill-rule="nonzero" d=" M940.53 38.32 C940.53,59.35 923.49,76.39 902.46,76.39 C881.44,76.39 864.39,59.35 864.39,38.32 C864.39,17.3 881.44,0.25 902.46,0.25 C923.49,0.25 940.53,17.3 940.53,38.32z "/></g></g><g id="_R_G_L_21_G_M"><g id="_R_G_L_21_G" transform=" translate(464.483, 852.639) translate(-398.15, -387.683)"><path id="_R_G_L_21_G_D_0_P_0" fill="#d90281" fill-opacity="1" fill-rule="nonzero" d=" M220.8 719.22 C232.31,708.02 234,712.84 244.11,698.48 C248.09,692.84 249.66,686.84 247.24,679.95 C241.23,662.91 236.59,645.7 233.81,627.72 C232.7,620.55 235.94,609 225.83,607.85 C205.04,605.49 212.81,579.82 209.82,571.33 C209.82,571.33 199.14,540.97 199.14,540.97 C190.4,516.11 198.83,505.71 193.3,488.95 C193.3,488.95 181.88,454.38 181.88,454.38 C179.67,447.71 177.43,441.17 174.05,435.07 C172.6,432.46 168.88,432.27 166.68,431.12 C162.26,428.82 158.7,429.48 154.47,431.97 C137.24,442.12 143.27,429.07 131.36,436.8 C131.36,436.8 104.71,454.08 104.71,454.08 C93.55,461.32 82.48,467.35 70.3,472.54 C61.32,476.36 53.69,481.42 46.72,488.11 C39.02,495.51 26.48,491.27 18.93,501.52 C16.58,504.71 11.06,511.33 7.32,509.98 C6.2,509.57 5.24,508.13 4.74,506.54 C0.25,492.16 24.74,476.6 34.82,469.46 C44.29,462.76 53.31,456.51 63.84,451.55 C83.42,442.33 86.06,428.86 109.9,421.76 C115.77,420.02 120.06,416.87 123.89,412.27 C131.35,403.28 139.3,395.3 147.89,387.44 C158.64,377.61 169.8,369.86 183.1,363.7 C187.44,361.7 193.07,359.24 196.27,355.58 C197.3,348.84 196.17,340.92 193.54,334.75 C192.16,331.52 188.5,328.81 189.91,324.96 C191.59,320.4 191.91,316.15 191.06,311.31 C188.52,296.73 201.91,289.28 214.09,287.17 C228.27,284.72 240.15,292.87 243.15,306.81 C244.16,311.51 243.81,316.67 245.44,321.25 C247.28,326.43 248.72,331 247.7,336.59 C247.7,336.59 244.16,356.01 244.16,356.01 C243.91,357.4 244.83,359.7 246.51,359.61 C252.27,359.3 257.41,361.67 262.96,362.22 C282.54,364.18 284.22,375.31 297.58,385.44 C302.23,388.97 307.87,390.22 312.7,393.45 C319.28,397.85 325.03,403.39 332.29,406.74 C338.5,409.6 344.05,412.55 349.78,416.32 C355.35,419.97 369.65,425.12 369.78,431.36 C369.83,433.68 368.77,436.44 366.47,438.15 C361.31,441.99 354.06,442.06 347.51,440.11 C336.51,436.84 325.61,432.8 315.53,427.26 C309.32,423.85 295.37,410.81 290.13,414.09 C285.39,417.07 290.64,434.61 292.2,440.47 C294.96,450.87 296.3,460.78 296.42,471.59 C296.75,501.91 307.94,502.35 308.27,523.33 C319.39,544.31 325.41,567.2 325.47,590.78 C325.5,602.8 330.02,614.53 328.66,626.82 C326.52,646.15 301.1,676.35 288.98,692.57 C287.07,695.13 285.3,698.28 285.82,701.81 C287.13,710.5 287.93,719.4 291.23,727.53 C294.1,734.59 305.86,752.18 299.45,759.29 C298.09,760.8 294.65,762.45 292.26,762.15 C285.77,761.34 285.7,765.97 282.55,769.22 C279.05,772.83 271.28,773.38 266.36,774.35 C262.53,775.12 259.46,772.01 257.49,769.58 C242.75,751.4 230.63,749.42 220.48,737.74 C215.43,731.92 215.33,724.53 220.8,719.22z  M287.62 631.12 C290.86,625.66 288.98,621.23 285.63,617.21 C280.1,610.57 275.39,603.73 266.63,599.42 C263.84,618.34 267.08,627.14 275.11,644.21 C280.36,640.48 284.56,636.27 287.62,631.12z "/><path id="_R_G_L_21_G_D_1_P_0" fill="#46d5e8" fill-opacity="1" fill-rule="nonzero" d=" M796.05 38.32 C796.05,59.35 779,76.4 757.98,76.4 C736.95,76.4 719.9,59.35 719.9,38.32 C719.9,17.3 736.95,0.25 757.98,0.25 C779,0.25 796.05,17.3 796.05,38.32z "/></g></g><g id="_R_G_L_20_G_M"><g id="_R_G_L_20_G" transform=" translate(467.778, 881.053) translate(-350.02, -359)"><path id="_R_G_L_20_G_D_0_P_0" fill="#d90181" fill-opacity="1" fill-rule="nonzero" d=" M220.08 662.91 C231.3,651.1 234.06,655.89 243.92,641.62 C247.98,635.74 249.69,629.68 247.11,622.58 C241.5,607.15 237.55,591.5 234.46,575.29 C232.18,563.35 235.94,551.92 226.27,550.89 C204.68,548.6 213.09,523.07 209.52,513.08 C209.52,513.08 199.05,483.73 199.05,483.73 C190.21,458.98 199.09,449.22 192.7,430.01 C192.7,430.01 183.21,401.52 183.21,401.52 C180.55,393.55 178.09,385.76 174.27,378.33 C172.82,375.53 169.48,375.37 167.12,374.18 C156.2,368.66 152.48,379.62 143.15,378.92 C141.09,378.76 138.06,376.02 135.82,377.29 C108.95,392.64 101.32,401.86 71.36,414.97 C63.12,418.57 55.56,422.66 49.12,428.95 C39.54,438.32 27.94,435.65 23.47,440.15 C23.47,440.15 11.96,451.71 11.96,451.71 C10.75,452.92 9.18,453.32 7.57,453.01 C6.17,452.75 5.17,451.03 4.6,449.11 C0.25,434.39 26.61,418.28 36.88,410.85 C45.69,404.48 54.33,398.97 64.13,394.24 C71.44,390.71 77.63,385.94 83.45,380.36 C102.27,362.29 113.44,367.16 121.68,357.5 C132.04,345.36 143.03,334.47 155.12,324.07 C171.73,309.79 180.52,310.08 196.84,298.34 C196.29,291.14 196.6,283.77 193.31,277.34 C191.75,274.29 188.61,271.6 189.95,267.65 C194.12,255.32 184.77,242.84 201.44,234.46 C208.16,231.08 215.1,228.91 222.73,229.92 C232.51,231.22 240.75,237.51 242.36,246.96 C242.36,246.96 245.12,263.19 245.12,263.19 C246.15,269.26 248.7,274.17 247.5,280.64 C247.5,280.64 244.16,298.61 244.16,298.61 C243.91,299.96 244.61,301.03 245.05,301.86 C245.71,303.09 247.37,302.1 248.9,302.45 C272.54,307.84 272.93,302.78 288.89,320.41 C301.98,334.88 302.98,328.18 320.94,342.53 C327.2,347.53 334.06,350.07 340.81,353.93 C340.81,353.93 359.2,364.44 359.2,364.44 C362.64,366.41 367.17,368.52 369.05,372.17 C371.52,376.99 367.1,381.8 362.56,383.25 C351.07,386.92 337.72,379.54 327.55,375.83 C320.82,373.38 314.91,370.49 309.28,366.04 C305.13,362.75 294.27,354.25 289.86,357.14 C288.7,357.89 287.93,359.92 287.99,361.88 C288.44,376.42 296.22,388.67 296.34,414.63 C296.4,427.52 299.55,439.6 305.28,450.99 C307.77,455.94 308.79,460.86 307.72,466.25 C310.66,472.56 314.61,477.95 316.64,484.56 C329.75,527.16 322.06,519.79 326.55,545.6 C330.73,569.58 329.98,575.6 317.29,596.32 C308.83,610.13 298.87,622.17 289.21,635.11 C286.92,638.17 285.11,641.56 285.81,645.58 C287.24,653.85 287.91,662.37 291.04,670.17 C294.16,677.96 305.51,694.51 299.52,701.96 C294.25,708.53 286.98,700.5 282.83,712.05 C278.83,715.48 271.33,716.51 265.87,717.26 C262.34,717.75 259.08,714.69 257.22,712.3 C243.92,695.18 229.95,692.05 219.86,679.84 C215.5,674.57 215.43,667.81 220.08,662.91z  M287 574.88 C291.17,568.74 288.98,563.97 285.02,559.41 C279.5,553.05 275.06,546.12 266.38,542.38 C264.31,562.48 266.48,568.71 275.03,587.02 C279.91,583.88 283.83,579.54 287,574.88z "/><path id="_R_G_L_20_G_D_1_P_0" fill="#46d5e8" fill-opacity="1" fill-rule="nonzero" d=" M699.79 38.34 C699.79,59.38 682.74,76.44 661.7,76.44 C640.66,76.44 623.6,59.38 623.6,38.34 C623.6,17.31 640.66,0.25 661.7,0.25 C682.74,0.25 699.79,17.31 699.79,38.34z "/></g></g><g id="_R_G_L_19_G_M"><g id="_R_G_L_19_G" transform=" translate(462.346, 893.24) translate(-337.715, -333.299)"><path id="_R_G_L_19_G_D_0_P_0" fill="#d90181" fill-opacity="1" fill-rule="nonzero" d=" M263.14 665.4 C252.9,663.15 258.2,651.43 254.32,643.51 C245.03,624.58 245.66,632.15 235.19,623.61 C230.13,619.49 228.66,613.76 232.96,608.53 C232.96,608.53 245.07,593.79 245.07,593.79 C249.52,588.38 249.71,581.45 246.85,575.02 C236.35,551.41 230.55,540.21 228.98,512.95 C221.36,506.25 207.79,508 207.56,490.42 C207.36,476.27 208.28,461.29 204.15,447.57 C203.78,446.35 193.37,429.09 193.5,415.37 C193.69,394.79 180.43,385.14 173.18,367.82 C171.26,363.22 170.3,358.64 167.47,354.4 C164.38,349.76 163.88,343.79 160.14,339.33 C160.14,339.33 144.78,348.27 144.78,348.27 C137.15,352.7 126.93,345.3 109.86,360.59 C104.5,365.39 99.1,368.91 92.07,370.72 C84.36,372.71 76.91,375.18 69.51,378.04 C61.24,381.23 54.75,386.15 48.77,392.57 C36.31,405.95 31.3,389.6 20.56,401.49 C16.94,405.5 10.68,408.55 6,404.45 C0.25,399.4 28.87,377.83 31.36,376.34 C31.36,376.34 52.69,363.62 52.69,363.62 C68.87,353.97 83.38,342.68 100.48,334.51 C110.9,329.54 119.31,323.07 126.42,314.21 C134.33,304.38 142.69,295.38 151.97,286.95 C166.9,273.38 180.92,273.02 183.98,267.96 C188,261.31 186.13,253.05 185.24,245.75 C184.12,236.57 183.83,227.9 183.29,218.74 C182.92,212.32 186.58,206.89 192.31,204.35 C198.13,201.77 204.24,198.93 211.05,198.77 C220.6,198.55 228.52,206.48 232,215.21 C232,215.21 238.32,231.06 238.32,231.06 C242.37,241.22 237.42,253.01 236.64,263.69 C247.37,265.41 258.4,266.68 267.21,272.59 C278.43,280.12 286.02,296.1 301.5,299.48 C321.04,303.75 314.04,314.3 346.69,308.6 C354.51,307.23 361.73,305.49 369.16,308.81 C370.5,309.41 371.84,310.15 372.27,311.01 C375.6,317.59 363.11,326.38 352.2,328.67 C352.2,328.67 330.79,333.17 330.79,333.17 C325.91,334.2 320.88,333.8 316.26,332.16 C316.26,332.16 291.18,323.22 291.18,323.22 C287.52,321.92 282.91,320.09 279.23,322.37 C277.63,327.68 284.92,340.42 287.91,351.46 C290.72,361.89 295.37,371.1 302.07,379.55 C314.44,395.15 304.72,401.4 314.78,425.63 C319.05,435.93 320.14,446.46 323.74,456.8 C323.74,456.8 332.24,481.21 332.24,481.21 C337.47,496.24 326.88,493.92 330.99,504.43 C335.27,515.35 337.96,526.88 336.71,538.78 C336.18,543.7 333.53,547.93 330.9,551.91 C319.53,569.09 299.4,579.09 289.29,598.42 C292.51,606.78 295.95,614.23 297.69,622.55 C300.67,636.82 308.49,631.94 308.15,645.78 C307.99,652.17 304.42,657.44 297.85,658.51 C293.11,659.28 288.72,658.11 283.78,656.47 C283.81,662.09 281.47,665.73 276.35,666.02 C271.95,666.27 267.47,666.35 263.14,665.4z  M291.59 520.82 C288.96,514.66 286.67,506.79 281.61,502.26 C278.52,500.72 272.81,503.39 269.75,499.24 C265.84,513.61 264.52,521.67 271.49,534.42 C273.62,538.33 274.09,542.32 277.09,546.48 C280.74,538.81 294.22,526.98 291.59,520.82z "/><path id="_R_G_L_19_G_D_1_P_0" fill="#46d5e8" fill-opacity="1" fill-rule="nonzero" d=" M675.18 38.45 C675.18,59.55 658.08,76.65 636.98,76.65 C615.88,76.65 598.78,59.55 598.78,38.45 C598.78,17.35 615.88,0.25 636.98,0.25 C658.08,0.25 675.18,17.35 675.18,38.45z "/></g></g><g id="_R_G_L_18_G_M"><g id="_R_G_L_18_G" transform=" translate(454.812, 904.539) translate(-330.871, -306.173)"><path id="_R_G_L_18_G_D_0_P_0" fill="#d90181" fill-opacity="1" fill-rule="nonzero" d=" M250.99 590.62 C248.59,588.74 247.82,586.09 247.63,583.85 C247.4,581.09 249.23,579.12 251.94,577.09 C250.13,570.61 239.99,561.84 247.33,554.24 C254.66,546.65 240,519.75 238.52,502.8 C238.52,502.8 236.75,482.62 236.75,482.62 C235.29,465.93 216.23,472.69 215.64,456.38 C215.24,445.44 216.36,435.24 216.88,424.29 C217.06,420.48 218.14,415.22 216.25,412.01 C206.93,396.1 217.74,400.5 203.18,377.89 C198.56,370.7 193.07,364.7 188.96,357.16 C182.02,344.46 176.94,331.33 172.86,317.46 C170.84,310.61 164.34,302.22 160.97,302.39 C159.67,302.45 156.75,302.93 155.9,304.17 C151.84,310.13 144.86,308.16 139.79,310.33 C127.62,315.55 117.1,322.95 104.28,326.83 C96.16,329.29 88.5,332.66 80.23,334.61 C60.62,339.26 54.61,359.13 43.08,353.86 C28.42,347.17 26.88,359.84 13.6,360.83 C0.25,361.82 17.26,342.99 30.93,336.94 C30.93,336.94 56.62,325.55 56.62,325.55 C65.62,321.56 74.26,316.88 81.39,310.17 C97.34,295.18 111.86,297.59 119.46,290.34 C119.46,290.34 146.59,264.43 146.59,264.43 C163.8,248.01 181.77,248.34 185.77,235.62 C187.33,230.67 187.44,222.99 185.94,218.18 C183.55,210.54 181.03,204.46 181.37,196.29 C181.76,186.43 185.87,177.61 194.67,172.43 C204.15,166.87 220.56,157.52 229.97,167.95 C240.43,179.55 236.39,190.51 239.79,206.68 C241.53,214.96 234.99,224.56 236.73,231.66 C250.06,226.15 263.88,230.74 272.22,241.67 C276.25,246.96 281.08,249.1 287.64,249.54 C295.07,250.03 303.08,252.61 307.01,258.71 C307.01,258.71 315.67,272.17 315.67,272.17 C317.88,275.6 329.43,286.41 323.24,295.63 C318.87,302.12 303.02,301.14 299.45,299.24 C294.82,296.78 291.2,293.11 286.03,291.62 C283.89,291.01 282.61,288.59 280.08,288.84 C281.27,300.11 286.32,309.32 290.92,318.79 C290.92,318.79 298.8,335 298.8,335 C300.96,339.44 316.88,351.8 319.02,365.45 C319.65,369.45 318.87,373.24 319.15,377.56 C331.43,389.83 341.98,418.52 349.48,435.27 C349.48,435.27 356.32,450.54 356.32,450.54 C358.64,455.72 363.19,459.54 364.04,465.57 C365.15,473.34 365.38,481.13 364.81,489.04 C364.62,491.79 362.61,494.57 360.62,496.35 C354.73,501.65 349.33,507.11 344.63,513.41 C340.79,518.57 336.05,521.1 330.61,524.26 C319.11,530.92 308.29,539.21 299.3,549.14 C294.14,554.85 298.45,575.38 306.1,585.7 C310.16,591.17 316.28,600.87 312.59,606.65 C309.11,612.1 285.46,610.41 279.2,609.49 C273.83,608.69 270.27,605.75 266.32,602.64 C266.32,602.64 250.99,590.62 250.99,590.62z  M322.88 485.79 C313.77,479.59 311.62,467.19 304.38,465.02 C297.89,463.08 293.09,469.88 282.57,462.96 C277.06,464.3 273.26,471.52 274.58,477.52 C277.88,492.51 282.14,506.91 287.59,521.59 C292.77,519.27 294.3,514.27 297.25,510.1 C304.18,500.29 313.34,493.12 322.88,485.79z "/><path id="_R_G_L_18_G_D_1_P_0" fill="#46d5e8" fill-opacity="1" fill-rule="nonzero" d=" M661.49 38.17 C661.49,59.11 644.52,76.09 623.57,76.09 C602.63,76.09 585.65,59.11 585.65,38.17 C585.65,17.23 602.63,0.25 623.57,0.25 C644.52,0.25 661.49,17.23 661.49,38.17z "/></g></g><g id="_R_G_L_17_G_M"><g id="_R_G_L_17_G" transform=" translate(453.832, 927.221) translate(-317.729, -290.942)"><path id="_R_G_L_17_G_D_0_P_0" fill="#d90281" fill-opacity="1" fill-rule="nonzero" d=" M258.81 523.3 C253.59,513.38 249.11,503.59 244.97,493.16 C242.37,486.62 238.08,481 235.92,474.28 C232.26,462.93 223.23,436.65 212.87,430.81 C205.83,426.84 212.31,415.93 211.34,406.41 C210.48,397.96 212.03,389.21 210.5,381.26 C209.21,374.57 205,368.77 204.3,361.6 C203.79,356.28 200.85,351.43 197.48,347.53 C190.82,339.82 185.97,331.65 181.46,322.5 C181.46,322.5 159.04,277.11 159.04,277.11 C157.26,273.5 154.86,270.03 151.33,267.65 C151.33,267.65 137.74,278.42 137.74,278.42 C134.74,280.8 130.49,275.49 127.42,275.18 C117.99,277.42 109.9,283 100.99,286.52 C87.56,291.84 73.34,292.81 63.59,299.45 C55.45,305 46.98,308.87 37.72,312.48 C35.31,313.42 33.03,316.6 30.17,315.42 C27.91,314.49 26.36,311.35 23.51,311.59 C13.79,312.4 6.1,320.63 1.98,317.3 C0.37,316 0.25,313.19 1.45,311.12 C5.28,304.55 12.17,301.47 18.4,297.63 C28.54,291.36 38.9,288.43 50.32,285.32 C62.49,282.02 73.38,268.14 104.04,258.09 C110.76,255.89 115.47,249.19 120.84,245 C138.15,231.48 138,222.18 156.06,213.15 C163.37,209.49 170.25,205.67 176.71,200.64 C177.42,183.48 177.74,187.58 171.29,176.87 C169.43,173.79 171.72,170.61 171.19,167.52 C170.14,161.39 166.39,155.18 169.24,148.72 C171.58,143.39 176.38,137.75 181.78,135.2 C185.59,133.4 189.73,130.97 193.79,130.14 C211.74,126.47 227.61,141.4 227.2,159.28 C227.05,165.53 228.36,170.91 229.91,176.57 C232.08,184.51 223.81,196.56 228.63,200.26 C237.58,207.15 251.67,195.75 264.8,207.25 C272.27,213.8 278.72,221.23 284.54,230.25 C291.91,227.17 298.96,226.65 306.1,230.21 C310.51,232.42 316.87,234.47 319.16,239.62 C322.38,246.87 319.54,257.23 314.17,263.05 C309.12,268.53 300.63,267.73 294.99,263.71 C286.88,257.95 278.6,252.86 268.16,251.66 C265.08,260 280.53,290.65 284.49,298.28 C287.35,303.81 292.07,309.51 297.32,312.29 C305.36,316.55 305.31,323.43 308.75,330.48 C313.15,339.45 319.53,347.99 325.13,356.62 C325.13,356.62 346.35,389.34 346.35,389.34 C356.6,405.14 363.29,410.04 367.32,428.45 C370.58,443.36 376.14,464.59 355.04,470.87 C347.4,473.15 339.78,475.47 332.75,479.49 C322.52,485.35 312.61,490.98 303.41,498.28 C303.41,498.28 288.13,510.4 288.13,510.4 C288.95,523.09 293.58,534.06 297.93,545.57 C300.23,551.68 303.06,556.53 308.25,560.73 C312.87,564.47 314.51,572.29 309.43,576.42 C304.24,580.66 296.3,581.63 289.71,579.91 C280.19,577.42 271.38,574.42 262.14,571.38 C255.43,569.18 249.26,566.38 243.72,562.09 C239.52,558.84 237.02,552.55 240.03,547.83 C244.19,541.32 259.97,544.6 265.97,542.89 C264.59,535.47 262.01,529.38 258.81,523.3z  M322.07 442.25 C314.42,437.51 309.14,433.56 303.02,428.98 C298.96,425.93 289.28,435.05 283.1,431.81 C280.91,430.66 281.24,427.23 279.9,425.55 C276.18,428.34 276.25,432.88 274.65,436.59 C271.65,443.51 270.2,450.55 273.1,457.8 C273.1,457.8 281.17,478.02 281.17,478.02 C300.03,463.82 295.37,452.43 322.07,442.25z "/><path id="_R_G_L_17_G_D_1_P_0" fill="#46d5e8" fill-opacity="1" fill-rule="nonzero" d=" M635.21 38.17 C635.21,59.11 618.23,76.08 597.29,76.08 C576.35,76.08 559.37,59.11 559.37,38.17 C559.37,17.23 576.35,0.25 597.29,0.25 C618.23,0.25 635.21,17.23 635.21,38.17z "/></g></g><g id="_R_G_L_16_G_M"><g id="_R_G_L_16_G" transform=" translate(435.582, 977.684) translate(-307.712, -265.58)"><path id="_R_G_L_16_G_D_0_P_0" fill="#d90281" fill-opacity="1" fill-rule="nonzero" d=" M291.89 365.64 C295.05,386.28 292.09,398.39 299.52,411.63 C311.37,432.77 319.45,455.19 324.09,478.92 C327.06,494.06 348.54,514.81 341.96,524.41 C337.5,530.91 326.18,526.55 320.63,525.44 C312.02,523.73 303.5,524.62 294.69,525.03 C283.04,525.58 271.93,520.23 267,509.63 C266.05,507.59 266.71,504.09 267.64,502.25 C271.45,494.76 291.79,502.1 295.66,498.13 C300.74,492.92 294.09,484.18 292.13,479.33 C285.38,462.66 277.28,447.37 269.36,431.22 C269.36,431.22 251.59,394.95 251.59,394.95 C247.78,387.18 244.56,379.52 242.44,371.18 C241.61,367.92 239.54,365.14 236.78,363.46 C227.56,357.86 232.62,344.05 230.94,336.54 C229.54,330.28 231.21,322.54 228.41,316.92 C228.41,316.92 214.16,288.33 214.16,288.33 C206.07,272.09 190.08,235.36 179.7,223.76 C179.7,223.76 163.04,205.13 163.04,205.13 C150.8,211.59 140.66,208.74 132.01,217.89 C117.43,233.31 92.15,232.41 73.64,233.69 C66.5,234.18 59.46,236.52 52.6,238.28 C45.75,240.04 31.24,249.75 30.35,238.87 C21.03,239.39 13.44,246.64 1.48,242.84 C0.25,235.72 33.42,222.1 38.24,220.51 C43.9,218.64 50.02,219.59 55.69,217.77 C55.69,217.77 80.53,209.78 80.53,209.78 C96.25,204.73 110.75,198.93 123.81,188.83 C123.81,188.83 150.85,167.91 150.85,167.91 C155.67,164.18 160.6,160.21 166.47,158.74 C166.47,158.74 185.42,154.02 185.42,154.02 C185.08,146.05 187.41,137.92 186.47,129.82 C185.04,117.53 169.37,95.11 190.17,83.11 C204.06,75.1 231.14,71.87 235.99,87.11 C241.17,103.41 241.88,120.42 239.6,137.41 C239.38,139.02 240.52,143.67 242.49,142.89 C252.46,138.94 262.9,137.08 272.7,141.85 C281.94,146.35 287.67,160.22 301.96,167.55 C306.15,169.71 310.25,172.35 313.14,176.07 C316.21,180.02 320.34,181 324.45,183.19 C332.46,187.45 342.51,194.72 352.89,192.19 C373.45,187.19 386.96,208.84 383.5,213.56 C381.5,216.27 376.04,215.38 373.06,214.78 C373.06,214.78 352.63,210.74 352.63,210.74 C345.55,209.34 328.44,215.68 318.27,208.81 C312.77,205.09 306.94,202.56 300.68,200.39 C295.55,198.63 291.4,195.52 284.77,195.38 C288.74,209.27 297.16,220.37 306.55,230.57 C311.69,236.15 314.87,242.22 318.19,248.91 C322,256.58 329.66,260.92 335.88,266.49 C335.88,266.49 354.34,283 354.34,283 C360.41,288.42 367.18,292.46 371.75,299.43 C380.28,312.44 394.09,319.13 398.75,327.26 C403.02,334.7 406.2,342.71 409.43,350.5 C412.8,358.65 411.04,366.22 405.56,372.47 C398.07,381.02 388.23,383.05 377.41,385.4 C366.75,387.73 356.15,393.85 347.56,400.48 C341.2,407.48 349.6,423.86 337.91,427.04 C320.82,431.67 322.15,400.09 314.02,382.62 C311.26,376.66 313.73,372.07 318.72,368.72 C332.61,359.38 336.52,370.13 340.53,365.6 C342.93,362.89 346.33,361.36 347.34,357.19 C331.35,353.08 317.87,366.58 312.47,357.89 C308.99,352.28 305.28,347.52 300.84,342.18 C301.19,353.07 291.15,360.82 291.89,365.64z "/><path id="_R_G_L_16_G_D_1_P_0" fill="#47d4e7" fill-opacity="1" fill-rule="nonzero" d=" M615.17 38.15 C615.17,59.08 598.21,76.05 577.28,76.05 C556.35,76.05 539.38,59.08 539.38,38.15 C539.38,17.22 556.35,0.25 577.28,0.25 C598.21,0.25 615.17,17.22 615.17,38.15z "/></g></g><g id="_R_G_L_15_G_M"><g id="_R_G_L_15_G" transform=" translate(425.129, 995.901) translate(-304.067, -245.892)"><path id="_R_G_L_15_G_D_0_P_0" fill="#d90281" fill-opacity="1" fill-rule="nonzero" d=" M315.13 308.22 C311.66,322.66 301.44,329.98 302.54,345.72 C303.4,357.93 304.99,370.37 310.71,381.13 C310.71,381.13 319.76,398.16 319.76,398.16 C319.76,398.16 329.19,425.74 329.19,425.74 C332,433.96 335.72,441.44 338.06,449.84 C341.63,462.65 350.36,469.11 357.54,483.06 C358.39,484.71 359.45,490.24 357.2,490.29 C357.2,490.29 305.5,491.38 305.5,491.38 C298.13,491.53 285.94,486.35 286.56,479.32 C287.24,471.58 307.89,474.98 313.08,466.08 C315.34,462.21 312.65,455.87 309.94,452.45 C303.59,444.43 298.98,436.3 293.57,427.73 C286.98,417.28 281.23,407.04 277.21,395.24 C273.54,384.49 268.92,374.57 264.37,364.22 C261.5,357.69 259.64,351.01 257.13,344.42 C252.52,332.31 249.49,341.27 243.61,315.76 C243.61,315.76 237.95,291.19 237.95,291.19 C236.45,284.65 217.17,247.72 212.51,234.98 C208.96,225.27 203.79,217 197.24,209.08 C189.91,200.19 184.83,190.29 178.77,180.57 C177.45,178.45 175.85,176.49 173.92,176.19 C171.85,175.87 168.77,176.81 167.44,178.18 C158.69,187.17 157.51,175.53 135.87,187.91 C125.93,193.59 115.35,197.73 103.43,196.52 C89.54,195.1 76.46,197.06 62.85,199.62 C55.99,200.92 50.95,203.09 45.72,207.87 C42.82,210.51 34.28,211.18 31.23,209.06 C27.94,206.77 26.35,204.04 21.69,205.73 C13.96,208.54 4.05,213.36 1.3,206.5 C0.25,203.87 1.21,200.1 4.38,198.3 C20.5,189.14 38.65,184.65 57.36,182.9 C70.51,181.68 81.98,178.18 94.12,173.65 C103.38,170.19 113.72,169.27 123.39,168.25 C131.07,167.45 135.43,164.82 140.74,159.81 C153.33,147.92 166.94,136.79 182.2,128.7 C182.2,128.7 199.64,119.46 199.64,119.46 C201.45,98.69 202.9,99.64 196.8,80.49 C192.9,68.27 198.61,55.09 211.8,52.23 C216.45,51.23 221.62,51 226.42,50.28 C238.18,48.51 248,55.72 251.19,66.77 C252.98,72.97 252.88,79.03 253.43,85.54 C253.77,89.54 256.46,93.52 255.21,97.67 C253.79,102.4 251.18,107.03 252.97,112.19 C255.79,120.33 269.41,109.81 290.62,122.75 C295.38,125.65 300.3,128.11 304.77,131.58 C313.6,138.42 323.58,142.46 332.83,148.54 C332.83,148.54 358.19,165.23 358.19,165.23 C364.79,169.58 373.22,173.28 381.41,172.46 C393.85,171.2 404.4,174.91 411.69,185.72 C413.23,188 416.45,193.05 413.35,195.65 C406.86,201.09 399.79,187.55 387.82,190.73 C387.82,190.73 375.22,194.09 375.22,194.09 C369.77,195.54 364.4,194.43 359.94,191.11 C347.72,181.99 336.02,178.68 322.19,170.83 C314.56,166.5 312.22,171.65 303.85,174.53 C308.08,180.64 314.14,197.8 317.1,200.99 C317.1,200.99 329.65,214.53 329.65,214.53 C332.73,217.84 333.76,223.82 337.61,226.63 C345.42,232.35 352.71,237.81 359.86,244.37 C364.2,248.34 369.83,250.36 374.63,253.74 C386.18,261.88 396.32,271.05 407.36,279.83 C413.61,284.8 418.11,290.89 423.73,296.45 C428.8,301.46 434.4,305.95 437.54,312.2 C441.1,319.29 439.14,325.07 433.77,329.95 C426.84,336.23 418.55,340.01 409.21,336.53 C403.81,334.53 398.19,335.63 392.64,336.4 C374.5,338.94 389.59,360.76 378.07,367.89 C374.96,369.8 371.45,370.5 368.35,368.62 C365.81,367.08 365.07,363.91 364.3,361.13 C361.44,350.87 358.86,341.04 354.67,331.25 C353.61,328.77 353.69,326.17 355.04,324.1 C358.39,318.97 366.61,321.3 365.7,316.54 C354.79,318.16 350.3,331.68 344.24,326.78 C344.24,326.78 327.71,313.43 327.71,313.43 C324.26,310.65 319.68,310.4 315.13,308.22z "/><path id="_R_G_L_15_G_D_1_P_0" fill="#47d4e7" fill-opacity="1" fill-rule="nonzero" d=" M607.88 38.16 C607.88,59.1 590.91,76.07 569.97,76.07 C549.04,76.07 532.06,59.1 532.06,38.16 C532.06,17.22 549.04,0.25 569.97,0.25 C590.91,0.25 607.88,17.22 607.88,38.16z "/></g></g><g id="_R_G_L_14_G_M"><g id="_R_G_L_14_G" transform=" translate(415.639, 1016.259) translate(-299.423, -228.354)"><path id="_R_G_L_14_G_D_0_P_0" fill="#d90281" fill-opacity="1" fill-rule="nonzero" d=" M353.46 412.88 C357.45,421.76 362.47,428.71 369.47,434.8 C373.45,438.26 380.53,446.35 376.97,450.97 C372.73,456.46 356.5,447.58 334.28,451.37 C327.67,452.49 299.97,455.19 299.27,447.22 C298.75,441.41 312.12,443.95 325.38,435.96 C335.78,429.7 322.73,412.73 317.51,406.67 C311.96,400.23 307.23,393.81 302.55,386.67 C297.29,378.64 290.31,371.65 286.99,362.43 C281.33,346.72 276.08,331.41 267.04,317.24 C264.01,312.48 258.79,308.63 257.52,303.05 C257.52,303.05 247.88,260.63 247.88,260.63 C244.48,245.68 236.61,230.68 228.68,217.6 C228.68,217.6 217.73,199.54 217.73,199.54 C217.73,199.54 196.07,166.25 196.07,166.25 C192.14,160.22 187.59,155.04 184.94,147.99 C178.63,147.41 173.1,149.04 167.65,151.77 C161.96,154.63 158.42,148.49 138.61,159.79 C129.42,165.03 119.65,167.12 109.11,167.15 C109.11,167.15 74.34,167.24 74.34,167.24 C45.47,167.33 52.38,171.69 42,176.26 C29.86,181.6 34.4,170.44 21.51,172.77 C16.83,173.61 3.34,177.56 1.68,174.08 C1.18,173.02 0.25,170.73 1.11,169.17 C8,156.79 30.4,153.27 43.56,152.43 C55.91,151.65 67.42,148.65 79.51,146.74 C88.22,145.37 96.26,144.74 104.58,141.36 C115.38,136.98 128.75,142.05 145.08,129.67 C149.67,126.19 153.49,122.77 159,120.61 C182.6,111.34 179.51,100.95 199.49,99.02 C203.25,98.66 210.58,97.67 211.71,93.1 C213.21,87.07 214.61,78.8 212.65,72.72 C209.03,61.48 206.46,50.57 209.66,38.82 C211.68,31.4 217.06,25.32 224.86,23.29 C233.4,21.06 243.05,19.94 251.43,22.95 C259.36,25.79 267.3,31.47 268.62,40 C270.7,53.39 268.44,66.7 266.38,79.72 C265.64,84.39 269.11,87.8 273.32,88.24 C285.83,89.55 295.85,85.54 309.29,94.15 C319.72,100.83 331.56,107.65 338.69,118.08 C343.88,125.67 347.66,132.26 357.23,135.47 C366.1,138.44 375.27,142.21 383.8,146.61 C391.55,150.61 398.9,152.33 407.56,152.8 C425.81,153.8 439.89,168.37 435.55,175.38 C432.84,179.75 424.42,175.38 420.88,173.09 C409.23,165.56 406.09,178.85 394.57,172.38 C388.29,168.86 381.89,166.8 374.93,164.88 C362.75,161.52 351.45,156.74 339.67,152.26 C329.62,148.45 329.21,153.67 320.59,150.37 C317,149 314.57,146.7 310.08,145.87 C313.42,149.75 315.25,153.96 318.16,157.79 C327.65,170.26 319.39,170.79 336.08,180.1 C340.92,182.8 344.01,186.07 345.6,191.49 C349.93,193.92 354.83,193.88 358.85,196.48 C363.2,199.28 366.29,203.95 371.1,206.18 C383.26,211.8 395.02,217.29 405.65,225.57 C410.4,229.28 414.71,233.66 420.37,235.93 C437.34,242.75 456.37,245.14 461.08,264.01 C462.85,271.09 460.19,277.42 453.85,281.27 C441.45,288.79 429.44,284.87 426.8,288.89 C423.24,294.32 432.46,304.74 429.25,313.02 C427.89,316.51 423.15,317.66 419.91,317.43 C416.72,317.2 412.43,315.25 410.37,311.78 C405.88,304.23 401.08,297.21 397.59,288.82 C395.97,284.94 393.57,277.31 387.37,279.72 C379.01,282.98 371.07,288.08 362.02,290.09 C348.11,293.2 344.44,284.79 333.1,278.74 C331.14,277.69 328.89,278.75 328.07,280.78 C328.07,280.78 317.17,307.91 317.17,307.91 C310.89,323.56 314.98,341.63 324.55,355.33 C330.37,363.65 334.95,371.68 339.09,380.88 C339.09,380.88 353.46,412.88 353.46,412.88z "/><path id="_R_G_L_14_G_D_1_P_0" fill="#47d4e7" fill-opacity="1" fill-rule="nonzero" d=" M598.6 38.16 C598.6,59.1 581.62,76.07 560.68,76.07 C539.75,76.07 522.77,59.1 522.77,38.16 C522.77,17.22 539.75,0.25 560.68,0.25 C581.62,0.25 598.6,17.22 598.6,38.16z "/></g></g><g id="_R_G_L_13_G_M"><g id="_R_G_L_13_G" transform=" translate(407.136, 1027.994) translate(-293.788, -216.07)"><path id="_R_G_L_13_G_D_0_P_0" fill="#d90281" fill-opacity="1" fill-rule="nonzero" d=" M319.24 307.15 C329.1,322.2 337.53,336.61 343.35,353.36 C348.55,368.33 357.26,380.55 366.91,392.97 C366.91,392.97 378.28,407.62 378.28,407.62 C381.43,411.68 382.51,416.69 382.21,421.73 C381.61,431.89 368.3,426.19 363.03,425.84 C345.58,424.65 328.64,426.46 311.23,428.08 C309.52,428.24 307.8,427.23 306.61,426.75 C301.56,424.73 309.77,413.77 327.22,411.04 C331.17,410.42 335.01,410.33 338.81,407.55 C332.45,395.35 324.16,384.92 316.26,373.9 C316.26,373.9 304.55,357.55 304.55,357.55 C296.73,346.65 291.1,335.16 286.77,322.41 C283.72,313.46 276.89,306.86 272.51,298.74 C270,294.08 265.41,291.63 262.96,287.6 C259.39,281.74 261.3,273.16 259.96,266.59 C259.96,266.59 254.65,240.52 254.65,240.52 C253.11,232.96 250.07,226.62 246.03,220.19 C241.41,212.82 238.91,204.41 233.68,197.37 C214.04,170.86 220.25,168.18 203.79,147.29 C197.56,139.37 195,134.95 178.57,139.86 C161.18,145.07 166.05,132.36 143.41,143.68 C134.12,148.33 125.71,150.35 115.37,150.12 C115.37,150.12 76.24,149.26 76.24,149.26 C54.62,148.79 51.17,159.62 28.45,156.53 C26.75,155.59 27.34,151.66 27.01,149.79 C21.29,147.08 5.02,154.17 2.31,149.73 C0.25,146.34 4.39,141.91 7.38,140.14 C14.34,136 21.86,134.82 29.81,134.49 C29.81,134.49 54.64,133.45 54.64,133.45 C72.84,132.69 105.98,123.67 124.13,122.76 C134.33,122.24 143.73,119.27 152.64,114.42 C161.24,109.74 169.43,104.78 177.26,98.94 C183.94,93.95 189.58,88.73 197.09,84.71 C204.7,80.62 215.34,78.62 220.81,71.4 C227.81,62.17 219.31,39.51 218.76,28.73 C217.82,10.33 234.06,7.94 246.24,3.92 C257.36,0.25 269.03,4.89 273.9,15.98 C284.39,39.9 277.08,60.68 279.68,65.64 C282.11,70.28 294.44,62.12 305.36,72.75 C309.4,76.69 312.87,81.28 317.62,84.49 C317.62,84.49 341.45,100.58 341.45,100.58 C354.28,109.24 348.81,113.19 362.22,118.92 C362.22,118.92 381.91,127.35 381.91,127.35 C381.91,127.35 403.95,133.3 403.95,133.3 C413.39,135.85 420.47,143.36 429.6,146.59 C429.6,146.59 453.15,154.95 453.15,154.95 C459.7,157.27 464.05,162.47 463.61,169.79 C463.49,171.81 462.67,173.91 461.49,174.69 C459.77,175.83 456.46,176.38 454.68,175.1 C440.75,165.14 426.66,170.67 421.9,166.04 C416.71,161 411.48,157.95 404.2,156.51 C404.2,156.51 371,149.94 371,149.94 C361.91,148.14 355.34,143.05 348.18,137.66 C343.15,133.88 336.12,133.55 330.33,131.48 C326.86,130.24 323.97,128.83 320.05,129.89 C324.42,150.23 329.91,145.96 340.96,162.88 C349.11,175.33 362.61,170.43 367.14,176.75 C378.1,192.04 387.66,180.52 405.47,194.56 C412.31,199.95 419.69,202.05 427.78,204.72 C441.4,209.2 454.48,215.17 466.7,222.2 C472.52,225.54 476.05,231.46 476.14,237.69 C476.24,244.26 471.68,249.82 470.43,255.27 C475.05,261.58 485.88,272.34 479.78,280.58 C474,288.38 462.48,285.19 455.18,279.66 C445.51,272.35 435.47,266.63 424.63,261.35 C422.96,260.54 421.65,258.67 421.07,257.56 C420.1,255.72 421.13,253.63 422.71,251.17 C418.81,248.51 413.52,246.06 408.42,246.87 C401.05,248.03 388.27,276.55 370.64,269.1 C370.64,269.1 353.02,261.66 353.02,261.66 C350.56,260.63 346.5,259.55 344.11,261.46 C337.64,266.63 332.54,273.37 329.02,280.72 C327.06,284.82 324.45,286.63 321.16,290.14 C318.05,293.44 316.04,302.27 319.24,307.15z "/><path id="_R_G_L_13_G_D_1_P_0" fill="#47d4e7" fill-opacity="1" fill-rule="nonzero" d=" M587.33 52.04 C587.33,72.97 570.36,89.93 549.43,89.93 C528.51,89.93 511.54,72.97 511.54,52.04 C511.54,31.11 528.51,14.15 549.43,14.15 C570.36,14.15 587.33,31.11 587.33,52.04z "/></g></g><g id="_R_G_L_12_G_M"><g id="_R_G_L_12_G" transform=" translate(421.53, 1033.163) translate(-301.397, -206.884)"><path id="_R_G_L_12_G_D_0_P_0" fill="#d90281" fill-opacity="1" fill-rule="nonzero" d=" M331.97 413.19 C326.15,413.52 311.38,413.07 309.79,408.71 C307.9,403.52 322.76,400.76 327.49,398.56 C332.78,396.11 336.53,390.74 339.39,385.35 C332.28,372.16 323.19,361.36 313.01,350.89 C308.38,346.12 303.42,341.73 299.96,336.02 C299.96,336.02 281.11,305 281.11,305 C277.48,299.03 275.42,292.47 274.63,285.63 C274.04,280.46 269.88,277.41 268.15,272.86 C262.7,258.49 262.78,242.72 264.78,227.51 C266.43,215.03 260.8,206.77 254.82,195.23 C246.66,179.43 240.46,182.75 230.69,163.3 C226.56,155.09 220.87,147.81 215.47,140.47 C212.76,136.79 208.87,135.57 204.32,136.11 C187.88,138.08 185.76,143.4 174.16,141.27 C171.03,140.7 167.82,142.94 164.56,143.39 C131.7,147.97 113.26,152.16 78.84,148.75 C78.84,148.75 56.54,146.54 56.54,146.54 C50.83,145.98 37.25,153.89 34.18,145.69 C33.45,143.75 31.53,143.13 29.43,142.94 C23.93,142.47 2.09,141.31 0.71,136.76 C0.25,135.24 1.59,133.87 2.86,133.23 C18.24,125.52 34.3,127.82 50.69,129.65 C60.64,130.76 71.06,127.32 81.45,127.46 C92.27,127.61 115.49,118.81 136.41,118.78 C142.42,118.77 146.58,116.48 151.55,113.73 C164.61,106.5 186.12,103.37 200.79,86.76 C206.99,79.74 214.66,75.44 223.93,73.11 C227.41,72.23 233.18,71.46 235.08,68.22 C237.04,47.43 226.76,38.57 236.13,14.96 C238.79,8.25 243.93,4.65 250.84,3.06 C258.53,1.3 265.91,0.25 273.66,2.51 C291.82,7.82 290.45,28.47 287.93,43.38 C287.31,47.08 288.9,50.64 287.95,54.31 C287.04,57.79 283.6,61.49 285.35,65.6 C288.14,72.19 304,62.65 323.85,81.08 C331.5,88.18 338.66,95.42 346.7,102.14 C361.33,114.39 356.05,116.44 370.39,125.64 C399.89,144.55 397.49,145.39 421.33,171.7 C421.33,171.7 435.31,176.72 435.31,176.72 C453,183.07 455.82,178.3 471.25,184.99 C507.34,200.64 498.31,207.62 551.42,221.98 C562.92,225.09 573.05,231.63 583.96,236.08 C590.96,238.93 602.55,246.04 600.86,254.57 C599.4,262.02 585.93,265.83 573.16,257.44 C559.53,248.47 557.81,246.73 540.54,247.01 C534.13,247.12 530.36,244.6 525.48,241.25 C486.44,214.42 470.58,224.7 455.41,220.11 C442.9,216.33 430.52,214 417.39,215.08 C404.9,216.11 408.51,225.73 403.83,240.03 C402,245.63 397.84,249.18 392.01,249.73 C379.8,250.89 367.77,250.34 355.25,248.34 C352.72,263.77 347.46,278.54 337.73,290.78 C333.76,295.79 326.36,294.49 319.79,295.24 C321.06,300.95 326.42,303.86 329.15,308.44 C335.89,319.75 340.6,331.37 346.67,343.05 C354.68,358.47 363.22,373.21 373.33,387.29 C377.77,393.47 382.91,398.56 383.7,406.67 C383.77,407.47 383.77,408.46 383.4,409.02 C382.9,409.8 381.77,410.35 380.37,410.43 C380.37,410.43 331.97,413.19 331.97,413.19z  M352.98 141.39 C350.56,138.87 346.51,139.22 343.67,138.56 C338.33,137.32 335.15,132.98 329.1,132.6 C342.75,149.48 351.7,157.73 373,162.23 C373,162.23 352.98,141.39 352.98,141.39z  M374.42 162.92 C374.42,162.64 374.2,162.42 373.92,162.42 C373.65,162.42 373.42,162.64 373.42,162.92 C373.42,163.2 373.65,163.42 373.92,163.42 C374.2,163.42 374.42,163.2 374.42,162.92z "/><path id="_R_G_L_12_G_D_1_P_0" fill="#47d4e7" fill-opacity="1" fill-rule="nonzero" d=" M552.31 113.5 C552.31,134.44 535.35,151.41 514.41,151.41 C493.48,151.41 476.51,134.44 476.51,113.5 C476.51,92.57 493.48,75.6 514.41,75.6 C535.35,75.6 552.31,92.57 552.31,113.5z "/></g></g><g id="_R_G_L_11_G_M"><g id="_R_G_L_11_G" transform=" translate(427.835, 1032.77) translate(-290.534, -203.747)"><path id="_R_G_L_11_G_D_0_P_0" fill="#d90281" fill-opacity="1" fill-rule="nonzero" d=" M366.57 404.14 C344.87,407.24 337.59,401.97 312.07,405 C307.93,405.49 294.65,407.02 293.92,401.95 C292.67,393.32 332.22,393.23 320.84,379.28 C315.55,372.79 311.69,366 306.9,359.15 C306.9,359.15 279.75,320.29 279.75,320.29 C272.37,309.73 266.37,298.4 262.24,286.17 C252.61,257.7 251.2,258.18 256.61,224.7 C260.31,201.78 249.37,210.03 243.73,185.5 C241.85,177.37 238.22,170.4 231.58,165.34 C221.02,157.28 212.63,147.79 203.18,138.51 C199.18,134.57 190.77,136.77 186.22,138.24 C164.3,145.3 176.98,136.94 152.75,145.87 C145.14,148.67 138.3,149.62 130.21,149.41 C113.29,148.97 96.74,149.43 80.06,146.7 C62.77,143.87 67.28,140.76 45.53,144.8 C40.15,145.8 37.77,142.97 33.65,141.13 C28.77,138.94 7.95,142.71 3.36,137.56 C0.25,134.06 3.68,128.9 7.6,127.15 C13.33,124.6 19.84,124.16 26.32,125.13 C46.29,128.14 74.95,128.43 94.49,123.31 C103.86,120.85 113.19,119.86 122.7,118.31 C130.78,116.99 137.68,113.06 145,109.66 C154.36,105.33 163.67,101.66 172.15,95.74 C177.13,92.28 181.36,87.95 186.96,85.62 C186.96,85.62 208.94,76.43 208.94,76.43 C214.31,74.19 221.35,69.5 222.54,63.14 C224.71,51.51 222.85,39.19 220.61,27.73 C219.09,19.97 221.64,14.17 226,8.5 C230.32,2.88 234.88,3.47 241.25,2.68 C252,1.35 262.58,0.25 272.26,5.84 C289.4,15.73 274.77,28.97 277.46,43.26 C279.76,55.52 273.51,61.37 277.34,66.99 C280.69,71.91 293.23,67.73 298.7,69.75 C308.68,73.42 316.51,80.59 323.4,88.56 C323.4,88.56 348.87,118.05 348.87,118.05 C348.87,118.05 368.11,136.78 368.11,136.78 C377.25,145.67 383.42,156.5 391.36,166.94 C396.95,168.86 402.62,171.37 408.7,172.49 C408.7,172.49 438.34,177.93 438.34,177.93 C453.77,180.77 519.58,204.89 533.41,212.69 C544.54,218.97 580.82,224.96 573.45,243.4 C569.93,252.23 554.19,248.61 546.9,245.69 C523.43,236.27 519.44,242.89 504.21,230.58 C498.35,225.83 490.24,225.44 483.06,223.71 C473.56,221.43 464.52,219.47 454.8,218.84 C447.13,218.35 440.11,216.31 432.93,213.7 C426.61,211.41 419.96,212.45 413.24,212.43 C413.24,212.43 386.26,212.35 386.26,212.35 C371.64,212.31 378.43,237.98 369.36,243.5 C362.69,247.55 352.49,238.27 345.24,239.38 C343.52,250.32 340.66,277.68 330.36,282.42 C322.63,285.98 313.53,283.59 305.1,284.37 C301.94,294.48 319.95,305.43 322.84,312.84 C329.38,329.6 336.97,344.79 346.84,359.8 C351.75,367.25 355.19,375.02 360.61,382.18 C365.32,388.41 367.91,396.25 366.57,404.14z  M327.99 138.51 C327.99,138.51 326.84,140.06 326.84,140.06 C326.84,140.06 333.44,144.97 333.44,144.97 C333.44,144.97 334.6,143.43 334.6,143.43 C334.6,143.43 327.99,138.51 327.99,138.51z "/><path id="_R_G_L_11_G_D_1_P_0" fill="#47d4e7" fill-opacity="1" fill-rule="nonzero" d=" M521.04 148.68 C521.04,169.62 504.06,186.6 483.12,186.6 C462.18,186.6 445.2,169.62 445.2,148.68 C445.2,127.74 462.18,110.76 483.12,110.76 C504.06,110.76 521.04,127.74 521.04,148.68z "/></g></g><g id="_R_G_L_10_G_M"><g id="_R_G_L_10_G" transform=" translate(409.082, 1037.434) translate(-261.535, -205.132)"><path id="_R_G_L_10_G_D_0_P_0" fill="#d90281" fill-opacity="1" fill-rule="nonzero" d=" M420.96 177.69 C418.39,192.51 426.53,206.74 438.03,215.48 C424.35,212.3 410.69,210.08 396.06,210.39 C384.67,210.63 373.39,198.81 365.18,212.9 C361.87,218.6 359.1,224.84 353.94,229.15 C344.64,236.9 341.39,229.35 332.14,229.91 C332.43,246.39 336.26,244.54 331.51,261.16 C326.57,278.47 307.23,273.93 299.36,277.8 C294.67,280.1 297.37,287.17 300.34,289.92 C319.45,307.63 316.93,321.71 328.26,339.02 C328.26,339.02 350.79,373.48 350.79,373.48 C355.52,380.7 360.68,387.03 362.21,395.79 C363.77,404.7 349.17,402.87 343.05,402.41 C323.75,400.99 307.56,410.01 291.05,403.2 C289.64,402.62 288.41,401.7 288.11,400.62 C286.24,393.97 311.46,388.3 316.98,387.45 C316.98,387.45 319.31,380.51 319.31,380.51 C320.29,377.6 321.01,374.89 319.29,372.31 C310.83,359.63 300.71,349.23 291.13,337.37 C277.89,320.97 266.93,303.29 257.09,284.71 C254.48,279.76 254.7,274.24 252.44,269.22 C251.2,266.45 248.6,263.6 248.82,260.44 C248.82,260.44 251.01,229.39 251.01,229.39 C251.66,220.11 250.71,211.06 248.64,202.23 C244.36,183.97 231.8,190.17 225.5,170.18 C223.73,164.6 221.16,159.53 217.2,155.23 C209.53,146.9 202.98,138.18 196.51,128.51 C185.25,127.16 173.92,140.81 166.9,137.28 C156.45,132.03 155.26,144.82 124.96,144.74 C108.63,144.7 92.49,142.5 76.72,138.37 C66.66,135.73 56.9,133.39 46.41,135.61 C41.59,136.62 35.73,136.93 31.74,133.69 C30.87,132.99 31.94,128.92 30.41,128.83 C30.41,128.83 4.8,127.35 4.8,127.35 C3.13,127.25 1.44,126.6 0.82,125.27 C0.25,124.06 1.01,122.44 1.89,121.36 C6.52,115.68 13.1,115.87 19.59,115.06 C30.47,113.7 40.26,115.05 51.21,116.4 C51.21,116.4 71.67,118.93 71.67,118.93 C85.88,120.68 99.78,119.48 113.96,117.9 C119.29,117.31 125.05,117.85 129.8,115.38 C136.68,111.79 143.59,109.97 150.85,107.4 C161.54,103.61 176.67,85.82 189.98,79.52 C199.04,75.23 209.7,73.46 217.83,66.86 C222.17,62.72 221.26,52.97 220.48,47.48 C220.48,47.48 218.22,31.56 218.22,31.56 C216.06,16.43 226.98,4.66 241.27,1.82 C248.77,0.34 256.21,0.25 261.53,7.12 C277.03,27.14 269.35,36.74 269.07,44.68 C269.07,44.68 268.42,63.13 268.42,63.13 C276.73,63.37 284.59,62.56 292.62,64.27 C311.45,68.27 324.77,107.59 338.36,119.09 C350.81,129.63 360.99,141.31 371.23,154.09 C371.23,154.09 385.05,171.33 385.05,171.33 C385.05,171.33 420.96,177.69 420.96,177.69z "/><path id="_R_G_L_10_G_D_1_P_0" fill="#47d3e7" fill-opacity="1" fill-rule="nonzero" d=" M491.92 202.33 C484.34,215.86 468.71,222.01 453.92,221.33 C448.99,218.99 442.54,218.92 438.03,215.48 C426.53,206.74 418.39,192.51 420.96,177.69 C425.09,153.85 449.25,139.29 472.1,147.86 C493.49,155.88 503.48,181.68 491.92,202.33z "/><path id="_R_G_L_10_G_D_2_P_0" fill="#d90281" fill-opacity="1" fill-rule="nonzero" d=" M453.92 221.33 C468.71,222 484.34,215.86 491.92,202.33 C499.35,203.54 522.82,209.27 522.81,218.88 C522.8,226.39 506.14,232.79 493.75,230.29 C493.75,230.29 467.17,224.93 467.17,224.93 C462.11,223.91 458.01,223.27 453.92,221.33z "/></g></g><g id="_R_G_L_9_G_M"><g id="_R_G_L_9_G" transform=" translate(403.619, 1033.212) translate(-219.685, -203.874)"><path id="_R_G_L_9_G_D_0_P_0" fill="#d90281" fill-opacity="1" fill-rule="nonzero" d=" M352.12 170.57 C345.81,187.56 350.32,206.67 363.57,219.04 C358.63,219.95 353.87,218.5 348.52,218.09 C334.26,217.02 319.67,218.45 306.2,222.33 C300.37,224.01 298.61,229.28 300.29,234.3 C303.9,245.08 307.75,259.68 294.62,264.23 C285.69,267.32 276.67,270.91 269.54,277.4 C263.52,282.87 278.14,303.86 281.06,308.69 C293.77,329.69 293.88,341.83 296.8,347.07 C303.08,358.34 307.27,370.8 315.11,380.7 C315.11,380.7 324.32,392.32 324.32,392.32 C326.14,394.62 326.26,398.07 324.63,400.94 C323.48,402.96 320.01,404.5 316.64,404.18 C297.07,402.37 281.68,407.5 260.97,405.74 C258.89,405.56 254.28,404.79 254.26,402.4 C256.7,396.63 263.58,393.58 269.48,392.54 C269.48,392.54 284.06,389.98 284.06,389.98 C285.49,389.73 286.73,389.04 287.37,388.38 C288.41,387.31 288.25,385.26 287.66,383.65 C280.8,364.93 261.32,349.91 255.04,338.16 C255.04,338.16 237.31,304.98 237.31,304.98 C237.31,304.98 225.18,278.09 225.18,278.09 C215.63,256.9 222.19,235.65 219.74,219.38 C219.74,219.38 217.35,203.57 217.35,203.57 C216.69,199.15 210.37,197.28 208.29,193.87 C204.02,186.89 200.27,180.35 194.65,174.42 C190.74,170.3 188.23,165.35 186.27,160.01 C183.85,153.42 177.12,135.35 170.52,133.21 C166.43,131.89 161.32,131.99 157.31,133.73 C148.13,137.71 138.7,138.96 129.34,141.98 C119.14,145.28 109.78,149.94 98.54,149.78 C75.86,149.45 66.21,136.09 47.86,142.46 C46.31,143 44.37,142.39 42.98,142.33 C41.38,142.27 41.05,138.77 39.69,138.05 C34.5,138.81 29.39,139.89 24.29,138.44 C18.82,136.87 12.95,138.09 7.64,136.01 C0.25,133.11 16.63,120.04 25.56,120.41 C25.56,120.41 86.59,122.91 86.59,122.91 C109.41,123.85 103.87,114.83 125.12,110.96 C135.72,109.04 142.74,91.96 153.17,88.16 C163.69,84.32 174.18,80.91 183.38,73.99 C185.97,72.03 188.63,66.76 188.77,63.48 C189.67,42.39 178.8,25.16 195.57,11.06 C203.19,4.65 214.01,0.25 224.39,2.23 C233.38,3.95 239.79,11.7 242.99,19.61 C246.84,29.15 245.49,38.23 242.79,47.81 C241.51,52.33 242.36,57.15 238.44,61.51 C241.17,63.5 243.89,63.26 246.58,63.04 C277.35,60.5 288.47,88.68 296,112.69 C298.96,122.14 303.29,130.59 310.59,137.36 C332.72,157.89 318.91,161.08 352.12,170.57z "/><path id="_R_G_L_9_G_D_1_P_0" fill="#47d4e7" fill-opacity="1" fill-rule="nonzero" d=" M439.12 186.22 C439.12,161.42 419.02,141.31 394.21,141.31 C369.41,141.31 349.31,161.42 349.31,186.22 C349.31,211.02 369.41,231.12 394.21,231.12 C419.02,231.12 439.12,211.02 439.12,186.22z "/><path id="_R_G_L_9_G_D_2_P_0" fill="#d90281" fill-opacity="1" fill-rule="nonzero" d=" M430.37 212.85 C432.75,217.45 436.02,221.14 435.77,226.3 C435.57,230.65 431.45,234.34 428.53,235.77 C420.56,239.65 413.8,233.52 407.49,229.11 C416.66,226.27 424.68,220.57 430.37,212.85z "/></g></g><g id="_R_G_L_8_G_M"><g id="_R_G_L_8_G" transform=" translate(539.555, 979.872) translate(-420.076, -420.076)"><path id="_R_G_L_8_G_D_0_P_0" fill="#46d5e8" fill-opacity="1" fill-rule="nonzero" d=" M839.9 420.08 C839.9,651.94 651.94,839.9 420.08,839.9 C188.21,839.9 0.25,651.94 0.25,420.08 C0.25,188.21 188.21,0.25 420.08,0.25 C651.94,0.25 839.9,188.21 839.9,420.08z "/></g></g><g id="_R_G_L_7_G_M"><g id="_R_G_L_7_G" transform=" translate(539.555, 979.872) translate(-615.536, -615.536)"><path id="_R_G_L_7_G_D_0_P_0" fill="#46d5e8" fill-opacity="1" fill-rule="nonzero" d=" M1230.82 615.54 C1230.82,955.35 955.35,1230.82 615.54,1230.82 C275.72,1230.82 0.25,955.35 0.25,615.54 C0.25,275.72 275.72,0.25 615.54,0.25 C955.35,0.25 1230.82,275.72 1230.82,615.54z "/></g></g><g id="_R_G_L_6_G_M"><g id="_R_G_L_6_G" transform=" translate(539.555, 959.7) translate(-890.802, -890.802)"><path id="_R_G_L_6_G_D_0_P_0" fill="#46d5e8" fill-opacity="1" fill-rule="nonzero" d=" M1781.35 890.8 C1781.35,1382.64 1382.64,1781.35 890.8,1781.35 C398.96,1781.35 0.25,1382.64 0.25,890.8 C0.25,398.96 398.96,0.25 890.8,0.25 C1382.64,0.25 1781.35,398.96 1781.35,890.8z "/></g></g><g id="_R_G_L_5_G_M"><g id="_R_G_L_5_G" transform=" translate(539.555, 959.7) translate(-953.206, -953.206)"><path id="_R_G_L_5_G_D_0_P_0" fill="#46d5e8" fill-opacity="1" fill-rule="nonzero" d=" M1906.16 953.21 C1906.16,1479.51 1479.51,1906.16 953.21,1906.16 C426.9,1906.16 0.25,1479.51 0.25,953.21 C0.25,426.9 426.9,0.25 953.21,0.25 C1479.51,0.25 1906.16,426.9 1906.16,953.21z "/></g></g><g id="_R_G_L_4_G_M"><g id="_R_G_L_4_G" transform=" translate(539.555, 959.7) translate(-919.299, -919.299)"><path id="_R_G_L_4_G_D_0_P_0" fill="#46d5e8" fill-opacity="1" fill-rule="nonzero" d=" M1838.35 919.3 C1838.35,1426.88 1426.88,1838.35 919.3,1838.35 C411.72,1838.35 0.25,1426.88 0.25,919.3 C0.25,411.72 411.72,0.25 919.3,0.25 C1426.88,0.25 1838.35,411.72 1838.35,919.3z "/></g></g><g id="_R_G_L_3_G_M"><g id="_R_G_L_3_G" transform=" translate(539.555, 959.7) translate(-600.342, -576.974)"><path id="_R_G_L_3_G_D_0_P_0" fill="#46d5e8" fill-opacity="1" fill-rule="nonzero" d=" M1083.61 1153.7 C1083.61,1153.7 117.08,1153.7 117.08,1153.7 C52.55,1153.7 0.25,1101.39 0.25,1036.87 C0.25,1036.87 0.25,117.08 0.25,117.08 C0.25,52.56 52.55,0.25 117.08,0.25 C117.08,0.25 1083.61,0.25 1083.61,0.25 C1148.13,0.25 1200.43,52.56 1200.43,117.08 C1200.43,117.08 1200.43,1036.87 1200.43,1036.87 C1200.43,1101.39 1148.13,1153.7 1083.61,1153.7z "/><path id="_R_G_L_3_G_D_1_P_0" fill="#74e0ef" fill-opacity="1" fill-rule="nonzero" d=" M711.31 430.43 C715.03,433.73 715.38,439.41 712.08,443.14 C712.08,443.14 573.99,599.14 573.99,599.14 C572.32,601.02 569.93,602.12 567.41,602.17 C564.89,602.22 562.47,601.2 560.73,599.38 C560.73,599.38 488.83,523.89 488.83,523.89 C485.4,520.29 485.54,514.59 489.13,511.17 C492.73,507.74 498.43,507.88 501.86,511.48 C501.86,511.48 567,579.87 567,579.87 C567,579.87 698.6,431.21 698.6,431.21 C701.9,427.48 707.59,427.14 711.31,430.43z "/><path id="_R_G_L_3_G_D_2_P_0" fill="#3aa0b6" fill-opacity="1" fill-rule="nonzero" d=" M531.22 691.22 C531.22,691.22 535.5,691.22 535.5,691.22 C535.5,691.22 535.5,695.63 535.5,695.63 C535.5,695.63 531.22,695.63 531.22,695.63 C531.22,695.63 531.22,691.22 531.22,691.22z  M531.22 699.86 C531.22,699.86 535.5,699.86 535.5,699.86 C535.5,699.86 535.5,725.78 535.5,725.78 C535.5,725.78 531.22,725.78 531.22,725.78 C531.22,725.78 531.22,699.86 531.22,699.86z  M545.1 717.14 C545.1,717.14 545.1,682.58 545.1,682.58 C545.1,682.58 549.38,682.58 549.38,682.58 C549.38,682.58 549.38,713.08 549.38,713.08 C549.38,713.08 565.41,713.08 565.41,713.08 C565.41,713.08 565.41,717.14 565.41,717.14 C565.41,717.14 545.1,717.14 545.1,717.14z    M569.95 682.22 C569.95,682.22 574.22,682.22 574.22,682.22 C574.22,682.22 574.22,686.63 574.22,686.63 C574.22,686.63 569.95,686.63 569.95,686.63 C569.95,686.63 569.95,682.22 569.95,682.22z    M569.95 691.22 C569.95,691.22 574.22,691.22 574.22,691.22 C574.22,691.22 574.22,717.14 574.22,717.14 C574.22,717.14 569.95,717.14 569.95,717.14 C569.95,717.14 569.95,691.22 569.95,691.22z  M591.21 717.83 C588.12,717.83 585.59,717.16 583.6,715.82 C581.64,714.46 580.43,712.56 579.98,710.13 C579.98,710.13 584.35,709.43 584.35,709.43 C584.7,710.84 585.51,711.96 586.77,712.79 C588.04,713.61 589.6,714.02 591.48,714.02 C593.25,714.02 594.65,713.65 595.65,712.91 C596.66,712.18 597.17,711.18 597.17,709.91 C597.17,709.18 597,708.58 596.66,708.14 C596.32,707.67 595.63,707.24 594.57,706.84 C593.53,706.44 591.96,705.96 589.84,705.4 C587.56,704.79 585.76,704.16 584.44,703.5 C583.13,702.85 582.19,702.09 581.64,701.22 C581.08,700.36 580.8,699.31 580.8,698.08 C580.8,696.56 581.21,695.23 582.04,694.1 C582.88,692.94 584.04,692.06 585.53,691.43 C587.03,690.81 588.77,690.5 590.76,690.5 C592.72,690.5 594.48,690.81 596.04,691.43 C597.59,692.06 598.84,692.94 599.78,694.1 C600.74,695.23 601.31,696.56 601.48,698.08 C601.48,698.08 597.12,698.87 597.12,698.87 C596.91,697.48 596.23,696.39 595.1,695.58 C593.98,694.78 592.53,694.36 590.76,694.31 C589.08,694.25 587.71,694.54 586.65,695.2 C585.61,695.86 585.09,696.75 585.09,697.86 C585.09,698.49 585.29,699.03 585.67,699.47 C586.07,699.92 586.8,700.35 587.85,700.74 C588.92,701.14 590.47,701.6 592.51,702.11 C594.79,702.69 596.59,703.32 597.91,704.01 C599.23,704.68 600.18,705.48 600.74,706.41 C601.3,707.32 601.58,708.45 601.58,709.79 C601.58,712.29 600.66,714.26 598.82,715.7 C596.98,717.12 594.44,717.83 591.21,717.83z  M621.34 717.14 C619.81,717.44 618.29,717.56 616.79,717.5 C615.3,717.45 613.97,717.15 612.8,716.61 C611.63,716.05 610.75,715.18 610.14,714.02 C609.62,712.99 609.34,711.96 609.3,710.92 C609.26,709.86 609.25,708.67 609.25,707.34 C609.25,707.34 609.25,684.02 609.25,684.02 C609.25,684.02 613.52,684.02 613.52,684.02 C613.52,684.02 613.52,707.15 613.52,707.15 C613.52,708.21 613.53,709.11 613.54,709.86 C613.58,710.62 613.75,711.27 614.05,711.81 C614.63,712.83 615.54,713.43 616.79,713.61 C618.05,713.79 619.57,713.74 621.34,713.46 C621.34,713.46 621.34,717.14 621.34,717.14z    M603.99 691.22 C603.99,691.22 621.34,691.22 621.34,691.22 C621.34,691.22 621.34,694.74 621.34,694.74 C621.34,694.74 603.99,694.74 603.99,694.74 C603.99,694.74 603.99,691.22 603.99,691.22z  M636.57 717.86 C633.99,717.86 631.77,717.27 629.9,716.1 C628.04,714.94 626.61,713.32 625.6,711.26 C624.59,709.19 624.09,706.83 624.09,704.15 C624.09,701.43 624.6,699.05 625.63,697 C626.65,694.95 628.1,693.36 629.97,692.22 C631.84,691.07 634.04,690.5 636.57,690.5 C639.16,690.5 641.39,691.08 643.27,692.25 C645.14,693.4 646.57,695.01 647.56,697.07 C648.57,699.12 649.07,701.48 649.07,704.15 C649.07,706.86 648.57,709.24 647.56,711.3 C646.55,713.35 645.11,714.96 643.24,716.13 C641.37,717.28 639.14,717.86 636.57,717.86z  M636.57 713.8 C639.26,713.8 641.26,712.9 642.57,711.11 C643.88,709.32 644.54,707 644.54,704.15 C644.54,701.22 643.87,698.9 642.55,697.17 C641.22,695.43 639.22,694.55 636.57,694.55 C634.76,694.55 633.27,694.96 632.11,695.78 C630.94,696.59 630.07,697.72 629.49,699.16 C628.91,700.6 628.63,702.27 628.63,704.15 C628.63,707.07 629.3,709.4 630.64,711.16 C631.99,712.92 633.96,713.8 636.57,713.8z    M656.76 712.72 C656.76,712.72 661.03,712.72 661.03,712.72 C661.03,712.72 661.03,717.14 661.03,717.14 C661.03,717.14 656.76,717.14 656.76,717.14 C656.76,717.14 656.76,712.72 656.76,712.72z    M656.76 682.58 C656.76,682.58 661.03,682.58 661.03,682.58 C661.03,682.58 661.03,708.5 661.03,708.5 C661.03,708.5 656.76,708.5 656.76,708.5 C656.76,708.5 656.76,682.58 656.76,682.58z "/></g></g><g id="_R_G_L_2_G_M"><g id="_R_G_L_2_G" transform=" translate(539.555, 959.7) translate(-383.503, -348.763)"><path id="_R_G_L_2_G_D_0_P_0" fill="#46d5e8" fill-opacity="1" fill-rule="nonzero" d=" M700.28 697.28 C700.28,697.28 66.73,697.28 66.73,697.28 C30.01,697.28 0.25,667.51 0.25,630.8 C0.25,630.8 0.25,66.73 0.25,66.73 C0.25,30.01 30.01,0.25 66.73,0.25 C66.73,0.25 700.28,0.25 700.28,0.25 C736.99,0.25 766.76,30.01 766.76,66.73 C766.76,66.73 766.76,630.8 766.76,630.8 C766.76,667.51 736.99,697.28 700.28,697.28z "/><path id="_R_G_L_2_G_D_1_P_0" fill="#a3eaf4" fill-opacity="1" fill-rule="nonzero" d=" M494.47 202.22 C498.19,205.52 498.54,211.2 495.24,214.93 C495.24,214.93 357.15,370.93 357.15,370.93 C355.48,372.81 353.09,373.91 350.57,373.96 C348.05,374.01 345.63,372.99 343.89,371.17 C343.89,371.17 271.99,295.68 271.99,295.68 C268.56,292.08 268.7,286.38 272.3,282.96 C275.9,279.53 281.59,279.67 285.02,283.27 C285.02,283.27 350.16,351.66 350.16,351.66 C350.16,351.66 481.76,203 481.76,203 C485.06,199.27 490.75,198.93 494.47,202.22z "/><path id="_R_G_L_2_G_D_2_P_0" fill="#336a84" fill-opacity="1" fill-rule="nonzero" d=" M314.39 463.01 C314.39,463.01 318.66,463.01 318.66,463.01 C318.66,463.01 318.66,467.42 318.66,467.42 C318.66,467.42 314.39,467.42 314.39,467.42 C314.39,467.42 314.39,463.01 314.39,463.01z  M314.39 471.65 C314.39,471.65 318.66,471.65 318.66,471.65 C318.66,471.65 318.66,497.57 318.66,497.57 C318.66,497.57 314.39,497.57 314.39,497.57 C314.39,497.57 314.39,471.65 314.39,471.65z  M328.26 488.93 C328.26,488.93 328.26,454.37 328.26,454.37 C328.26,454.37 332.54,454.37 332.54,454.37 C332.54,454.37 332.54,484.87 332.54,484.87 C332.54,484.87 348.57,484.87 348.57,484.87 C348.57,484.87 348.57,488.93 348.57,488.93 C348.57,488.93 328.26,488.93 328.26,488.93z    M353.11 454.01 C353.11,454.01 357.38,454.01 357.38,454.01 C357.38,454.01 357.38,458.42 357.38,458.42 C357.38,458.42 353.11,458.42 353.11,458.42 C353.11,458.42 353.11,454.01 353.11,454.01z    M353.11 463.01 C353.11,463.01 357.38,463.01 357.38,463.01 C357.38,463.01 357.38,488.93 357.38,488.93 C357.38,488.93 353.11,488.93 353.11,488.93 C353.11,488.93 353.11,463.01 353.11,463.01z  M374.37 489.62 C371.28,489.62 368.75,488.95 366.77,487.61 C364.8,486.25 363.59,484.35 363.14,481.92 C363.14,481.92 367.51,481.22 367.51,481.22 C367.86,482.63 368.67,483.75 369.93,484.58 C371.2,485.4 372.77,485.81 374.64,485.81 C376.41,485.81 377.8,485.44 378.81,484.7 C379.82,483.97 380.33,482.97 380.33,481.7 C380.33,480.97 380.16,480.37 379.82,479.93 C379.48,479.46 378.79,479.03 377.73,478.63 C376.69,478.23 375.12,477.75 373.01,477.19 C370.72,476.58 368.92,475.95 367.6,475.29 C366.29,474.64 365.35,473.88 364.8,473.01 C364.24,472.15 363.96,471.1 363.96,469.87 C363.96,468.35 364.37,467.02 365.21,465.89 C366.04,464.73 367.2,463.85 368.69,463.22 C370.19,462.6 371.93,462.29 373.92,462.29 C375.89,462.29 377.64,462.6 379.2,463.22 C380.75,463.85 382,464.73 382.94,465.89 C383.9,467.02 384.47,468.35 384.65,469.87 C384.65,469.87 380.28,470.66 380.28,470.66 C380.07,469.27 379.4,468.18 378.26,467.37 C377.14,466.57 375.69,466.15 373.92,466.1 C372.24,466.04 370.87,466.33 369.81,466.99 C368.77,467.65 368.25,468.54 368.25,469.65 C368.25,470.28 368.45,470.82 368.83,471.26 C369.23,471.71 369.96,472.14 371.01,472.53 C372.08,472.93 373.64,473.39 375.67,473.9 C377.96,474.48 379.76,475.11 381.07,475.8 C382.4,476.47 383.34,477.27 383.9,478.2 C384.46,479.11 384.74,480.24 384.74,481.58 C384.74,484.08 383.82,486.05 381.98,487.49 C380.14,488.91 377.6,489.62 374.37,489.62z  M404.51 488.93 C402.97,489.23 401.45,489.35 399.95,489.29 C398.46,489.24 397.13,488.94 395.96,488.4 C394.79,487.84 393.91,486.97 393.3,485.81 C392.78,484.78 392.51,483.75 392.46,482.71 C392.42,481.65 392.41,480.46 392.41,479.13 C392.41,479.13 392.41,455.81 392.41,455.81 C392.41,455.81 396.68,455.81 396.68,455.81 C396.68,455.81 396.68,478.94 396.68,478.94 C396.68,480 396.69,480.9 396.71,481.65 C396.74,482.41 396.91,483.06 397.21,483.6 C397.79,484.62 398.7,485.22 399.95,485.4 C401.21,485.58 402.73,485.53 404.51,485.25 C404.51,485.25 404.51,488.93 404.51,488.93z    M387.15 463.01 C387.15,463.01 404.51,463.01 404.51,463.01 C404.51,463.01 404.51,466.53 404.51,466.53 C404.51,466.53 387.15,466.53 387.15,466.53 C387.15,466.53 387.15,463.01 387.15,463.01z  M419.73 489.65 C417.15,489.65 414.93,489.06 413.06,487.89 C411.2,486.73 409.77,485.11 408.76,483.05 C407.75,480.98 407.25,478.62 407.25,475.94 C407.25,473.22 407.76,470.84 408.79,468.79 C409.81,466.74 411.26,465.15 413.13,464.01 C415,462.86 417.2,462.29 419.73,462.29 C422.32,462.29 424.55,462.87 426.43,464.04 C428.3,465.19 429.73,466.8 430.72,468.86 C431.73,470.91 432.23,473.27 432.23,475.94 C432.23,478.65 431.73,481.03 430.72,483.09 C429.71,485.14 428.27,486.75 426.4,487.92 C424.53,489.07 422.3,489.65 419.73,489.65z  M419.73 485.59 C422.42,485.59 424.42,484.69 425.73,482.9 C427.04,481.11 427.7,478.79 427.7,475.94 C427.7,473.01 427.03,470.69 425.71,468.96 C424.38,467.22 422.39,466.34 419.73,466.34 C417.92,466.34 416.43,466.75 415.27,467.57 C414.1,468.38 413.23,469.51 412.65,470.95 C412.07,472.39 411.79,474.06 411.79,475.94 C411.79,478.86 412.46,481.19 413.8,482.95 C415.15,484.71 417.12,485.59 419.73,485.59z    M439.92 484.51 C439.92,484.51 444.19,484.51 444.19,484.51 C444.19,484.51 444.19,488.93 444.19,488.93 C444.19,488.93 439.92,488.93 439.92,488.93 C439.92,488.93 439.92,484.51 439.92,484.51z    M439.92 454.37 C439.92,454.37 444.19,454.37 444.19,454.37 C444.19,454.37 444.19,480.29 444.19,480.29 C444.19,480.29 439.92,480.29 439.92,480.29 C439.92,480.29 439.92,454.37 439.92,454.37z "/></g></g><g id="_R_G_L_1_G_M"><g id="_R_G_L_1_G" transform=" translate(539.555, 959.7) translate(-285.87, -259.98)"><path id="_R_G_L_1_G_D_0_P_0" fill="#46d5e8" fill-opacity="1" fill-rule="nonzero" d=" M491.48 519.71 C491.48,519.71 80.26,519.71 80.26,519.71 C36.07,519.71 0.25,483.89 0.25,439.7 C0.25,439.7 0.25,80.26 0.25,80.26 C0.25,36.07 36.07,0.25 80.26,0.25 C80.26,0.25 491.48,0.25 491.48,0.25 C535.67,0.25 571.49,36.07 571.49,80.26 C571.49,80.26 571.49,439.7 571.49,439.7 C571.49,483.89 535.67,519.71 491.48,519.71z "/><path id="_R_G_L_1_G_D_1_P_0" fill="#ffffff" fill-opacity="1" fill-rule="nonzero" d=" M396.84 113.44 C400.56,116.73 400.9,122.42 397.61,126.14 C397.61,126.14 259.51,282.14 259.51,282.14 C257.84,284.03 255.46,285.13 252.94,285.18 C250.42,285.22 248,284.21 246.26,282.38 C246.26,282.38 174.35,206.9 174.35,206.9 C170.92,203.3 171.06,197.6 174.66,194.18 C178.26,190.75 183.96,190.89 187.39,194.49 C187.39,194.49 252.53,262.88 252.53,262.88 C252.53,262.88 384.13,114.21 384.13,114.21 C387.42,110.49 393.11,110.15 396.84,113.44z "/><path id="_R_G_L_1_G_D_2_P_0" fill="#200020" fill-opacity="1" fill-rule="nonzero" d=" M216.75 374.22 C216.75,374.22 221.02,374.22 221.02,374.22 C221.02,374.22 221.02,378.64 221.02,378.64 C221.02,378.64 216.75,378.64 216.75,378.64 C216.75,378.64 216.75,374.22 216.75,374.22z  M216.75 382.86 C216.75,382.86 221.02,382.86 221.02,382.86 C221.02,382.86 221.02,408.78 221.02,408.78 C221.02,408.78 216.75,408.78 216.75,408.78 C216.75,408.78 216.75,382.86 216.75,382.86z  M230.63 400.14 C230.63,400.14 230.63,365.58 230.63,365.58 C230.63,365.58 234.9,365.58 234.9,365.58 C234.9,365.58 234.9,396.09 234.9,396.09 C234.9,396.09 250.93,396.09 250.93,396.09 C250.93,396.09 250.93,400.14 250.93,400.14 C250.93,400.14 230.63,400.14 230.63,400.14z    M255.47 365.22 C255.47,365.22 259.75,365.22 259.75,365.22 C259.75,365.22 259.75,369.64 259.75,369.64 C259.75,369.64 255.47,369.64 255.47,369.64 C255.47,369.64 255.47,365.22 255.47,365.22z    M255.47 374.22 C255.47,374.22 259.75,374.22 259.75,374.22 C259.75,374.22 259.75,400.14 259.75,400.14 C259.75,400.14 255.47,400.14 255.47,400.14 C255.47,400.14 255.47,374.22 255.47,374.22z  M276.74 400.84 C273.65,400.84 271.12,400.17 269.13,398.82 C267.16,397.46 265.96,395.57 265.51,393.14 C265.51,393.14 269.88,392.44 269.88,392.44 C270.23,393.85 271.03,394.97 272.3,395.8 C273.56,396.62 275.13,397.02 277,397.02 C278.78,397.02 280.17,396.65 281.18,395.92 C282.19,395.18 282.69,394.18 282.69,392.92 C282.69,392.18 282.52,391.59 282.19,391.14 C281.85,390.68 281.16,390.25 280.1,389.85 C279.06,389.45 277.48,388.97 275.37,388.41 C273.08,387.8 271.28,387.17 269.97,386.51 C268.66,385.85 267.72,385.1 267.16,384.23 C266.6,383.37 266.32,382.32 266.32,381.09 C266.32,379.57 266.74,378.24 267.57,377.1 C268.4,375.95 269.56,375.06 271.05,374.44 C272.56,373.82 274.3,373.5 276.28,373.5 C278.25,373.5 280.01,373.82 281.56,374.44 C283.12,375.06 284.36,375.95 285.31,377.1 C286.27,378.24 286.83,379.57 287.01,381.09 C287.01,381.09 282.64,381.88 282.64,381.88 C282.43,380.49 281.76,379.39 280.63,378.59 C279.51,377.79 278.06,377.37 276.28,377.32 C274.6,377.26 273.24,377.55 272.18,378.21 C271.14,378.86 270.62,379.75 270.62,380.87 C270.62,381.5 270.81,382.03 271.2,382.48 C271.59,382.93 272.32,383.35 273.38,383.75 C274.45,384.15 276,384.61 278.04,385.12 C280.32,385.7 282.12,386.33 283.44,387.02 C284.76,387.69 285.71,388.49 286.27,389.42 C286.83,390.33 287.11,391.46 287.11,392.8 C287.11,395.29 286.19,397.26 284.35,398.7 C282.51,400.13 279.97,400.84 276.74,400.84z  M306.87 400.14 C305.34,400.45 303.82,400.57 302.31,400.5 C300.82,400.46 299.5,400.16 298.33,399.62 C297.16,399.05 296.27,398.19 295.66,397.02 C295.15,396 294.87,394.97 294.82,393.93 C294.79,392.87 294.78,391.68 294.78,390.35 C294.78,390.35 294.78,367.02 294.78,367.02 C294.78,367.02 299.05,367.02 299.05,367.02 C299.05,367.02 299.05,390.16 299.05,390.16 C299.05,391.22 299.06,392.12 299.07,392.87 C299.11,393.62 299.27,394.27 299.58,394.82 C300.15,395.84 301.06,396.44 302.31,396.62 C303.58,396.79 305.1,396.74 306.87,396.47 C306.87,396.47 306.87,400.14 306.87,400.14z    M289.52 374.22 C289.52,374.22 306.87,374.22 306.87,374.22 C306.87,374.22 306.87,377.75 306.87,377.75 C306.87,377.75 289.52,377.75 289.52,377.75 C289.52,377.75 289.52,374.22 289.52,374.22z  M322.1 400.86 C319.52,400.86 317.3,400.28 315.43,399.11 C313.57,397.94 312.14,396.33 311.13,394.26 C310.12,392.2 309.62,389.83 309.62,387.16 C309.62,384.44 310.13,382.06 311.15,380.01 C312.18,377.96 313.63,376.37 315.5,375.23 C317.37,374.08 319.57,373.5 322.1,373.5 C324.69,373.5 326.92,374.09 328.79,375.26 C330.67,376.41 332.1,378.02 333.09,380.08 C334.1,382.13 334.6,384.49 334.6,387.16 C334.6,389.86 334.1,392.25 333.09,394.31 C332.08,396.36 330.64,397.97 328.77,399.14 C326.9,400.29 324.67,400.86 322.1,400.86z  M322.1 396.81 C324.78,396.81 326.78,395.91 328.1,394.12 C329.41,392.33 330.07,390.01 330.07,387.16 C330.07,384.23 329.4,381.9 328.07,380.18 C326.74,378.43 324.75,377.56 322.1,377.56 C320.29,377.56 318.8,377.97 317.63,378.78 C316.46,379.6 315.59,380.73 315.02,382.17 C314.44,383.61 314.15,385.27 314.15,387.16 C314.15,390.07 314.83,392.41 316.17,394.17 C317.51,395.93 319.49,396.81 322.1,396.81z    M342.28 395.73 C342.28,395.73 346.56,395.73 346.56,395.73 C346.56,395.73 346.56,400.14 346.56,400.14 C346.56,400.14 342.28,400.14 342.28,400.14 C342.28,400.14 342.28,395.73 342.28,395.73z    M342.28 365.58 C342.28,365.58 346.56,365.58 346.56,365.58 C346.56,365.58 346.56,391.5 346.56,391.5 C346.56,391.5 342.28,391.5 342.28,391.5 C342.28,391.5 342.28,365.58 342.28,365.58z "/></g></g><g id="_R_G_L_0_G_M"><g id="_R_G_L_0_G" transform=" translate(539.555, 959.7) translate(-258.812, -235.375)"><path id="_R_G_L_0_G_D_0_P_0" fill="#46d5e8" fill-opacity="1" fill-rule="nonzero" d=" M448.42 470.5 C448.42,470.5 69.2,470.5 69.2,470.5 C31.12,470.5 0.25,439.63 0.25,401.55 C0.25,401.55 0.25,69.2 0.25,69.2 C0.25,31.12 31.12,0.25 69.2,0.25 C69.2,0.25 448.42,0.25 448.42,0.25 C486.5,0.25 517.37,31.12 517.37,69.2 C517.37,69.2 517.37,401.55 517.37,401.55 C517.37,439.63 486.5,470.5 448.42,470.5z "/><path id="_R_G_L_0_G_D_1_P_0" fill="#ffffff" fill-opacity="1" fill-rule="nonzero" d=" M369.78 88.83 C373.5,92.13 373.85,97.82 370.55,101.54 C370.55,101.54 232.46,257.54 232.46,257.54 C230.79,259.43 228.4,260.52 225.88,260.57 C223.36,260.62 220.94,259.61 219.2,257.78 C219.2,257.78 147.29,182.29 147.29,182.29 C143.87,178.69 144,173 147.6,169.57 C151.2,166.14 156.9,166.28 160.33,169.88 C160.33,169.88 225.47,238.27 225.47,238.27 C225.47,238.27 357.07,89.61 357.07,89.61 C360.37,85.89 366.06,85.54 369.78,88.83z "/><path id="_R_G_L_0_G_D_2_P_0" fill="#200020" fill-opacity="1" fill-rule="nonzero" d=" M189.69 349.62 C189.69,349.62 193.97,349.62 193.97,349.62 C193.97,349.62 193.97,354.03 193.97,354.03 C193.97,354.03 189.69,354.03 189.69,354.03 C189.69,354.03 189.69,349.62 189.69,349.62z  M189.69 358.26 C189.69,358.26 193.97,358.26 193.97,358.26 C193.97,358.26 193.97,384.18 193.97,384.18 C193.97,384.18 189.69,384.18 189.69,384.18 C189.69,384.18 189.69,358.26 189.69,358.26z  M203.57 375.54 C203.57,375.54 203.57,340.98 203.57,340.98 C203.57,340.98 207.84,340.98 207.84,340.98 C207.84,340.98 207.84,371.48 207.84,371.48 C207.84,371.48 223.88,371.48 223.88,371.48 C223.88,371.48 223.88,375.54 223.88,375.54 C223.88,375.54 203.57,375.54 203.57,375.54z    M228.42 340.62 C228.42,340.62 232.69,340.62 232.69,340.62 C232.69,340.62 232.69,345.03 232.69,345.03 C232.69,345.03 228.42,345.03 228.42,345.03 C228.42,345.03 228.42,340.62 228.42,340.62z    M228.42 349.62 C228.42,349.62 232.69,349.62 232.69,349.62 C232.69,349.62 232.69,375.54 232.69,375.54 C232.69,375.54 228.42,375.54 228.42,375.54 C228.42,375.54 228.42,349.62 228.42,349.62z  M249.68 376.23 C246.59,376.23 244.06,375.56 242.07,374.22 C240.11,372.86 238.9,370.96 238.45,368.53 C238.45,368.53 242.82,367.83 242.82,367.83 C243.17,369.24 243.98,370.36 245.24,371.19 C246.51,372.01 248.07,372.42 249.95,372.42 C251.72,372.42 253.11,372.05 254.12,371.31 C255.13,370.58 255.63,369.58 255.63,368.31 C255.63,367.58 255.47,366.99 255.13,366.54 C254.79,366.07 254.1,365.64 253.04,365.24 C252,364.84 250.43,364.36 248.31,363.8 C246.03,363.19 244.23,362.56 242.91,361.91 C241.6,361.25 240.66,360.49 240.11,359.63 C239.55,358.76 239.27,357.72 239.27,356.48 C239.27,354.96 239.68,353.64 240.51,352.5 C241.35,351.35 242.51,350.46 243.99,349.83 C245.5,349.21 247.24,348.9 249.23,348.9 C251.19,348.9 252.95,349.21 254.51,349.83 C256.06,350.46 257.31,351.35 258.25,352.5 C259.21,353.64 259.78,354.96 259.95,356.48 C259.95,356.48 255.59,357.27 255.59,357.27 C255.38,355.88 254.7,354.79 253.57,353.99 C252.45,353.19 251,352.76 249.23,352.71 C247.55,352.65 246.18,352.95 245.12,353.6 C244.08,354.26 243.56,355.15 243.56,356.27 C243.56,356.89 243.75,357.43 244.14,357.87 C244.54,358.32 245.27,358.75 246.32,359.15 C247.39,359.55 248.94,360 250.98,360.51 C253.26,361.09 255.06,361.72 256.38,362.41 C257.7,363.08 258.65,363.88 259.21,364.81 C259.77,365.72 260.05,366.85 260.05,368.19 C260.05,370.69 259.13,372.66 257.29,374.1 C255.45,375.52 252.91,376.23 249.68,376.23z  M279.81 375.54 C278.28,375.84 276.76,375.96 275.25,375.9 C273.77,375.85 272.44,375.55 271.27,375.01 C270.1,374.45 269.22,373.59 268.61,372.42 C268.09,371.4 267.81,370.36 267.77,369.32 C267.73,368.27 267.72,367.08 267.72,365.75 C267.72,365.75 267.72,342.42 267.72,342.42 C267.72,342.42 271.99,342.42 271.99,342.42 C271.99,342.42 271.99,365.55 271.99,365.55 C271.99,366.61 272,367.51 272.01,368.27 C272.05,369.02 272.22,369.67 272.52,370.21 C273.09,371.23 274.01,371.83 275.25,372.01 C276.52,372.19 278.04,372.14 279.81,371.87 C279.81,371.87 279.81,375.54 279.81,375.54z    M262.46 349.62 C262.46,349.62 279.81,349.62 279.81,349.62 C279.81,349.62 279.81,353.15 279.81,353.15 C279.81,353.15 262.46,353.15 262.46,353.15 C262.46,353.15 262.46,349.62 262.46,349.62z  M295.04 376.26 C292.46,376.26 290.24,375.67 288.37,374.51 C286.51,373.34 285.08,371.72 284.07,369.66 C283.06,367.59 282.56,365.23 282.56,362.55 C282.56,359.83 283.07,357.45 284.1,355.4 C285.12,353.35 286.57,351.76 288.44,350.63 C290.31,349.47 292.51,348.9 295.04,348.9 C297.63,348.9 299.86,349.48 301.74,350.65 C303.61,351.8 305.04,353.41 306.03,355.47 C307.04,357.52 307.54,359.88 307.54,362.55 C307.54,365.26 307.04,367.64 306.03,369.71 C305.02,371.76 303.58,373.36 301.71,374.53 C299.84,375.68 297.61,376.26 295.04,376.26z  M295.04 372.2 C297.73,372.2 299.73,371.31 301.04,369.51 C302.35,367.72 303.01,365.4 303.01,362.55 C303.01,359.63 302.34,357.3 301.02,355.57 C299.69,353.83 297.69,352.95 295.04,352.95 C293.23,352.95 291.74,353.36 290.58,354.18 C289.4,354.99 288.54,356.12 287.96,357.56 C287.38,359 287.1,360.67 287.1,362.55 C287.1,365.47 287.77,367.8 289.11,369.56 C290.46,371.32 292.43,372.2 295.04,372.2z    M315.23 371.12 C315.23,371.12 319.5,371.12 319.5,371.12 C319.5,371.12 319.5,375.54 319.5,375.54 C319.5,375.54 315.23,375.54 315.23,375.54 C315.23,375.54 315.23,371.12 315.23,371.12z    M315.23 340.98 C315.23,340.98 319.5,340.98 319.5,340.98 C319.5,340.98 319.5,366.9 319.5,366.9 C319.5,366.9 315.23,366.9 315.23,366.9 C315.23,366.9 315.23,340.98 315.23,340.98z "/></g></g></g><g id="time_group"/></svg>