<svg width="48" height="48" viewBox="0 0 48 48" fill="none" xmlns="http://www.w3.org/2000/svg">
<g clip-path="url(#clip0_11678_4000)">
<rect width="48" height="48" rx="4" fill="#DA0081"/>
<g clip-path="url(#clip1_11678_4000)">
<path d="M22.6001 21.2L22.6001 4.4C22.6001 3.6268 21.9733 3 21.2001 3L4.4001 3C3.62691 3 3.0001 3.6268 3.0001 4.4L3.0001 21.2C3.0001 21.9732 3.6269 22.6 4.4001 22.6L21.2001 22.6C21.9733 22.6 22.6001 21.9732 22.6001 21.2Z" fill="#E366A7"/>
<path d="M12.8001 36.6L21.2001 36.6C21.9733 36.6 22.6001 35.9732 22.6001 35.2L22.6001 26.8C22.6001 26.0268 21.9733 25.4 21.2001 25.4L12.8001 25.4C12.0269 25.4 11.4001 26.0268 11.4001 26.8L11.4001 35.2C11.4001 35.9732 12.0269 36.6 12.8001 36.6Z" fill="#F1BFDA"/>
<path d="M4.4 45L8.6 45C9.3732 45 10 44.3732 10 43.6L10 39.4C10 38.6268 9.3732 38 8.6 38L4.4 38C3.6268 38 3 38.6268 3 39.4L3 43.6C3 44.3732 3.6268 45 4.4 45Z" fill="#ECE7F5"/>
<path d="M25.3999 26.8L25.3999 43.6C25.3999 44.3732 26.0267 45 26.7999 45L43.5999 45C44.3731 45 44.9999 44.3732 44.9999 43.6L44.9999 26.8C44.9999 26.0268 44.3731 25.4 43.5999 25.4L26.7999 25.4C26.0267 25.4 25.3999 26.0268 25.3999 26.8Z" fill="#E366A7"/>
<path d="M35.1999 11.4L26.7999 11.4C26.0267 11.4 25.3999 12.0268 25.3999 12.8L25.3999 21.2C25.3999 21.9732 26.0267 22.6 26.7999 22.6L35.1999 22.6C35.9731 22.6 36.5999 21.9732 36.5999 21.2L36.5999 12.8C36.5999 12.0268 35.9731 11.4 35.1999 11.4Z" fill="#ECE7F5"/>
<path d="M43.6 3L39.4 3C38.6268 3 38 3.6268 38 4.4L38 8.6C38 9.3732 38.6268 10 39.4 10L43.6 10C44.3732 10 45 9.3732 45 8.6L45 4.4C45 3.6268 44.3732 3 43.6 3Z" fill="#F1BFDA"/>
</g>
</g>
<defs>
<clipPath id="clip0_11678_4000">
<rect width="48" height="48" fill="white"/>
</clipPath>
<clipPath id="clip1_11678_4000">
<rect width="42" height="42" fill="white" transform="translate(45 3) rotate(90)"/>
</clipPath>
</defs>
</svg>
