<svg width="160" height="64" viewBox="0 0 160 64" fill="none" xmlns="http://www.w3.org/2000/svg">
<g clip-path="url(#clip0_10704_7317)">
<path d="M0 4C0 1.79086 1.79086 0 4 0H156C158.209 0 160 1.79086 160 4V64H0V4Z" fill="#DC410F"/>
<g opacity="0.4">
<path d="M29.3333 32L-5.33333 32C-6.80609 32 -8 33.1939 -8 34.6667L-8 69.3333C-8 70.8061 -6.80609 72 -5.33333 72H29.3333C30.8061 72 32 70.8061 32 69.3333L32 34.6667C32 33.1939 30.8061 32 29.3333 32Z" fill="#ECE7F5"/>
<path d="M52.5417 8.89861L36.5417 8.89861C35.0689 8.89861 33.875 10.0925 33.875 11.5653L33.875 27.5653C33.875 29.038 35.0689 30.2319 36.5417 30.2319L52.5417 30.2319C54.0144 30.2319 55.2083 29.038 55.2083 27.5653V11.5653C55.2083 10.0925 54.0144 8.89861 52.5417 8.89861Z" fill="#ECE7F5"/>
<path d="M67.5357 -6.20225L59.4823 -6.20225C58.0096 -6.20225 56.8157 -5.00834 56.8157 -3.53558V4.51775C56.8157 5.99051 58.0096 7.18442 59.4823 7.18442L67.5357 7.18442C69.0084 7.18442 70.2023 5.99051 70.2023 4.51775V-3.53558C70.2023 -5.00834 69.0084 -6.20225 67.5357 -6.20225Z" fill="#ECE7F5"/>
</g>
</g>
<defs>
<clipPath id="clip0_10704_7317">
<path d="M0 4C0 1.79086 1.79086 0 4 0H156C158.209 0 160 1.79086 160 4V64H0V4Z" fill="white"/>
</clipPath>
</defs>
</svg>
