<svg width="160" height="64" viewBox="0 0 160 64" fill="none" xmlns="http://www.w3.org/2000/svg">
<g clip-path="url(#clip0_10704_7319)">
<path d="M0 4C0 1.79086 1.79086 0 4 0H156C158.209 0 160 1.79086 160 4V64H0V4Z" fill="#DA0081"/>
<g opacity="0.4">
<path d="M31.7336 27.4667L31.7336 0.266475C31.7336 -0.985382 30.7188 -2.00021 29.467 -2.00021L2.26669 -2.00021C1.01483 -2.00021 -3.85906e-06 -0.985384 -3.91378e-06 0.266474L-5.10274e-06 27.4667C-5.15746e-06 28.7186 1.01483 29.7334 2.26668 29.7334L29.467 29.7334C30.7188 29.7334 31.7336 28.7186 31.7336 27.4667Z" fill="#ECE7F5"/>
<path d="M15.8668 52.3994L29.467 52.3994C30.7188 52.3994 31.7336 51.3846 31.7336 50.1327L31.7336 36.5326C31.7336 35.2807 30.7188 34.2659 29.467 34.2659L15.8668 34.2659C14.615 34.2659 13.6001 35.2807 13.6001 36.5326L13.6001 50.1327C13.6001 51.3846 14.615 52.3994 15.8668 52.3994Z" fill="#ECE7F5"/>
<path d="M2.26711 66.0015L9.06717 66.0015C10.319 66.0015 11.3339 64.9866 11.3339 63.7348L11.3339 56.9347C11.3339 55.6829 10.319 54.668 9.06717 54.668L2.26711 54.668C1.01525 54.668 0.000420068 55.6829 0.000420013 56.9347L0.000419716 63.7348C0.000419661 64.9866 1.01525 66.0015 2.26711 66.0015Z" fill="#ECE7F5"/>
<path d="M36.2664 36.5345L36.2664 63.7348C36.2664 64.9866 37.2812 66.0015 38.533 66.0015L65.7333 66.0015C66.9852 66.0015 68 64.9866 68 63.7348L68 36.5345C68 35.2827 66.9852 34.2678 65.7333 34.2678L38.533 34.2678C37.2812 34.2678 36.2664 35.2827 36.2664 36.5345Z" fill="#ECE7F5"/>
<path d="M52.1332 11.5997L38.533 11.5997C37.2812 11.5997 36.2664 12.6145 36.2664 13.8664L36.2664 27.4665C36.2664 28.7183 37.2812 29.7332 38.533 29.7332L52.1332 29.7332C53.385 29.7332 54.3999 28.7183 54.3999 27.4665L54.3999 13.8664C54.3999 12.6145 53.385 11.5997 52.1332 11.5997Z" fill="#ECE7F5"/>
<path d="M65.7329 -2.00021L58.9328 -2.00021C57.681 -2.00021 56.6661 -0.985383 56.6661 0.266475L56.6661 7.06654C56.6661 8.3184 57.681 9.33323 58.9328 9.33323L65.7329 9.33323C66.9847 9.33323 67.9996 8.3184 67.9996 7.06654L67.9996 0.266475C67.9996 -0.985382 66.9847 -2.00021 65.7329 -2.00021Z" fill="#ECE7F5"/>
</g>
</g>
<defs>
<clipPath id="clip0_10704_7319">
<path d="M0 4C0 1.79086 1.79086 0 4 0H156C158.209 0 160 1.79086 160 4V64H0V4Z" fill="white"/>
</clipPath>
</defs>
</svg>
