<svg width="88" height="88" viewBox="0 0 88 88" fill="none" xmlns="http://www.w3.org/2000/svg">
<path d="M11.5 10.9998L77 76.4998" stroke="#DA0081" stroke-width="2" stroke-linecap="round"/>
<path d="M43.9425 20.09C31.069 20.09 17.8635 27.5409 7.46768 42.4427C7.17085 42.8728 7.00819 43.3811 7.0003 43.9035C6.99241 44.4258 7.13942 44.9389 7.423 45.3778C15.4107 57.8813 28.4395 67.6594 43.9425 67.6594C59.2771 67.6594 72.5732 57.8515 80.5759 45.32C80.8529 44.8897 81 44.3889 81 43.8773C81 43.3655 80.8529 42.8647 80.5759 42.4344C72.5552 30.0466 59.1613 20.09 43.9425 20.09Z" stroke="#200020" stroke-width="2" stroke-linecap="round" stroke-linejoin="round"/>
<path d="M43.9985 57.0885C51.2962 57.0885 57.2122 51.1726 57.2122 43.8748C57.2122 36.577 51.2962 30.661 43.9985 30.661C36.7007 30.661 30.7847 36.577 30.7847 43.8748C30.7847 51.1726 36.7007 57.0885 43.9985 57.0885Z" stroke="#DA0081" stroke-width="2" stroke-miterlimit="10"/>
</svg>
