<svg xmlns="http://www.w3.org/2000/svg" width="88" height="88" fill="none" viewBox="0 0 88 88"><path fill="#200020" d="M7.808 15.243a2.44 2.44 0 0 1 1.38-.22c.858.103 1.665.594 2.302 1.127a8.4 8.4 0 0 1 1.667 1.91c.211.338.392.69.517 1.035l.035.11 48.249-6.816v.003c1.359-.208 2.873.128 4.093.83 1.223.704 2.308 1.872 2.52 3.425l.003.029 4.454 41.206c.044.315.118.722.254 1.1.143.395.313.637.474.753l5.356 3.306c1.853 1.144 1.308 4.067-.875 4.416l-.02.003-54.178 7.539c-2.794.427-5.333-1.567-5.717-4.383l-.002-.018-5.844-49.374a6 6 0 0 1-1.524-.05 8.4 8.4 0 0 1-2.345-.724c-.714-.347-1.445-.85-1.883-1.541a2.45 2.45 0 0 1-.395-1.257 2.53 2.53 0 0 1 .383-1.366l.107-.167c.26-.38.59-.681.989-.876m54.444-.875-.015.003-47.759 6.747 5.826 49.228c.234 1.715 1.709 2.857 3.288 2.695l.17-.022 54.165-7.539c.148-.026.262-.13.298-.317.038-.19-.031-.339-.164-.42l.001-.001-5.397-3.33q-.024-.014-.047-.03c-.656-.458-1.014-1.155-1.219-1.721a7.6 7.6 0 0 1-.354-1.524l-.004-.03-4.453-41.19c-.1-.743-.649-1.45-1.534-1.96-.883-.509-1.947-.723-2.802-.589M8.949 17.009a.45.45 0 0 0-.262.03c-.053.026-.149.091-.26.277-.089.147-.1.24-.098.288a.46.46 0 0 0 .085.235c.153.241.505.539 1.067.812a6.4 6.4 0 0 0 2.046.578q-.031-.052-.065-.105a6.4 6.4 0 0 0-1.255-1.44c-.51-.428-.957-.639-1.258-.675"/><path fill="currentColor" d="M44.285 54.163a2.6 2.6 0 0 1 1.495-.05c.491.13.932.401 1.267.78a2.54 2.54 0 0 1 .105 3.238 2.59 2.59 0 0 1-4.273-.271 2.54 2.54 0 0 1 .19-2.832c.31-.401.734-.702 1.216-.865m-2.875-24.78a2.7 2.7 0 0 1 .795.006l.26.057.256.082q.248.095.473.236l.217.155.199.176q.19.186.339.405l.14.227.112.238c.098.237.157.49.181.746l.004.002 1.648 17.083a1.927 1.927 0 0 1-1.66 2.085 1.93 1.93 0 0 1-2.06-1.196l-.104-.362-3.02-16.906a2.6 2.6 0 0 1 .027-1.038l.072-.252c.084-.247.206-.482.361-.694l.168-.203a2.6 2.6 0 0 1 .605-.5l.233-.124c.238-.112.493-.186.754-.223"/></svg>