<svg width="48" height="49" viewBox="0 0 48 49" fill="none" xmlns="http://www.w3.org/2000/svg">
<path d="M20.25 13.25H21.375C21.4745 13.25 21.5698 13.2895 21.6402 13.3598C21.7105 13.4302 21.75 13.5255 21.75 13.625C21.75 13.8239 21.829 14.0147 21.9697 14.1553C22.1103 14.296 22.3011 14.375 22.5 14.375H25.5C25.6989 14.375 25.8897 14.296 26.0303 14.1553C26.171 14.0147 26.25 13.8239 26.25 13.625C26.25 13.5255 26.2895 13.4302 26.3598 13.3598C26.4302 13.2895 26.5255 13.25 26.625 13.25H27.75" stroke="#200020" stroke-width="1.5" stroke-linecap="round" stroke-linejoin="round"/>
<path d="M24 33.5C24.4142 33.5 24.75 33.1642 24.75 32.75C24.75 32.3358 24.4142 32 24 32C23.5858 32 23.25 32.3358 23.25 32.75C23.25 33.1642 23.5858 33.5 24 33.5Z" fill="#200020"/>
<path d="M27.75 13.25H20.25C19.0074 13.25 18 14.2574 18 15.5V33.5C18 34.7426 19.0074 35.75 20.25 35.75H27.75C28.9926 35.75 30 34.7426 30 33.5V15.5C30 14.2574 28.9926 13.25 27.75 13.25Z" stroke="#200020" stroke-width="1.5" stroke-linecap="round" stroke-linejoin="round"/>
</svg>
