<svg width="40" height="43" viewBox="0 0 40 43" fill="none" xmlns="http://www.w3.org/2000/svg">
<path d="M16.625 21C17.2463 21 17.75 20.4963 17.75 19.875C17.75 19.2537 17.2463 18.75 16.625 18.75C16.0037 18.75 15.5 19.2537 15.5 19.875C15.5 20.4963 16.0037 21 16.625 21Z" fill="#200020"/>
<path d="M20.0024 27C17.8734 27 16.0827 25.6158 15.516 23.7267C15.5002 23.6705 15.4977 23.6114 15.5087 23.554C15.5198 23.4967 15.5441 23.4427 15.5797 23.3964C15.6153 23.3501 15.6612 23.3127 15.7138 23.2873C15.7664 23.2619 15.8242 23.2491 15.8826 23.25H24.1181C24.1765 23.2491 24.2343 23.2619 24.2868 23.2873C24.3394 23.3127 24.3854 23.3501 24.421 23.3964C24.4566 23.4427 24.4809 23.4967 24.4919 23.554C24.503 23.6114 24.5005 23.6705 24.4846 23.7267C23.9226 25.6158 22.1315 27 20.0024 27Z" fill="#200020"/>
<path d="M23.375 21C23.9963 21 24.5 20.4963 24.5 19.875C24.5 19.2537 23.9963 18.75 23.375 18.75C22.7537 18.75 22.25 19.2537 22.25 19.875C22.25 20.4963 22.7537 21 23.375 21Z" fill="#200020"/>
<path d="M20 30.75C25.3848 30.75 29.75 26.3848 29.75 21C29.75 15.6152 25.3848 11.25 20 11.25C14.6152 11.25 10.25 15.6152 10.25 21C10.25 26.3848 14.6152 30.75 20 30.75Z" stroke="#200020" stroke-width="1.5" stroke-miterlimit="10"/>
</svg>
