<svg width="41" height="42" viewBox="0 0 41 42" fill="none" xmlns="http://www.w3.org/2000/svg">
<g clip-path="url(#clip0_5181_4464)">
<path d="M9.08105 14.7729V26.9452C9.08105 28.2057 10.1029 29.2275 11.3634 29.2275H29.6219C30.8824 29.2275 31.9042 28.2057 31.9042 26.9452V14.7729C31.9042 13.5124 30.8824 12.4906 29.6219 12.4906H11.3634C10.1029 12.4906 9.08105 13.5124 9.08105 14.7729Z" stroke="#200020" stroke-width="1.52154" stroke-linecap="round" stroke-linejoin="round"/>
</g>
<g clip-path="url(#clip1_5181_4464)">
<path d="M16.4831 18.3553C16.4132 19.298 15.6985 20.067 14.914 20.067C14.1294 20.067 13.4135 19.2982 13.3449 18.3553C13.2736 17.3746 13.9689 16.6436 14.914 16.6436C15.859 16.6436 16.5544 17.3924 16.4831 18.3553Z" stroke="#200020" stroke-width="1.01436" stroke-linecap="round" stroke-linejoin="round"/>
<path d="M14.9137 21.208C13.3625 21.208 11.788 22.0639 11.4967 23.6793C11.4616 23.874 11.5718 24.0609 11.7756 24.0609H18.0519C18.2559 24.0609 18.3661 23.874 18.331 23.6793C18.0394 22.0639 16.465 21.208 14.9137 21.208Z" stroke="#200020" stroke-width="1.01436" stroke-miterlimit="10"/>
</g>
<path d="M21.5068 18.8311H28.6074" stroke="#200020" stroke-width="1.52154" stroke-linecap="round"/>
<path d="M21.5068 22.8887H28.6074" stroke="#200020" stroke-width="1.52154" stroke-linecap="round"/>
<defs>
<clipPath id="clip0_5181_4464">
<rect width="24.3447" height="24.3447" fill="white" transform="translate(8.32031 8.6875)"/>
</clipPath>
<clipPath id="clip1_5181_4464">
<rect width="9.12925" height="9.12925" fill="white" transform="translate(10.3496 15.7881)"/>
</clipPath>
</defs>
</svg>
