<svg xmlns="http://www.w3.org/2000/svg" xmlns:xlink="http://www.w3.org/1999/xlink" preserveAspectRatio="xMidYMid meet" width="1080" height="1920" viewBox="0 0 1080 1920" style="width:100%;height:100%"><defs><animate repeatCount="indefinite" dur="1.2s" begin="0s" xlink:href="#_R_G_L_29_G_M" fill="freeze" attributeName="opacity" from="1" to="0" keyTimes="0;0.0333333;0.0333334;1" values="1;1;0;0" keySplines="0 0 0 0;0 0 0 0;0 0 0 0" calcMode="spline"/><animate repeatCount="indefinite" dur="1.2s" begin="0s" xlink:href="#_R_G_L_28_G_M" fill="freeze" attributeName="opacity" from="0" to="0" keyTimes="0;0.0333333;0.0333367;0.0666667;0.0666667;1" values="0;0;1;1;0;0" keySplines="0 0 0 0;0 0 0 0;0 0 0 0;0 0 0 0;0 0 0 0" calcMode="spline"/><animate repeatCount="indefinite" dur="1.2s" begin="0s" xlink:href="#_R_G_L_27_G_M" fill="freeze" attributeName="opacity" from="0" to="0" keyTimes="0;0.0666667;0.06667;0.1;0.1;1" values="0;0;1;1;0;0" keySplines="0 0 0 0;0 0 0 0;0 0 0 0;0 0 0 0;0 0 0 0" calcMode="spline"/><animate repeatCount="indefinite" dur="1.2s" begin="0s" xlink:href="#_R_G_L_26_G_M" fill="freeze" attributeName="opacity" from="0" to="0" keyTimes="0;0.1;0.1000033;0.1333333;0.1333334;1" values="0;0;1;1;0;0" keySplines="0 0 0 0;0 0 0 0;0 0 0 0;0 0 0 0;0 0 0 0" calcMode="spline"/><animate repeatCount="indefinite" dur="1.2s" begin="0s" xlink:href="#_R_G_L_25_G_M" fill="freeze" attributeName="opacity" from="0" to="0" keyTimes="0;0.1333333;0.1333367;0.1666667;0.1666667;1" values="0;0;1;1;0;0" keySplines="0 0 0 0;0 0 0 0;0 0 0 0;0 0 0 0;0 0 0 0" calcMode="spline"/><animate repeatCount="indefinite" dur="1.2s" begin="0s" xlink:href="#_R_G_L_24_G_M" fill="freeze" attributeName="opacity" from="0" to="0" keyTimes="0;0.1666667;0.16667;0.2;0.2;1" values="0;0;1;1;0;0" keySplines="0 0 0 0;0 0 0 0;0 0 0 0;0 0 0 0;0 0 0 0" calcMode="spline"/><animate repeatCount="indefinite" dur="1.2s" begin="0s" xlink:href="#_R_G_L_23_G_M" fill="freeze" attributeName="opacity" from="0" to="0" keyTimes="0;0.2;0.2000033;0.2333333;0.2333334;1" values="0;0;1;1;0;0" keySplines="0 0 0 0;0 0 0 0;0 0 0 0;0 0 0 0;0 0 0 0" calcMode="spline"/><animate repeatCount="indefinite" dur="1.2s" begin="0s" xlink:href="#_R_G_L_22_G_M" fill="freeze" attributeName="opacity" from="0" to="0" keyTimes="0;0.2333333;0.2333367;0.2666667;0.2666667;1" values="0;0;1;1;0;0" keySplines="0 0 0 0;0 0 0 0;0 0 0 0;0 0 0 0;0 0 0 0" calcMode="spline"/><animate repeatCount="indefinite" dur="1.2s" begin="0s" xlink:href="#_R_G_L_21_G_M" fill="freeze" attributeName="opacity" from="0" to="0" keyTimes="0;0.2666667;0.26667;0.3;0.3;1" values="0;0;1;1;0;0" keySplines="0 0 0 0;0 0 0 0;0 0 0 0;0 0 0 0;0 0 0 0" calcMode="spline"/><animate repeatCount="indefinite" dur="1.2s" begin="0s" xlink:href="#_R_G_L_20_G_M" fill="freeze" attributeName="opacity" from="0" to="0" keyTimes="0;0.3;0.3000033;0.3333333;0.3333334;1" values="0;0;1;1;0;0" keySplines="0 0 0 0;0 0 0 0;0 0 0 0;0 0 0 0;0 0 0 0" calcMode="spline"/><animate repeatCount="indefinite" dur="1.2s" begin="0s" xlink:href="#_R_G_L_19_G_M" fill="freeze" attributeName="opacity" from="0" to="0" keyTimes="0;0.3333333;0.3333367;0.3666667;0.3666667;1" values="0;0;1;1;0;0" keySplines="0 0 0 0;0 0 0 0;0 0 0 0;0 0 0 0;0 0 0 0" calcMode="spline"/><animate repeatCount="indefinite" dur="1.2s" begin="0s" xlink:href="#_R_G_L_18_G_M" fill="freeze" attributeName="opacity" from="0" to="0" keyTimes="0;0.3666667;0.36667;0.4;0.4;1" values="0;0;1;1;0;0" keySplines="0 0 0 0;0 0 0 0;0 0 0 0;0 0 0 0;0 0 0 0" calcMode="spline"/><animate repeatCount="indefinite" dur="1.2s" begin="0s" xlink:href="#_R_G_L_17_G_M" fill="freeze" attributeName="opacity" from="0" to="0" keyTimes="0;0.4;0.4000033;0.4333333;0.4333334;1" values="0;0;1;1;0;0" keySplines="0 0 0 0;0 0 0 0;0 0 0 0;0 0 0 0;0 0 0 0" calcMode="spline"/><animate repeatCount="indefinite" dur="1.2s" begin="0s" xlink:href="#_R_G_L_16_G_M" fill="freeze" attributeName="opacity" from="0" to="0" keyTimes="0;0.4333333;0.4333367;0.4666667;0.4666667;1" values="0;0;1;1;0;0" keySplines="0 0 0 0;0 0 0 0;0 0 0 0;0 0 0 0;0 0 0 0" calcMode="spline"/><animate repeatCount="indefinite" dur="1.2s" begin="0s" xlink:href="#_R_G_L_15_G_M" fill="freeze" attributeName="opacity" from="0" to="0" keyTimes="0;0.4666667;0.46667;0.5;0.5;1" values="0;0;1;1;0;0" keySplines="0 0 0 0;0 0 0 0;0 0 0 0;0 0 0 0;0 0 0 0" calcMode="spline"/><animate repeatCount="indefinite" dur="1.2s" begin="0s" xlink:href="#_R_G_L_14_G_M" fill="freeze" attributeName="opacity" from="0" to="0" keyTimes="0;0.5;0.5000033;0.5333333;0.5333334;1" values="0;0;1;1;0;0" keySplines="0 0 0 0;0 0 0 0;0 0 0 0;0 0 0 0;0 0 0 0" calcMode="spline"/><animate repeatCount="indefinite" dur="1.2s" begin="0s" xlink:href="#_R_G_L_13_G_M" fill="freeze" attributeName="opacity" from="0" to="0" keyTimes="0;0.5333333;0.5333367;0.5666667;0.5666667;1" values="0;0;1;1;0;0" keySplines="0 0 0 0;0 0 0 0;0 0 0 0;0 0 0 0;0 0 0 0" calcMode="spline"/><animate repeatCount="indefinite" dur="1.2s" begin="0s" xlink:href="#_R_G_L_12_G_M" fill="freeze" attributeName="opacity" from="0" to="0" keyTimes="0;0.5666667;0.56667;0.6;0.6;1" values="0;0;1;1;0;0" keySplines="0 0 0 0;0 0 0 0;0 0 0 0;0 0 0 0;0 0 0 0" calcMode="spline"/><animate repeatCount="indefinite" dur="1.2s" begin="0s" xlink:href="#_R_G_L_11_G_M" fill="freeze" attributeName="opacity" from="0" to="0" keyTimes="0;0.6;0.6000033;0.6333333;0.6333334;1" values="0;0;1;1;0;0" keySplines="0 0 0 0;0 0 0 0;0 0 0 0;0 0 0 0;0 0 0 0" calcMode="spline"/><animate repeatCount="indefinite" dur="1.2s" begin="0s" xlink:href="#_R_G_L_10_G_M" fill="freeze" attributeName="opacity" from="0" to="0" keyTimes="0;0.6333333;0.6333367;0.6666667;0.6666667;1" values="0;0;1;1;0;0" keySplines="0 0 0 0;0 0 0 0;0 0 0 0;0 0 0 0;0 0 0 0" calcMode="spline"/><animate repeatCount="indefinite" dur="1.2s" begin="0s" xlink:href="#_R_G_L_9_G_M" fill="freeze" attributeName="opacity" from="0" to="0" keyTimes="0;0.6666667;0.66667;0.7;0.7;1" values="0;0;1;1;0;0" keySplines="0 0 0 0;0 0 0 0;0 0 0 0;0 0 0 0;0 0 0 0" calcMode="spline"/><animate repeatCount="indefinite" dur="1.2s" begin="0s" xlink:href="#_R_G_L_8_G_M" fill="freeze" attributeName="opacity" from="0" to="0" keyTimes="0;0.7;0.7000033;0.7333333;0.7333334;1" values="0;0;1;1;0;0" keySplines="0 0 0 0;0 0 0 0;0 0 0 0;0 0 0 0;0 0 0 0" calcMode="spline"/><animate repeatCount="indefinite" dur="1.2s" begin="0s" xlink:href="#_R_G_L_7_G_M" fill="freeze" attributeName="opacity" from="0" to="0" keyTimes="0;0.7333333;0.7333367;0.7666667;0.7666667;1" values="0;0;1;1;0;0" keySplines="0 0 0 0;0 0 0 0;0 0 0 0;0 0 0 0;0 0 0 0" calcMode="spline"/><animate repeatCount="indefinite" dur="1.2s" begin="0s" xlink:href="#_R_G_L_6_G_M" fill="freeze" attributeName="opacity" from="0" to="0" keyTimes="0;0.7666667;0.76667;0.8;0.8;1" values="0;0;1;1;0;0" keySplines="0 0 0 0;0 0 0 0;0 0 0 0;0 0 0 0;0 0 0 0" calcMode="spline"/><animate repeatCount="indefinite" dur="1.2s" begin="0s" xlink:href="#_R_G_L_5_G_M" fill="freeze" attributeName="opacity" from="0" to="0" keyTimes="0;0.8;0.8000033;0.8333333;0.8333334;1" values="0;0;1;1;0;0" keySplines="0 0 0 0;0 0 0 0;0 0 0 0;0 0 0 0;0 0 0 0" calcMode="spline"/><animate repeatCount="indefinite" dur="1.2s" begin="0s" xlink:href="#_R_G_L_4_G_M" fill="freeze" attributeName="opacity" from="0" to="0" keyTimes="0;0.8333333;0.8333367;0.8666667;0.8666667;1" values="0;0;1;1;0;0" keySplines="0 0 0 0;0 0 0 0;0 0 0 0;0 0 0 0;0 0 0 0" calcMode="spline"/><animate repeatCount="indefinite" dur="1.2s" begin="0s" xlink:href="#_R_G_L_3_G_M" fill="freeze" attributeName="opacity" from="0" to="0" keyTimes="0;0.8666667;0.86667;0.9;0.9;1" values="0;0;1;1;0;0" keySplines="0 0 0 0;0 0 0 0;0 0 0 0;0 0 0 0;0 0 0 0" calcMode="spline"/><animate repeatCount="indefinite" dur="1.2s" begin="0s" xlink:href="#_R_G_L_2_G_M" fill="freeze" attributeName="opacity" from="0" to="0" keyTimes="0;0.9;0.9000033;0.9333333;0.9333334;1" values="0;0;1;1;0;0" keySplines="0 0 0 0;0 0 0 0;0 0 0 0;0 0 0 0;0 0 0 0" calcMode="spline"/><animate repeatCount="indefinite" dur="1.2s" begin="0s" xlink:href="#_R_G_L_1_G_M" fill="freeze" attributeName="opacity" from="0" to="0" keyTimes="0;0.9333333;0.9333367;0.9666667;0.9666667;1" values="0;0;1;1;0;0" keySplines="0 0 0 0;0 0 0 0;0 0 0 0;0 0 0 0;0 0 0 0" calcMode="spline"/><animate repeatCount="indefinite" dur="1.2s" begin="0s" xlink:href="#_R_G_L_0_G_M" fill="freeze" attributeName="opacity" from="0" to="1" keyTimes="0;0.9666667;0.96667;1" values="0;0;1;1" keySplines="0 0 0 0;0 0 0 0;0 0 0 0" calcMode="spline"/><animate attributeType="XML" attributeName="opacity" dur="1s" from="0" to="1" xlink:href="#time_group"/></defs><g id="_R_G"><g id="_R_G_L_29_G_M"><g id="_R_G_L_29_G" transform=" translate(540, 954.092) translate(-54.313, -48.976)"><path id="_R_G_L_29_G_D_0_P_0" fill="#da0081" fill-opacity="1" fill-rule="nonzero" d=" M92.41 0.25 C92.41,0.25 16.22,0.25 16.22,0.25 C7.4,0.25 0.25,7.46 0.25,16.35 C0.25,16.35 0.25,81.6 0.25,81.6 C0.25,90.49 7.4,97.7 16.22,97.7 C16.22,97.7 92.41,97.7 92.41,97.7 C101.23,97.7 108.38,90.49 108.38,81.6 C108.38,81.6 108.38,16.35 108.38,16.35 C108.38,7.46 101.23,0.25 92.41,0.25z "/></g></g><g id="_R_G_L_28_G_M"><g id="_R_G_L_28_G" transform=" translate(540, 954.092) translate(-54.313, -48.976)"><path id="_R_G_L_28_G_D_0_P_0" fill="#da0081" fill-opacity="1" fill-rule="nonzero" d=" M92.41 0.25 C92.41,0.25 16.22,0.25 16.22,0.25 C7.4,0.25 0.25,7.46 0.25,16.35 C0.25,16.35 0.25,81.6 0.25,81.6 C0.25,90.49 7.4,97.7 16.22,97.7 C16.22,97.7 92.41,97.7 92.41,97.7 C101.23,97.7 108.38,90.49 108.38,81.6 C108.38,81.6 108.38,16.35 108.38,16.35 C108.38,7.46 101.23,0.25 92.41,0.25z "/></g></g><g id="_R_G_L_27_G_M"><g id="_R_G_L_27_G" transform=" translate(540, 954.092) translate(-54.313, -48.976)"><path id="_R_G_L_27_G_D_0_P_0" fill="#da0081" fill-opacity="1" fill-rule="nonzero" d=" M92.41 0.25 C92.41,0.25 16.22,0.25 16.22,0.25 C7.4,0.25 0.25,7.46 0.25,16.35 C0.25,16.35 0.25,81.6 0.25,81.6 C0.25,90.49 7.4,97.7 16.22,97.7 C16.22,97.7 92.41,97.7 92.41,97.7 C101.23,97.7 108.38,90.49 108.38,81.6 C108.38,81.6 108.38,16.35 108.38,16.35 C108.38,7.46 101.23,0.25 92.41,0.25z "/></g></g><g id="_R_G_L_26_G_M"><g id="_R_G_L_26_G" transform=" translate(540, 953.719) translate(-54.313, -49.349)"><path id="_R_G_L_26_G_D_0_P_0" fill="#da0081" fill-opacity="1" fill-rule="nonzero" d=" M92.41 0.25 C92.41,0.25 16.22,0.25 16.22,0.25 C7.4,0.25 0.25,7.51 0.25,16.47 C0.25,16.47 0.25,82.22 0.25,82.22 C0.25,91.18 7.4,98.45 16.22,98.45 C16.22,98.45 92.41,98.45 92.41,98.45 C101.23,98.45 108.38,91.18 108.38,82.22 C108.38,82.22 108.38,16.47 108.38,16.47 C108.38,7.51 101.23,0.25 92.41,0.25z "/></g></g><g id="_R_G_L_25_G_M"><g id="_R_G_L_25_G" transform=" translate(540, 954.092) translate(-54.313, -48.976)"><path id="_R_G_L_25_G_D_0_P_0" fill="#da0081" fill-opacity="1" fill-rule="nonzero" d=" M92.41 0.25 C92.41,0.25 16.22,0.25 16.22,0.25 C7.4,0.25 0.25,7.46 0.25,16.35 C0.25,16.35 0.25,81.6 0.25,81.6 C0.25,90.49 7.4,97.7 16.22,97.7 C16.22,97.7 92.41,97.7 92.41,97.7 C101.23,97.7 108.38,90.49 108.38,81.6 C108.38,81.6 108.38,16.35 108.38,16.35 C108.38,7.46 101.23,0.25 92.41,0.25z "/></g></g><g id="_R_G_L_24_G_M"><g id="_R_G_L_24_G" transform=" translate(540, 954.092) translate(-54.313, -48.976)"><path id="_R_G_L_24_G_D_0_P_0" fill="#da0081" fill-opacity="1" fill-rule="nonzero" d=" M92.41 0.25 C92.41,0.25 16.22,0.25 16.22,0.25 C7.4,0.25 0.25,7.46 0.25,16.35 C0.25,16.35 0.25,81.6 0.25,81.6 C0.25,90.49 7.4,97.7 16.22,97.7 C16.22,97.7 92.41,97.7 92.41,97.7 C101.23,97.7 108.38,90.49 108.38,81.6 C108.38,81.6 108.38,16.35 108.38,16.35 C108.38,7.46 101.23,0.25 92.41,0.25z "/></g></g><g id="_R_G_L_23_G_M"><g id="_R_G_L_23_G" transform=" translate(540, 954.092) translate(-54.313, -48.976)"><path id="_R_G_L_23_G_D_0_P_0" fill="#da0081" fill-opacity="1" fill-rule="nonzero" d=" M92.41 0.25 C92.41,0.25 16.22,0.25 16.22,0.25 C7.4,0.25 0.25,7.46 0.25,16.35 C0.25,16.35 0.25,81.6 0.25,81.6 C0.25,90.49 7.4,97.7 16.22,97.7 C16.22,97.7 92.41,97.7 92.41,97.7 C101.23,97.7 108.38,90.49 108.38,81.6 C108.38,81.6 108.38,16.35 108.38,16.35 C108.38,7.46 101.23,0.25 92.41,0.25z "/></g></g><g id="_R_G_L_22_G_M"><g id="_R_G_L_22_G" transform=" translate(780.041, 960) translate(-295.354, -960.25)"><path id="_R_G_L_22_G_D_0_P_0" fill="#fefefe" fill-opacity="1" fill-rule="nonzero" d=" M589.46 0.25 C589.46,0.25 590.46,0.25 590.46,0.25 C590.46,0.25 590.46,1920.25 590.46,1920.25 C590.46,1920.25 589.46,1920.25 589.46,1920.25 C589.46,1920.25 589.46,0.25 589.46,0.25z "/><path id="_R_G_L_22_G_D_1_P_0" fill="#d90181" fill-opacity="1" fill-rule="nonzero" d=" M94.97 1002.78 C94.97,1002.78 14.95,1002.65 14.95,1002.65 C8.29,1002.64 0.63,997.21 0.58,990.31 C0.45,971.62 0.25,953.9 1.28,935.24 C1.59,929.6 8.91,925.09 14.14,925.07 C14.14,925.07 93.82,924.86 93.82,924.86 C99.59,924.84 108.05,929.11 108.34,935.2 C109.27,954.57 109.09,972.95 108.45,992.29 C108.26,997.86 100.63,1002.78 94.97,1002.78z "/></g></g><g id="_R_G_L_21_G_M"><g id="_R_G_L_21_G" transform=" translate(780.028, 960) translate(-295.366, -960.25)"><path id="_R_G_L_21_G_D_0_P_0" fill="#fefefe" fill-opacity="1" fill-rule="nonzero" d=" M589.48 0.25 C589.48,0.25 590.48,0.25 590.48,0.25 C590.48,0.25 590.48,1920.25 590.48,1920.25 C590.48,1920.25 589.48,1920.25 589.48,1920.25 C589.48,1920.25 589.48,0.25 589.48,0.25z "/><path id="_R_G_L_21_G_D_1_P_0" fill="#d90081" fill-opacity="1" fill-rule="nonzero" d=" M108.55 991.97 C108.4,998.2 100.54,1002.81 94.95,1002.8 C94.95,1002.8 14.95,1002.72 14.95,1002.72 C8.89,1002.71 1.01,997.96 0.81,991.36 C0.25,973.01 0.5,955.53 1.31,937.17 C1.55,931.8 8.87,927.32 13.95,927.3 C13.95,927.3 93.93,927.08 93.93,927.08 C99.75,927.07 108.09,931.26 108.39,937.25 C109.31,955.6 109.02,972.86 108.55,991.97z "/></g></g><g id="_R_G_L_20_G_M"><g id="_R_G_L_20_G" transform=" translate(536.703, 938.292) translate(-65.4, -75.192)"><path id="_R_G_L_20_G_D_0_P_0" fill="#d90181" fill-opacity="1" fill-rule="nonzero" d=" M57.94 102.76 C49.74,106.82 37.88,103.86 32.7,96.74 C22,82.04 13.16,67.15 3.92,51.63 C0.25,45.47 1.47,37.06 8.2,33.78 C8.2,33.78 69.09,4.11 69.09,4.11 C77,0.25 87.93,1.87 93.42,8.7 C105.08,23.22 115.56,37.67 125.9,53.03 C130.55,59.93 125.92,69.13 119.02,72.54 C119.02,72.54 57.94,102.76 57.94,102.76z "/><path id="_R_G_L_20_G_D_1_P_0" fill="#af9ecd" fill-opacity="1" fill-rule="nonzero" d=" M117.97 136.38 C117.25,146.61 42.35,150.13 19.93,139.23 C18.58,138.57 17.73,137.38 17.67,136.38 C17.36,131.82 30.79,129.31 35,128.7 C56.87,125.53 78.84,125.54 100.7,128.7 C104.92,129.31 118.29,131.81 117.97,136.38z "/></g></g><g id="_R_G_L_19_G_M"><g id="_R_G_L_19_G" transform=" translate(531.484, 899.084) translate(-58.273, -113.095)"><path id="_R_G_L_19_G_D_0_P_0" fill="#d90181" fill-opacity="1" fill-rule="nonzero" d=" M61.83 108.6 C46.6,103.8 32.92,97.05 18.95,90.42 C9.91,86.13 0.25,77.1 4.24,65.41 C4.24,65.41 19.98,19.21 19.98,19.21 C24.29,6.55 37.49,0.25 50.51,3.07 C66.43,6.52 81.44,9.82 96.88,14.98 C106.55,18.21 114.1,28.75 112.25,38.89 C108.7,58.38 102.39,76.25 96.35,95.03 C89.37,106.81 75.68,112.96 61.83,108.6z "/><path id="_R_G_L_19_G_D_1_P_0" fill="#af9ecd" fill-opacity="1" fill-rule="nonzero" d=" M113.27 212.68 C116.3,225.23 20.53,225.94 18.51,213.43 C17.81,209.11 32.55,206.58 36.4,206.05 C56.11,203.31 75.75,203.32 95.47,206.04 C99.71,206.63 112.36,208.93 113.27,212.68z "/></g></g><g id="_R_G_L_18_G_M"><g id="_R_G_L_18_G" transform=" translate(533.518, 865.523) translate(-56.753, -145.56)"><path id="_R_G_L_18_G_D_0_P_0" fill="#d90181" fill-opacity="1" fill-rule="nonzero" d=" M80.3 107.03 C66.15,110.22 41.34,112.55 27.4,107.45 C20.55,104.94 15.24,100.2 13.23,92.94 C9.56,79.69 5.71,67.25 2.81,53.57 C0.25,41.44 4.49,26.69 15.56,20.02 C28.72,12.09 42.96,7.19 57.91,3.34 C69.92,0.25 84.1,5.75 90.07,16.37 C97.81,30.12 101.43,44.43 106.38,59.2 C113.26,79.75 101.72,102.2 80.3,107.03z "/><path id="_R_G_L_18_G_D_1_P_0" fill="#af9ecd" fill-opacity="1" fill-rule="nonzero" d=" M107 279.52 C106.47,290.71 18.62,290.87 17.8,279.5 C17.52,275.73 28.15,273.56 31.7,273.01 C52.12,269.83 72.61,269.87 93.05,272.98 C96.65,273.53 107.18,275.71 107,279.52z "/></g></g><g id="_R_G_L_17_G_M"><g id="_R_G_L_17_G" transform=" translate(534.176, 837.796) translate(-59.201, -170.939)"><path id="_R_G_L_17_G_D_0_P_0" fill="#d90181" fill-opacity="1" fill-rule="nonzero" d=" M63.62 117.7 C53.75,121.22 38.57,119.99 30.5,110.3 C23.74,102.18 17.25,94.67 11.07,85.81 C2.84,74.02 0.25,57.44 7.02,44.27 C13.2,32.23 22.23,22.66 32.01,13.46 C42.45,3.64 59.01,0.25 71.62,7.31 C83.12,13.74 90.89,23.53 99.91,32.88 C118.15,51.77 117.67,82.56 97.37,99.83 C87.51,108.22 75.64,113.43 63.62,117.7z "/><path id="_R_G_L_17_G_D_1_P_0" fill="#af9fcd" fill-opacity="1" fill-rule="nonzero" d=" M93.64 338.36 C73.47,341.63 53.92,341.56 34.29,338.27 C30.25,337.59 24.12,336.55 22.38,333.01 C21.74,330.39 26.91,328.31 29.37,327.8 C52.08,323.14 75.41,323.11 98.17,327.61 C101.02,328.18 106.32,330 106.1,333.01 C104.17,336.51 98.18,337.62 93.64,338.36z "/></g></g><g id="_R_G_L_16_G_M"><g id="_R_G_L_16_G" transform=" translate(777.384, 960) translate(-298.01, -960.25)"><path id="_R_G_L_16_G_D_0_P_0" fill="#fefefe" fill-opacity="1" fill-rule="nonzero" d=" M594.77 0.25 C594.77,0.25 595.77,0.25 595.77,0.25 C595.77,0.25 595.77,1920.25 595.77,1920.25 C595.77,1920.25 594.77,1920.25 594.77,1920.25 C594.77,1920.25 594.77,0.25 594.77,0.25z "/><path id="_R_G_L_16_G_D_1_P_0" fill="#e053aa" fill-opacity="1" fill-rule="nonzero" d=" M59.24 635.11 C59.24,635.11 74.18,645.97 74.18,645.97 C75.93,646 77.88,644.16 79.01,643.41 C80.27,644.27 81.35,645.08 82.05,645.38 C80.24,646.48 76.67,647.31 75.43,649.45 C75.43,649.45 73.94,674.24 73.94,674.24 C73.94,674.24 92.18,687.39 92.18,687.39 C92.18,687.39 107.24,680.26 107.24,680.26 C107.24,680.26 107.89,683.12 107.89,683.12 C102.87,684.62 98.56,687.61 93.32,690.53 C93.32,690.53 92.33,713.21 92.33,713.21 C92.2,716.38 97.32,717.89 99.24,719.35 C98.34,720.39 97.96,721.83 97.37,722.31 C95.41,721.31 93.07,717.51 90.17,717.83 C82.92,720.06 76.73,724.56 69.67,727.72 C68.94,729.34 66.82,748.24 69,746.3 C69,746.3 65.17,747.98 65.17,747.98 C65.17,747.98 66.39,727.44 66.39,727.44 C66.39,727.44 48.05,714.67 48.05,714.67 C40.74,717.86 34.05,721.27 27.34,725.05 C27.34,725.05 27.26,738.02 27.26,738.02 C26.14,737.09 24.58,737.09 24.31,736.08 C24.31,736.08 25.31,725.09 25.31,725.09 C25.31,725.09 7.63,712.01 7.63,712.01 C6.85,711.43 5.87,711.57 5.32,711.38 C3.93,710.82 3.84,709.86 3.56,709.1 C6.95,708.55 4.04,696.68 5.88,687.85 C6.42,685.28 5.91,682.92 3.48,682.34 C3.96,681.1 4.13,679.95 4.24,679.36 C5.31,680.14 7.13,682.01 8.88,681.1 C8.88,681.1 27.98,671.2 27.98,671.2 C28.7,662.37 29.76,654.18 29.1,645.57 C29.1,645.57 25.23,642.23 25.23,642.23 C26.08,641.83 26.94,640.13 28.2,640.23 C28.89,646.73 45.38,634.8 48.39,633.26 C52.53,632.52 55.92,634.23 59.24,635.11z  M50.43 684.58 C50.43,684.58 71.09,673.71 71.09,673.71 C71.09,673.71 72.6,648.51 72.6,648.51 C72.6,648.51 53.21,634.63 53.21,634.63 C46.6,638.18 40.02,640.9 33.94,644.92 C31.73,646.39 30.75,667.57 31.3,670.95 C31.3,670.95 50.43,684.58 50.43,684.58z  M26.71 721.93 C26.71,721.93 46.38,712.16 46.38,712.16 C47.5,703.79 47.97,695.92 48.19,687.3 C48.19,687.3 29.49,673.75 29.49,673.75 C29.49,673.75 8.37,685.07 8.37,685.07 C8.63,693.2 8.03,700.28 7.09,708.14 C7.09,708.14 26.71,721.93 26.71,721.93z  M89.14 714.51 C90.03,707.92 89.25,702.19 90.42,696.21 C92.22,686.97 85,688.15 75.91,679.61 C73.06,676.94 70.39,677.5 67.27,679.15 C67.27,679.15 55.01,685.63 55.01,685.63 C51.79,687.33 51.15,688.67 51,692.32 C50.73,698.97 49.21,705.34 50.1,712.36 C50.1,712.36 68.07,725.05 68.07,725.05 C75.53,721.98 81.95,718.46 89.14,714.51z "/><path id="_R_G_L_16_G_D_2_P_0" fill="#d90382" fill-opacity="1" fill-rule="nonzero" d=" M65.17 747.98 C51.11,754.15 37.29,746.35 27.26,738.02 C27.26,738.02 27.34,725.05 27.34,725.05 C34.06,721.27 40.74,717.86 48.05,714.67 C48.05,714.67 66.39,727.44 66.39,727.44 C66.39,727.44 65.17,747.98 65.17,747.98z "/><path id="_R_G_L_16_G_D_3_P_0" fill="#af9fcd" fill-opacity="1" fill-rule="nonzero" d=" M92.66 1004.04 C71.59,1008.45 50.55,1008.4 29.73,1004.64 C26.81,1004.12 21.6,1002.9 20.89,1000.15 C20.18,997.47 24.95,995.8 27.22,995.32 C47.91,990.96 69.07,990.98 89.95,994.75 C92.97,995.3 97.85,996.47 98.72,999.32 C99.43,1001.68 95.17,1003.52 92.66,1004.04z "/><path id="_R_G_L_16_G_D_4_P_0" fill="#d90382" fill-opacity="1" fill-rule="nonzero" d=" M107.24 680.26 C107.24,680.26 92.18,687.39 92.18,687.39 C92.18,687.39 73.94,674.24 73.94,674.24 C73.94,674.24 75.43,649.45 75.43,649.45 C76.67,647.31 80.24,646.48 82.05,645.38 C96.2,651.54 104.03,666.1 107.24,680.26z "/><path id="_R_G_L_16_G_D_5_P_0" fill="#d90382" fill-opacity="1" fill-rule="nonzero" d=" M25.23 642.23 C25.23,642.23 29.1,645.57 29.1,645.57 C29.76,654.18 28.7,662.36 27.98,671.2 C27.98,671.2 8.88,681.1 8.88,681.1 C7.13,682.01 5.32,680.14 4.24,679.36 C6.56,667.77 15.96,646.64 25.23,642.23z "/><path id="_R_G_L_16_G_D_6_P_0" fill="#d90382" fill-opacity="1" fill-rule="nonzero" d=" M97.37 722.31 C91.19,731.31 78.85,741.98 69,746.3 C66.82,748.24 68.94,729.34 69.66,727.72 C76.73,724.55 82.92,720.06 90.17,717.83 C93.07,717.51 95.4,721.31 97.37,722.31z "/><path id="_R_G_L_16_G_D_7_P_0" fill="#d90382" fill-opacity="1" fill-rule="nonzero" d=" M107.89 683.12 C110.79,695.92 107.24,709.95 99.24,719.34 C97.31,717.89 92.19,716.38 92.33,713.21 C92.33,713.21 93.32,690.53 93.32,690.53 C98.56,687.61 102.87,684.62 107.89,683.12z "/><path id="_R_G_L_16_G_D_8_P_0" fill="#d90382" fill-opacity="1" fill-rule="nonzero" d=" M24.31 736.08 C17.24,733.56 3.73,717.67 5.32,711.38 C5.87,711.57 6.85,711.43 7.63,712.01 C7.63,712.01 25.31,725.09 25.31,725.09 C25.31,725.09 24.31,736.08 24.31,736.08z "/><path id="_R_G_L_16_G_D_9_P_0" fill="#d90382" fill-opacity="1" fill-rule="nonzero" d=" M3.56 709.1 C0.33,700.12 0.25,690.63 3.47,682.34 C5.91,682.92 6.42,685.28 5.88,687.85 C4.04,696.68 6.95,708.55 3.56,709.1z "/><path id="_R_G_L_16_G_D_10_P_0" fill="#d90382" fill-opacity="1" fill-rule="nonzero" d=" M48.39 633.26 C45.37,634.8 28.89,646.73 28.2,640.23 C33.53,635.28 41.62,633.17 48.39,633.26z "/><path id="_R_G_L_16_G_D_11_P_0" fill="#d90382" fill-opacity="1" fill-rule="nonzero" d=" M79.01 643.41 C77.88,644.16 75.93,646 74.18,645.97 C74.18,645.97 59.24,635.11 59.24,635.11 C66.75,637.09 73.32,639.48 79.01,643.41z "/><path id="_R_G_L_16_G_D_12_P_0" fill="#d90282" fill-opacity="1" fill-rule="nonzero" d=" M50.43 684.58 C50.43,684.58 31.3,670.95 31.3,670.95 C30.75,667.57 31.73,646.39 33.94,644.92 C40.01,640.9 46.6,638.18 53.21,634.63 C53.21,634.63 72.6,648.51 72.6,648.51 C72.6,648.51 71.09,673.71 71.09,673.71 C71.09,673.71 50.43,684.58 50.43,684.58z "/><path id="_R_G_L_16_G_D_13_P_0" fill="#d90282" fill-opacity="1" fill-rule="nonzero" d=" M26.71 721.93 C26.71,721.93 7.09,708.14 7.09,708.14 C8.03,700.29 8.63,693.2 8.37,685.07 C8.37,685.07 29.49,673.75 29.49,673.75 C29.49,673.75 48.19,687.3 48.19,687.3 C47.97,695.92 47.5,703.79 46.38,712.16 C46.38,712.16 26.71,721.93 26.71,721.93z "/><path id="_R_G_L_16_G_D_14_P_0" fill="#d90282" fill-opacity="1" fill-rule="nonzero" d=" M89.14 714.51 C81.95,718.46 75.53,721.98 68.07,725.05 C68.07,725.05 50.1,712.36 50.1,712.36 C49.21,705.34 50.72,698.97 51,692.32 C51.15,688.67 51.79,687.33 55.01,685.63 C55.01,685.63 67.27,679.15 67.27,679.15 C70.39,677.5 73.06,676.94 75.91,679.61 C85,688.15 92.22,686.97 90.42,696.21 C89.25,702.19 90.03,707.92 89.14,714.51z "/></g></g><g id="_R_G_L_15_G_M"><g id="_R_G_L_15_G" transform=" translate(778.567, 960) translate(-296.827, -960.25)"><path id="_R_G_L_15_G_D_0_P_0" fill="#fefefe" fill-opacity="1" fill-rule="nonzero" d=" M592.41 0.25 C592.41,0.25 593.41,0.25 593.41,0.25 C593.41,0.25 593.41,1920.25 593.41,1920.25 C593.41,1920.25 592.41,1920.25 592.41,1920.25 C592.41,1920.25 592.41,0.25 592.41,0.25z "/><path id="_R_G_L_15_G_D_1_P_0" fill="#e277bd" fill-opacity="1" fill-rule="nonzero" d=" M64.91 607.41 C64.7,610.14 66.05,612.35 68.89,613.43 C74.05,615.4 86.89,621.92 88.81,620.15 C89.52,621.07 90.82,621.2 90.72,622.1 C87.35,620.23 91.99,646.01 92.91,648.15 C95.49,651.18 101.54,652.71 105.12,653.33 C105.12,653.33 105.57,658.06 105.57,658.06 C105.57,658.06 94.54,653.29 94.54,653.29 C92.89,652.57 90.38,653.02 88.97,654.36 C88.97,654.36 74.6,668.04 74.6,668.04 C72.61,669.93 76.31,689.92 77.44,693.77 C83.05,694.93 89.43,700.02 92.83,698.24 C92.83,698.24 89.81,702.28 89.81,702.28 C85.45,700.26 81.17,698.1 75.73,696.69 C70.05,701.64 64.25,706.16 59.09,711.57 C56.8,713.98 59.7,718.66 59.78,721.11 C58.3,721.3 57.61,721.23 56.75,721.25 C56.27,718.38 56.47,715.34 54.96,712.17 C54.96,712.17 34.88,703.92 34.88,703.92 C31.3,706.37 28.11,708.89 25.93,712.06 C25.93,712.06 22.86,710.25 22.86,710.25 C24.95,707.02 29.94,705.91 31.59,701.86 C33.29,697.68 30.97,692.7 30.4,688.18 C29.95,684.65 30.35,679.03 27.7,676.69 C21.06,673.15 14.14,670.48 7.28,668.08 C5.15,669.09 3.42,671.9 1.41,672.18 C1.36,670.43 1.38,669.33 1.24,668.39 C8.56,668.06 3.75,652.02 2.38,650.14 C2.84,646.89 2.94,644.76 4.2,642.43 C5.91,642.29 7.08,660.88 8.53,664.54 C8.53,664.54 29.42,673.41 29.42,673.41 C33.63,670.56 36.51,667.57 39.85,664.1 C41.85,662.03 46.15,660.32 47.17,657.18 C47.17,657.18 43.71,631.73 43.71,631.73 C43.71,631.73 25.72,624.16 25.72,624.16 C22.39,622.76 20.57,624.6 18.51,626.8 C14.45,631.12 9.99,634.83 5.45,638 C5.51,636.49 7.52,633.34 8.13,631.91 C11.74,629.72 14.21,626.03 17.93,623.33 C20.4,621.54 21.5,618.67 19.96,616.25 C21.38,615.68 21.53,613.12 23.03,613.33 C23,614.44 22.15,618.23 23.93,619.21 C30.79,622.99 38.07,625.59 45.35,628.59 C50.98,622.67 56.27,618.16 61.89,613.16 C63.81,611.45 62.56,608.38 62.1,606.59 C63.43,606.96 64.27,607.29 64.91,607.41z  M71.68 665.93 C78.53,660.76 83.8,655.36 89.62,649.27 C89.62,649.27 85.93,624.12 85.93,624.12 C78.69,621.66 72.3,617.46 64.91,615.83 C62.06,615.49 59.95,619.98 58.15,621.39 C53.84,624.76 49.8,627.67 46.8,632.06 C46.8,632.06 50.71,657.26 50.71,657.26 C50.71,657.26 71.68,665.93 71.68,665.93z  M72.47 684.01 C71.71,679.19 72.15,672.71 69.39,668.91 C63.34,665.13 56.42,663.45 49.73,660.28 C49.73,660.28 31.63,676.3 31.63,676.3 C31.63,676.3 35.67,700.29 35.67,700.29 C42.52,704.09 49.29,706.64 56.93,708.9 C72.79,693.24 74.9,699.49 72.47,684.01z "/><path id="_R_G_L_15_G_D_2_P_0" fill="#d90382" fill-opacity="1" fill-rule="nonzero" d=" M4.2 642.43 C5.03,640.93 5.4,638.96 5.45,638 C9.99,634.83 14.45,631.12 18.51,626.8 C20.58,624.6 22.39,622.76 25.72,624.16 C25.72,624.16 43.71,631.73 43.71,631.73 C43.71,631.73 47.17,657.18 47.17,657.18 C46.15,660.32 41.85,662.03 39.86,664.1 C36.51,667.57 33.63,670.56 29.43,673.41 C29.43,673.41 8.53,664.54 8.53,664.54 C7.08,660.88 5.91,642.29 4.2,642.43z "/><path id="_R_G_L_15_G_D_3_P_0" fill="#d90382" fill-opacity="1" fill-rule="nonzero" d=" M105.57 658.06 C106.98,673.13 101.22,686.99 92.83,698.24 C89.43,700.02 83.05,694.93 77.44,693.77 C76.32,689.92 72.61,669.93 74.6,668.04 C74.6,668.04 88.97,654.35 88.97,654.35 C90.38,653.02 92.89,652.57 94.54,653.29 C94.54,653.29 105.57,658.06 105.57,658.06z "/><path id="_R_G_L_15_G_D_4_P_0" fill="#b09fcd" fill-opacity="1" fill-rule="nonzero" d=" M85.7 1004.31 C66.96,1007.77 48.64,1007.73 30.32,1004.51 C27.3,1003.98 22.4,1003.06 21.29,1000.02 C20.5,997.85 25.14,996.06 27.18,995.65 C47.17,991.56 67.6,991.49 87.59,995.62 C89.85,996.08 94.24,997.58 93.59,1000.11 C92.94,1002.65 88.66,1003.76 85.7,1004.31z "/><path id="_R_G_L_15_G_D_5_P_0" fill="#d90382" fill-opacity="1" fill-rule="nonzero" d=" M22.87 710.25 C9.5,702.36 1.81,686.93 1.41,672.18 C3.42,671.9 5.15,669.09 7.28,668.07 C14.14,670.48 21.06,673.15 27.7,676.69 C30.35,679.03 29.95,684.65 30.4,688.18 C30.97,692.7 33.29,697.68 31.59,701.86 C29.94,705.91 24.95,707.02 22.87,710.25z "/><path id="_R_G_L_15_G_D_6_P_0" fill="#d90382" fill-opacity="1" fill-rule="nonzero" d=" M62.1 606.59 C62.56,608.38 63.81,611.45 61.89,613.16 C56.27,618.16 50.98,622.67 45.35,628.59 C38.07,625.59 30.79,622.99 23.94,619.21 C22.16,618.23 23,614.44 23.03,613.33 C32.91,604.39 50.88,603.54 62.1,606.59z "/><path id="_R_G_L_15_G_D_7_P_0" fill="#da0784" fill-opacity="1" fill-rule="nonzero" d=" M89.81 702.28 C82.21,712.46 71.77,719.62 59.78,721.11 C59.7,718.66 56.8,713.98 59.09,711.57 C64.25,706.16 70.05,701.64 75.73,696.69 C81.17,698.1 85.45,700.26 89.81,702.28z "/><path id="_R_G_L_15_G_D_8_P_0" fill="#da0784" fill-opacity="1" fill-rule="nonzero" d=" M56.75 721.25 C45.54,721.5 34.84,717.32 25.93,712.06 C28.12,708.89 31.3,706.37 34.88,703.92 C34.88,703.92 54.96,712.17 54.96,712.17 C56.47,715.34 56.27,718.38 56.75,721.25z "/><path id="_R_G_L_15_G_D_9_P_0" fill="#da0784" fill-opacity="1" fill-rule="nonzero" d=" M105.12 653.33 C101.54,652.71 95.49,651.18 92.91,648.15 C91.99,646.01 87.35,620.23 90.72,622.1 C99.74,630.03 104.07,642.12 105.12,653.33z "/><path id="_R_G_L_15_G_D_10_P_0" fill="#da0784" fill-opacity="1" fill-rule="nonzero" d=" M88.81 620.15 C86.89,621.92 74.04,615.4 68.89,613.43 C66.05,612.35 64.7,610.14 64.91,607.41 C74.49,609.07 83.39,613.18 88.81,620.15z "/><path id="_R_G_L_15_G_D_11_P_0" fill="#da0784" fill-opacity="1" fill-rule="nonzero" d=" M19.96 616.25 C21.5,618.67 20.4,621.54 17.93,623.33 C14.22,626.03 11.75,629.72 8.13,631.91 C10.02,627.46 15.15,618.18 19.96,616.25z "/><path id="_R_G_L_15_G_D_12_P_0" fill="#da0784" fill-opacity="1" fill-rule="nonzero" d=" M1.24 668.39 C0.25,661.63 1.57,655.9 2.38,650.13 C3.76,652.02 8.56,668.06 1.24,668.39z "/><path id="_R_G_L_15_G_D_13_P_0" fill="#d90382" fill-opacity="1" fill-rule="nonzero" d=" M71.68 665.93 C71.68,665.93 50.71,657.26 50.71,657.26 C50.71,657.26 46.8,632.06 46.8,632.06 C49.8,627.67 53.84,624.76 58.15,621.39 C59.95,619.98 62.06,615.49 64.91,615.83 C72.3,617.46 78.69,621.66 85.93,624.12 C85.93,624.12 89.62,649.27 89.62,649.27 C83.8,655.36 78.53,660.76 71.68,665.93z "/><path id="_R_G_L_15_G_D_14_P_0" fill="#d90382" fill-opacity="1" fill-rule="nonzero" d=" M72.47 684.01 C74.9,699.49 72.79,693.24 56.93,708.9 C49.29,706.64 42.52,704.09 35.68,700.29 C35.68,700.29 31.63,676.3 31.63,676.3 C31.63,676.3 49.73,660.28 49.73,660.28 C56.42,663.45 63.34,665.13 69.39,668.91 C72.15,672.71 71.71,679.19 72.47,684.01z "/></g></g><g id="_R_G_L_14_G_M"><g id="_R_G_L_14_G" transform=" translate(778.921, 960) translate(-296.473, -960.25)"><path id="_R_G_L_14_G_D_0_P_0" fill="#fefefe" fill-opacity="1" fill-rule="nonzero" d=" M591.7 0.25 C591.7,0.25 592.7,0.25 592.7,0.25 C592.7,0.25 592.7,1920.25 592.7,1920.25 C592.7,1920.25 591.7,1920.25 591.7,1920.25 C591.7,1920.25 591.7,0.25 591.7,0.25z "/><path id="_R_G_L_14_G_D_1_P_0" fill="#e48ac6" fill-opacity="1" fill-rule="nonzero" d=" M44.08 584.5 C43.15,586.18 42.59,588.46 43.3,590.76 C43.3,590.76 50.02,612.27 50.02,612.27 C50.02,612.27 71.92,617.44 71.92,617.44 C77.5,610.61 82.84,604.41 87.23,597.51 C87.23,597.51 89.86,600.25 89.86,600.25 C84.85,606.26 78.31,612.69 74.86,620.21 C75.42,628.05 79.13,636.48 81.41,643.74 C83.64,645.27 103.07,649.74 104.17,648.46 C104.17,648.46 103.33,653.25 103.33,653.25 C96.25,650.71 89.17,649.73 80.61,647.79 C76.3,654.31 69.74,660.34 66.19,667.09 C66.86,675.18 70.68,683.06 72.57,690.62 C74.04,692.34 77.38,692.3 78.9,692.88 C77.75,693.62 76.96,694.34 76.22,694.96 C74.92,694.24 73.07,694.25 71.38,694.97 C70.43,695.38 69.84,696.93 69.46,698.12 C67.37,699.55 66.21,699.43 64.38,699.87 C64.38,699.87 69.84,691.41 69.84,691.41 C69.84,691.41 62.52,668.03 62.52,668.03 C62.52,668.03 40.56,663 40.56,663 C40.56,663 25.84,682.13 25.84,682.13 C25.84,682.13 29.26,695.21 29.26,695.21 C29.26,695.21 26.07,693.06 26.07,693.06 C24.72,690.39 25.08,686.25 22.76,683.77 C20.62,681.5 16.02,681.52 13.28,681.33 C13.28,681.33 10.4,677.38 10.4,677.38 C10.4,677.38 23.55,679.93 23.55,679.93 C23.55,679.93 38.49,661.13 38.49,661.13 C38.49,661.13 31.04,636.58 31.04,636.58 C24.87,634.4 19.05,633.7 13.1,632 C5.31,629.77 6.22,637.94 0.73,640.24 C0.78,637.72 0.25,635.85 1.25,634.45 C3.14,633.64 5.49,631.64 5.95,629.06 C6.51,625.86 4.87,622.55 3.61,620.18 C4.1,618.24 4.92,617.38 5.32,616.28 C5.32,616.28 9.65,627.75 9.65,627.75 C9.65,627.75 31.55,632.65 31.55,632.65 C31.55,632.65 46.76,613.04 46.76,613.04 C46.76,613.04 39.76,588.78 39.76,588.78 C39.76,588.78 34.31,586.98 34.31,586.98 C37.07,584.42 40.84,584.3 44.08,584.5z  M66.06 661.42 C66.06,661.42 78.22,645.33 78.22,645.33 C78.22,645.33 70.88,620.51 70.88,620.51 C70.88,620.51 48.89,615.42 48.89,615.42 C48.89,615.42 33.82,635.18 33.82,635.18 C33.82,635.18 41.11,659.19 41.11,659.19 C47.17,661.44 53.12,662.01 59,663.8 C61.83,664.66 63.94,664.23 66.06,661.42z "/><path id="_R_G_L_14_G_D_2_P_0" fill="#d90482" fill-opacity="1" fill-rule="nonzero" d=" M10.4 677.38 C2.46,666.48 0.48,652.95 0.73,640.24 C6.22,637.93 5.31,629.77 13.1,632 C19.05,633.69 24.87,634.4 31.04,636.58 C31.04,636.58 38.49,661.13 38.49,661.13 C38.49,661.13 23.55,679.93 23.55,679.93 C23.55,679.93 10.4,677.38 10.4,677.38z "/><path id="_R_G_L_14_G_D_3_P_0" fill="#d90482" fill-opacity="1" fill-rule="nonzero" d=" M34.31 586.98 C34.31,586.98 39.76,588.78 39.76,588.78 C39.76,588.78 46.76,613.04 46.76,613.04 C46.76,613.04 31.55,632.65 31.55,632.65 C31.55,632.65 9.65,627.75 9.65,627.75 C9.65,627.75 5.32,616.28 5.32,616.28 C10.35,602.49 20.92,590.59 34.31,586.98z "/><path id="_R_G_L_14_G_D_4_P_0" fill="#d90482" fill-opacity="1" fill-rule="nonzero" d=" M64.38 699.87 C52.27,702.76 38.74,701.64 29.26,695.21 C29.26,695.21 25.84,682.13 25.84,682.13 C25.84,682.13 40.56,663 40.56,663 C40.56,663 62.53,668.03 62.53,668.03 C62.53,668.03 69.84,691.4 69.84,691.4 C69.84,691.4 64.38,699.87 64.38,699.87z "/><path id="_R_G_L_14_G_D_5_P_0" fill="#d90482" fill-opacity="1" fill-rule="nonzero" d=" M103.34 653.25 C100.51,669.47 91.93,684.51 78.9,692.88 C77.38,692.3 74.04,692.34 72.57,690.62 C70.68,683.06 66.86,675.18 66.19,667.09 C69.74,660.34 76.3,654.31 80.61,647.79 C89.17,649.73 96.25,650.71 103.34,653.25z "/><path id="_R_G_L_14_G_D_6_P_0" fill="#d90483" fill-opacity="1" fill-rule="nonzero" d=" M87.23 597.51 C82.84,604.41 77.5,610.61 71.92,617.44 C71.92,617.44 50.02,612.27 50.02,612.27 C50.02,612.27 43.3,590.76 43.3,590.76 C42.59,588.46 43.15,586.18 44.07,584.5 C60.02,581.7 76.37,586.19 87.23,597.51z "/><path id="_R_G_L_14_G_D_7_P_0" fill="#d90483" fill-opacity="1" fill-rule="nonzero" d=" M104.17 648.46 C103.07,649.74 83.64,645.27 81.41,643.75 C79.13,636.48 75.42,628.05 74.86,620.21 C78.3,612.69 84.85,606.26 89.86,600.25 C102.22,613.12 107.09,631.7 104.17,648.46z "/><path id="_R_G_L_14_G_D_8_P_0" fill="#b09fcd" fill-opacity="1" fill-rule="nonzero" d=" M85.07 1003.55 C66.92,1007.32 48.91,1007.26 31.05,1004.1 C28.52,1003.66 24.25,1002.61 23.48,1000.21 C22.72,997.87 26.82,996.44 28.83,996.02 C46.48,992.28 64.45,992.35 82.26,995.46 C85.02,995.94 89.04,996.81 90.12,999.48 C90.85,1001.28 87.27,1003.09 85.07,1003.55z "/><path id="_R_G_L_14_G_D_9_P_0" fill="#d90483" fill-opacity="1" fill-rule="nonzero" d=" M26.07 693.06 C20.86,689.52 16.58,685.86 13.28,681.33 C16.02,681.52 20.62,681.5 22.76,683.77 C25.08,686.25 24.72,690.39 26.07,693.06z "/><path id="_R_G_L_14_G_D_10_P_0" fill="#d90483" fill-opacity="1" fill-rule="nonzero" d=" M1.25 634.45 C0.89,628.92 2.48,624.6 3.61,620.18 C4.87,622.55 6.51,625.86 5.95,629.06 C5.49,631.64 3.14,633.64 1.25,634.45z "/><path id="_R_G_L_14_G_D_11_P_0" fill="#d90483" fill-opacity="1" fill-rule="nonzero" d=" M76.22 694.96 C73.93,696.91 71.19,696.94 69.46,698.12 C69.84,696.93 70.43,695.38 71.38,694.97 C73.07,694.25 74.92,694.24 76.22,694.96z "/><path id="_R_G_L_14_G_D_12_P_0" fill="#d90482" fill-opacity="1" fill-rule="nonzero" d=" M66.06 661.42 C63.94,664.23 61.83,664.66 59,663.8 C53.12,662 47.17,661.44 41.11,659.19 C41.11,659.19 33.82,635.18 33.82,635.18 C33.82,635.18 48.89,615.42 48.89,615.42 C48.89,615.42 70.88,620.51 70.88,620.51 C70.88,620.51 78.22,645.33 78.22,645.33 C78.22,645.33 66.06,661.42 66.06,661.42z "/></g></g><g id="_R_G_L_13_G_M"><g id="_R_G_L_13_G" transform=" translate(778.659, 960) translate(-296.735, -960.25)"><path id="_R_G_L_13_G_D_0_P_0" fill="#fefefe" fill-opacity="1" fill-rule="nonzero" d=" M592.22 0.25 C592.22,0.25 593.22,0.25 593.22,0.25 C593.22,0.25 593.22,1920.25 593.22,1920.25 C593.22,1920.25 592.22,1920.25 592.22,1920.25 C592.22,1920.25 592.22,0.25 592.22,0.25z "/><path id="_R_G_L_13_G_D_1_P_0" fill="#e593ca" fill-opacity="1" fill-rule="nonzero" d=" M45.53 569.57 C45.59,572.63 46.53,578.49 50.06,579.77 C56.76,582.19 63.81,580.83 70.75,582.81 C73.25,579.89 74.6,577.42 75.81,574.61 C75.81,574.61 78.65,576.29 78.65,576.29 C78.65,576.29 73.52,585.02 73.52,585.02 C73.52,585.02 83.02,607.76 83.02,607.76 C89.9,609.82 96.39,609.62 102.8,610.22 C104.24,611.56 103.33,613.08 103.62,614.16 C103.62,614.16 82.81,612.02 82.81,612.02 C79.18,616.81 76.85,621.61 73.72,626.42 C72.06,628.98 69.26,631.77 70.55,635.24 C73.35,642.81 76.17,650.12 79.4,657.36 C86.05,657.87 91.74,658.06 97.41,659.14 C97.41,659.14 95.66,662.33 95.66,662.33 C90.92,660.26 85.71,661.58 78.79,660.15 C78.79,660.15 65.95,680.74 65.95,680.74 C65.14,682.37 66.72,684.45 66.6,685.88 C65.31,686.2 64.76,686.82 63.9,686.96 C64.1,685.96 64.02,684.9 63.54,684.06 C62.99,683.1 61.98,682.59 60.57,682.45 C60.57,682.45 43.7,680.75 43.7,680.75 C40.33,680.41 37.96,682.02 37.74,685.08 C37.74,685.08 34.77,684.08 34.77,684.08 C35.27,681.99 36.87,680.46 37.91,678.03 C37.91,678.03 28.65,655.12 28.65,655.12 C28.65,655.12 5.73,652.34 5.73,652.34 C2.82,648.74 3.29,644.35 2.39,640.53 C4.4,642.67 4.64,645.83 6.51,648.91 C6.51,648.91 28.53,651.61 28.53,651.61 C28.53,651.61 42.3,631.01 42.3,631.01 C42.57,631.55 43.28,631.84 43.7,632.24 C43.7,632.24 31.82,653.58 31.82,653.58 C33.18,661.25 38.01,669.41 40.83,676.91 C40.83,676.91 57.24,678.99 57.24,678.99 C60.65,679.42 63.13,679.59 65.05,676.44 C65.05,676.44 76.22,658.13 76.22,658.13 C76.22,658.13 66.88,635.21 66.88,635.21 C65.11,633.43 61.65,634.09 59.81,633.26 C59.77,632.72 59.78,632.15 59.65,631.8 C59.4,631.15 58.78,630.95 58.24,631.26 C57.58,631.62 57.17,632.48 57.59,633.13 C54.22,632.23 50.17,634.34 47.56,631.52 C48.77,630.88 56.7,632.03 55.72,630.14 C59.52,629.17 63.24,630.93 67.6,630.39 C67.6,630.39 80.27,609.87 80.27,609.87 C80.27,609.87 70.78,585.79 70.78,585.79 C70.78,585.79 48.06,583.02 48.06,583.02 C44.39,590.76 38.33,596.8 35.78,604.38 C36.36,611.59 41.45,618.47 43.21,625.42 C44.69,631.29 51.99,626.06 50.72,630.25 C40.95,630.8 45.67,625.16 42.24,629.42 C42.24,629.42 32.49,606.58 32.49,606.58 C24.92,605 17.51,604.61 9.74,604.09 C6.89,607.93 5.52,612.17 2.34,615.01 C3.58,608.37 4.62,601.94 8.75,597.17 C7.46,602.23 28.16,601.77 32.64,602.45 C32.64,602.45 45.79,581.34 45.79,581.34 C45.79,581.34 41.91,570.64 41.91,570.64 C43.52,570.31 44.39,569.16 45.53,569.57z "/><path id="_R_G_L_13_G_D_2_P_0" fill="#d90483" fill-opacity="1" fill-rule="nonzero" d=" M42.23 629.42 C42.36,629.89 42.09,630.57 42.3,631.01 C42.3,631.01 28.53,651.61 28.53,651.61 C28.53,651.61 6.51,648.91 6.51,648.91 C4.64,645.83 4.4,642.67 2.39,640.53 C0.25,631.35 0.81,623.18 2.34,615.01 C5.52,612.17 6.89,607.93 9.73,604.09 C17.51,604.61 24.92,605 32.49,606.58 C32.49,606.58 42.23,629.42 42.23,629.42z "/><path id="_R_G_L_13_G_D_3_P_0" fill="#d90483" fill-opacity="1" fill-rule="nonzero" d=" M103.62 614.16 C107.77,629.48 104.69,645.86 97.4,659.14 C91.74,658.06 86.05,657.87 79.4,657.36 C76.17,650.12 73.36,642.81 70.55,635.24 C69.26,631.77 72.06,628.98 73.72,626.42 C76.85,621.61 79.18,616.81 82.81,612.02 C82.81,612.02 103.62,614.16 103.62,614.16z "/><path id="_R_G_L_13_G_D_4_P_0" fill="#d90483" fill-opacity="1" fill-rule="nonzero" d=" M41.91 570.64 C41.91,570.64 45.79,581.34 45.79,581.34 C45.79,581.34 32.64,602.45 32.64,602.45 C28.16,601.77 7.46,602.23 8.75,597.17 C15.26,583.34 27.73,573.51 41.91,570.64z "/><path id="_R_G_L_13_G_D_5_P_0" fill="#b09fcd" fill-opacity="1" fill-rule="nonzero" d=" M85.45 1002.66 C66.91,1007.17 47.54,1007.04 29.38,1002.71 C27.93,1002.37 26.57,1000.65 26.6,999.75 C26.64,998.85 28.1,997.28 29.54,996.94 C47.86,992.64 67.42,992.52 85.65,997.15 C86.99,997.49 88.1,998.98 88.15,999.76 C88.2,1000.53 87.17,1002.24 85.45,1002.66z "/><path id="_R_G_L_13_G_D_6_P_0" fill="#da0784" fill-opacity="1" fill-rule="nonzero" d=" M34.78 684.08 C20.25,679.23 9.95,666.19 5.73,652.34 C5.73,652.34 28.65,655.12 28.65,655.12 C28.65,655.12 37.91,678.03 37.91,678.03 C36.87,680.46 35.27,682 34.78,684.08z "/><path id="_R_G_L_13_G_D_7_P_0" fill="#da0784" fill-opacity="1" fill-rule="nonzero" d=" M102.8 610.22 C96.39,609.62 89.9,609.82 83.02,607.76 C83.02,607.76 73.52,585.02 73.52,585.02 C73.52,585.02 78.65,576.29 78.65,576.29 C91.35,583.84 99.68,596.62 102.8,610.22z "/><path id="_R_G_L_13_G_D_8_P_0" fill="#da0784" fill-opacity="1" fill-rule="nonzero" d=" M95.66 662.33 C89.27,673.99 78.78,682.89 66.6,685.88 C66.72,684.45 65.14,682.37 65.95,680.74 C65.95,680.74 78.79,660.15 78.79,660.15 C85.71,661.58 90.92,660.26 95.66,662.33z "/><path id="_R_G_L_13_G_D_9_P_0" fill="#da0784" fill-opacity="1" fill-rule="nonzero" d=" M75.81 574.61 C74.6,577.42 73.25,579.89 70.75,582.81 C63.81,580.83 56.76,582.19 50.05,579.77 C46.53,578.49 45.59,572.63 45.53,569.57 C56.54,568.13 67.01,569.39 75.81,574.61z "/><path id="_R_G_L_13_G_D_10_P_0" fill="#da0784" fill-opacity="1" fill-rule="nonzero" d=" M63.9 686.96 C54.54,688.41 45.85,687.79 37.74,685.08 C37.96,682.02 40.33,680.41 43.7,680.75 C43.7,680.75 60.57,682.45 60.57,682.45 C61.98,682.59 62.99,683.1 63.54,684.06 C64.02,684.9 64.1,685.97 63.9,686.96z "/><path id="_R_G_L_13_G_D_11_P_0" fill="#d90483" fill-opacity="1" fill-rule="nonzero" d=" M55.72 630.14 C54.15,630.54 52.33,630.16 50.72,630.25 C51.99,626.06 44.69,631.29 43.21,625.43 C41.45,618.47 36.36,611.59 35.78,604.38 C38.33,596.8 44.39,590.76 48.05,583.02 C48.05,583.02 70.78,585.79 70.78,585.79 C70.78,585.79 80.27,609.88 80.27,609.88 C80.27,609.88 67.6,630.39 67.6,630.39 C63.24,630.93 59.52,629.17 55.72,630.14z "/><path id="_R_G_L_13_G_D_12_P_0" fill="#d90483" fill-opacity="1" fill-rule="nonzero" d=" M47.56 631.52 C50.17,634.34 54.22,632.23 57.59,633.13 C58.3,633.32 59.09,633.12 59.81,633.26 C61.65,634.09 65.11,633.43 66.88,635.21 C66.88,635.21 76.23,658.13 76.23,658.13 C76.23,658.13 65.06,676.44 65.06,676.44 C63.13,679.59 60.65,679.42 57.24,678.99 C57.24,678.99 40.83,676.91 40.83,676.91 C38.01,669.41 33.18,661.25 31.82,653.58 C31.82,653.58 43.7,632.24 43.7,632.24 C44.23,631.28 46.74,630.64 47.56,631.52z "/><path id="_R_G_L_13_G_D_13_P_0" fill="#e593ca" fill-opacity="1" fill-rule="nonzero" d=" M50.72 630.25 C52.33,630.16 54.15,630.54 55.72,630.14 C56.7,632.03 48.77,630.88 47.56,631.52 C46.74,630.64 44.23,631.28 43.7,632.24 C43.28,631.84 42.57,631.55 42.3,631.01 C42.09,630.57 42.36,629.89 42.24,629.42 C45.67,625.16 40.95,630.8 50.72,630.25z "/><path id="_R_G_L_13_G_D_14_P_0" fill="#e593ca" fill-opacity="1" fill-rule="nonzero" d=" M59.81 633.26 C59.09,633.12 58.3,633.32 57.59,633.13 C57.17,632.48 57.58,631.62 58.24,631.26 C58.78,630.95 59.4,631.15 59.65,631.8 C59.78,632.15 59.77,632.72 59.81,633.26z "/></g></g><g id="_R_G_L_12_G_M"><g id="_R_G_L_12_G" transform=" translate(778.78, 960) translate(-296.614, -960.25)"><path id="_R_G_L_12_G_D_0_P_0" fill="#fefefe" fill-opacity="1" fill-rule="nonzero" d=" M591.98 0.25 C591.98,0.25 592.98,0.25 592.98,0.25 C592.98,0.25 592.98,1920.25 592.98,1920.25 C592.98,1920.25 591.98,1920.25 591.98,1920.25 C591.98,1920.25 591.98,0.25 591.98,0.25z "/><path id="_R_G_L_12_G_D_1_P_0" fill="#d90382" fill-opacity="1" fill-rule="nonzero" d=" M1.08 618.48 C0.97,606.82 4.53,596.65 9.54,587.29 C17.01,586.94 24.44,587.62 32.38,588.13 C32.38,588.13 40.59,606.19 40.59,606.19 C41.52,608.24 42.81,610.78 41.66,613.02 C38.07,620 34.67,626.67 30.65,633.36 C30.65,633.36 8.45,632.55 8.45,632.55 C8.45,632.55 1.08,618.48 1.08,618.48z "/><path id="_R_G_L_12_G_D_2_P_0" fill="#d90382" fill-opacity="1" fill-rule="nonzero" d=" M98.14 590.96 C106.08,605.03 106.54,621.41 103.18,636.39 C96.18,636.26 89.07,636.55 81.4,635.49 C77.09,628.98 73.92,617.26 69.69,612.36 C70.24,612.18 70.23,611.91 69.8,611.57 C70.22,611.98 70.66,611.66 70.99,611.06 C70.99,611.06 82.2,590.41 82.2,590.41 C82.2,590.41 98.14,590.96 98.14,590.96z "/><path id="_R_G_L_12_G_D_3_P_0" fill="#e595cb" fill-opacity="1" fill-rule="nonzero" d=" M73.43 566.02 C74.05,571.29 79.58,579.52 81.88,586.03 C83.94,586.4 96.36,588.74 95.48,586.26 C95.48,586.26 98.14,590.96 98.14,590.96 C98.14,590.96 82.2,590.41 82.2,590.41 C82.2,590.41 70.99,611.06 70.99,611.06 C70.66,611.66 70.22,611.98 69.8,611.56 C70.01,611.31 47.31,610.45 50.48,612.37 C49.92,612.47 49.23,612.07 48.69,612.25 C48.81,611.44 48.83,610.63 48.72,609.82 C54.82,609.61 60.93,608.91 67.79,610.04 C67.79,610.04 80.06,588.31 80.06,588.31 C80.06,588.31 69.02,565.42 69.02,565.42 C61.66,564.23 54.45,564.54 46.8,564.25 C46.8,564.25 34.18,586.2 34.18,586.2 C34.18,586.2 45.28,609.39 45.28,609.39 C43.86,610.27 44.9,612.07 44.53,613.2 C41.99,620.87 37.07,627.55 33.28,635.24 C33.28,635.24 43.65,658.11 43.65,658.11 C46.26,659.11 48.87,657.61 50.67,659.32 C48.92,659.27 46.53,662.02 44.14,659.08 C42.21,658.91 41.72,660.75 43.72,661.52 C43.72,661.52 35.62,677.07 35.62,677.07 C35.62,677.07 31.43,675.28 31.43,675.28 C33.36,675.07 33.83,673.2 34.81,671.43 C34.81,671.43 41.11,660.05 41.11,660.05 C41.11,660.05 30.58,637.25 30.58,637.25 C23.07,636.56 15.99,635.41 8.78,636.57 C6.3,636.97 5.76,640.79 4.45,642.14 C3.9,640.31 3.44,638.71 2.95,637.39 C4.12,637.06 4.67,636.06 5,635.28 C5.88,633.21 2.71,626.65 1.1,626.29 C0.25,622.89 1.1,620.94 1.08,618.48 C1.08,618.48 8.45,632.55 8.45,632.55 C8.45,632.55 30.65,633.36 30.65,633.36 C34.68,626.67 38.07,620 41.66,613.02 C42.81,610.78 41.52,608.24 40.59,606.19 C40.59,606.19 32.38,588.13 32.38,588.13 C24.44,587.62 17.01,586.94 9.54,587.29 C10.57,585.38 10.87,583.8 12.52,583.25 C13.5,584.94 15.95,584.22 17.64,584.26 C22.39,584.35 27.01,585.04 32.38,584.26 C32.38,584.26 43.8,562.24 43.8,562.24 C53.84,559.51 65.2,560.36 73.43,566.02z "/><path id="_R_G_L_12_G_D_4_P_0" fill="#d90382" fill-opacity="1" fill-rule="nonzero" d=" M31.43 675.28 C17.47,669.32 8.62,655.91 4.45,642.14 C5.76,640.79 6.3,636.97 8.78,636.57 C15.99,635.41 23.07,636.56 30.58,637.25 C30.58,637.25 41.11,660.05 41.11,660.05 C41.11,660.05 34.81,671.43 34.81,671.43 C33.83,673.2 33.36,675.07 31.43,675.28z "/><path id="_R_G_L_12_G_D_5_P_0" fill="#d90382" fill-opacity="1" fill-rule="nonzero" d=" M102.34 640.12 C99.58,652.43 86.17,671.83 74.68,674.49 C73.56,670.71 71.89,666.99 69.29,664.01 C69.06,662.48 69.07,660.92 68.75,659.4 C73.7,654.79 76.54,645.06 81.53,639.18 C88.79,639.38 95.75,638.84 102.34,640.12z "/><path id="_R_G_L_12_G_D_6_P_0" fill="#da0583" fill-opacity="1" fill-rule="nonzero" d=" M51.27 662.21 C53.84,663.2 57.03,664.37 59.58,662.43 C62,663.57 65.83,661.44 67.54,664.24 C68.46,668.46 70.85,672.1 72.43,676.08 C60.97,682.36 47,681.92 35.62,677.06 C35.62,677.06 43.72,661.52 43.72,661.52 C46.07,661.91 49,661.51 51.27,662.21z "/><path id="_R_G_L_12_G_D_7_P_0" fill="#b0a0ce" fill-opacity="1" fill-rule="nonzero" d=" M82.93 1002.41 C66.13,1006.56 48.62,1006.4 32.07,1002.66 C30.72,1002.35 29.35,1001.36 29.07,1000.51 C28.76,999.56 30.04,997.7 31.64,997.31 C48.19,993.27 65.81,993.36 82.44,997.24 C83.6,997.51 84.47,998.67 84.94,999.11 C85.54,999.67 84.77,1001.96 82.93,1002.41z "/><path id="_R_G_L_12_G_D_8_P_0" fill="#d90382" fill-opacity="1" fill-rule="nonzero" d=" M43.8 562.24 C43.8,562.24 32.38,584.26 32.38,584.26 C27.01,585.04 22.39,584.35 17.65,584.26 C18.23,582.96 16.86,582.23 16,582.19 C15.02,582.13 14.26,582.12 13.48,582.16 C20.53,571.4 31.8,564.02 43.8,562.24z "/><path id="_R_G_L_12_G_D_9_P_0" fill="#e595cb" fill-opacity="1" fill-rule="nonzero" d=" M69.69 612.36 C73.92,617.26 77.09,628.98 81.4,635.49 C89.07,636.55 96.18,636.26 103.18,636.39 C103.18,636.39 102.34,640.12 102.34,640.12 C95.75,638.84 88.79,639.38 81.53,639.18 C76.54,645.06 73.7,654.79 68.75,659.4 C68.63,658.84 68.03,658.41 67.49,658.38 C70.03,650.99 74.71,645.05 78.49,636.95 C74.12,629.31 72.22,620.2 66.71,614.06 C66.71,614.06 66.62,613.18 66.62,613.18 C67.47,612.46 68.6,612.05 69.69,612.36z "/><path id="_R_G_L_12_G_D_10_P_0" fill="#da0583" fill-opacity="1" fill-rule="nonzero" d=" M95.48 586.26 C96.36,588.74 83.94,586.4 81.88,586.03 C79.58,579.52 74.05,571.29 73.43,566.02 C83.44,569.94 90.67,577.74 95.48,586.26z "/><path id="_R_G_L_12_G_D_11_P_0" fill="#e595cb" fill-opacity="1" fill-rule="nonzero" d=" M69.29 664.01 C71.89,666.99 73.56,670.71 74.68,674.49 C74.15,675.38 73,675.77 72.43,676.08 C70.85,672.1 68.46,668.46 67.54,664.25 C67.54,664.25 69.29,664.01 69.29,664.01z "/><path id="_R_G_L_12_G_D_12_P_0" fill="#da0583" fill-opacity="1" fill-rule="nonzero" d=" M2.95 637.39 C1.62,633.79 2,629.94 1.09,626.29 C2.71,626.65 5.88,633.21 5,635.28 C4.67,636.06 4.12,637.06 2.95,637.39z "/><path id="_R_G_L_12_G_D_13_P_0" fill="#da0583" fill-opacity="1" fill-rule="nonzero" d=" M17.64 584.26 C15.94,584.22 13.5,584.94 12.51,583.25 C13.01,582.75 13.35,582.37 13.48,582.16 C14.26,582.12 15.02,582.13 16,582.19 C16.86,582.23 18.22,582.96 17.64,584.26z "/><path id="_R_G_L_12_G_D_14_P_0" fill="#e595cb" fill-opacity="1" fill-rule="nonzero" d=" M69.8 611.57 C70.23,611.91 70.24,612.18 69.69,612.36 C68.6,612.05 67.47,612.46 66.62,613.18 C66.62,613.18 64.47,613.25 64.47,613.25 C56.43,613.51 54.35,611.63 50.48,612.37 C47.31,610.45 70.01,611.31 69.8,611.57z "/><path id="_R_G_L_12_G_D_15_P_0" fill="#d90382" fill-opacity="1" fill-rule="nonzero" d=" M50.48 612.36 C54.35,611.62 56.43,613.51 64.47,613.25 C64.5,613.65 64.35,614.17 64.47,614.72 C64.61,615.3 65.13,615.43 65.64,614.97 C65.95,614.69 66.35,614.44 66.71,614.06 C72.22,620.2 74.12,629.31 78.5,636.95 C74.71,645.05 70.03,650.99 67.49,658.38 C66.66,659.42 65.23,659.69 63.55,659.65 C63.55,659.65 50.67,659.32 50.67,659.32 C48.87,657.61 46.26,659.11 43.65,658.1 C43.65,658.1 33.28,635.24 33.28,635.24 C37.07,627.55 41.99,620.87 44.53,613.2 C45.95,613.01 47.33,612.68 48.69,612.24 C49.23,612.07 49.92,612.47 50.48,612.36z "/><path id="_R_G_L_12_G_D_16_P_0" fill="#da0583" fill-opacity="1" fill-rule="nonzero" d=" M48.72 609.82 C47.58,609.86 46.42,609.44 45.28,609.39 C45.28,609.39 34.18,586.2 34.18,586.2 C34.18,586.2 46.79,564.25 46.79,564.25 C54.44,564.54 61.66,564.23 69.02,565.42 C69.02,565.42 80.06,588.31 80.06,588.31 C80.06,588.31 67.79,610.04 67.79,610.04 C60.93,608.91 54.82,609.61 48.72,609.82z "/><path id="_R_G_L_12_G_D_17_P_0" fill="#e595cb" fill-opacity="1" fill-rule="nonzero" d=" M68.75 659.4 C69.07,660.92 69.06,662.48 69.29,664.01 C69.29,664.01 67.54,664.25 67.54,664.25 C65.83,661.44 62,663.57 59.58,662.43 C57.06,661.24 53.81,660.02 51.27,662.21 C49,661.51 46.07,661.91 43.72,661.52 C41.73,660.75 42.21,658.91 44.14,659.08 C46.53,662.02 48.92,659.28 50.67,659.32 C50.67,659.32 63.55,659.65 63.55,659.65 C65.23,659.69 66.66,659.42 67.49,658.38 C68.04,658.41 68.63,658.84 68.75,659.4z "/><path id="_R_G_L_12_G_D_18_P_0" fill="#e595cb" fill-opacity="1" fill-rule="nonzero" d=" M48.72 609.82 C48.83,610.63 48.81,611.44 48.69,612.24 C47.33,612.68 45.95,613.01 44.53,613.2 C44.9,612.07 43.86,610.27 45.28,609.4 C46.42,609.45 47.58,609.86 48.72,609.82z "/><path id="_R_G_L_12_G_D_19_P_0" fill="#e595cb" fill-opacity="1" fill-rule="nonzero" d=" M59.58 662.43 C57.03,664.37 53.84,663.2 51.27,662.21 C53.81,660.02 57.05,661.24 59.58,662.43z "/><path id="_R_G_L_12_G_D_20_P_0" fill="#da0583" fill-opacity="1" fill-rule="nonzero" d=" M66.62 613.18 C66.62,613.18 66.71,614.06 66.71,614.06 C66.35,614.44 65.95,614.69 65.64,614.97 C65.13,615.43 64.61,615.31 64.48,614.72 C64.35,614.17 64.5,613.66 64.47,613.25 C64.47,613.25 66.62,613.18 66.62,613.18z "/></g></g><g id="_R_G_L_11_G_M"><g id="_R_G_L_11_G" transform=" translate(779.027, 960) translate(-296.367, -960.25)"><path id="_R_G_L_11_G_D_0_P_0" fill="#fefefe" fill-opacity="1" fill-rule="nonzero" d=" M591.49 0.25 C591.49,0.25 592.49,0.25 592.49,0.25 C592.49,0.25 592.49,1920.25 592.49,1920.25 C592.49,1920.25 591.49,1920.25 591.49,1920.25 C591.49,1920.25 591.49,0.25 591.49,0.25z "/><path id="_R_G_L_11_G_D_1_P_0" fill="#d90483" fill-opacity="1" fill-rule="nonzero" d=" M71 562.51 C71.57,568.39 76.94,574.75 79.04,581.19 C79.04,581.19 67.57,603.16 67.57,603.16 C60.07,603.38 52.72,603.43 44.85,602.51 C44.85,602.51 33.97,580.23 33.97,580.23 C33.97,580.23 43.87,559.65 43.87,559.65 C52.97,558.14 62.54,558.73 71,562.51z "/><path id="_R_G_L_11_G_D_2_P_0" fill="#d90483" fill-opacity="1" fill-rule="nonzero" d=" M0.88 612.32 C1.4,601.6 4.72,590.88 11.08,582.27 C17.43,580.98 24.02,581.69 31.41,581.89 C31.41,581.89 42.54,605.07 42.54,605.07 C42.54,605.07 30.78,627.14 30.78,627.14 C23.03,627.81 15.66,627.6 7.99,626.42 C7.99,626.42 0.88,612.32 0.88,612.32z "/><path id="_R_G_L_11_G_D_3_P_0" fill="#e599cd" fill-opacity="1" fill-rule="nonzero" d=" M43.87 559.65 C43.87,559.65 33.97,580.23 33.97,580.23 C33.97,580.23 44.85,602.51 44.85,602.51 C52.72,603.43 60.07,603.38 67.57,603.16 C67.57,603.16 79.04,581.19 79.04,581.19 C76.94,574.75 71.57,568.39 71,562.51 C71,562.51 75.02,564.31 75.02,564.31 C74.78,566.11 75.76,567.68 76.65,569.52 C76.65,569.52 81.25,578.96 81.25,578.96 C84.93,580.1 88.6,580.18 91.91,579.21 C92.68,580.33 94.23,581.35 94.01,583.05 C94.01,583.05 81.51,582.95 81.51,582.95 C78.94,590.5 72.5,597.4 70.93,605.22 C72.51,613.19 78.16,620.41 81.02,628.33 C81.02,628.33 103.89,628.09 103.89,628.09 C103.8,628.65 104.33,630.36 103.01,630.3 C95.32,629.94 88.03,630.87 80.73,629.78 C80.13,629.13 79.8,629.97 79.97,630.65 C80.07,631.02 80.61,631.21 80.99,631.55 C80.99,631.55 69.57,654.32 69.57,654.32 C69.57,654.32 75.57,667.65 75.57,667.65 C76.16,668.97 76.93,669.94 77.8,670.55 C77.8,670.55 74.24,672.86 74.24,672.86 C73.07,667.15 69.5,661.99 66.81,656.32 C66.81,656.32 43.96,656.07 43.96,656.07 C40.62,662.59 36.82,668.41 34.72,674.84 C34.72,674.84 31.97,673.16 31.97,673.16 C31.97,673.16 41.52,653.59 41.52,653.59 C38.04,646.35 35.19,639.58 31.43,632.85 C29.44,629.28 13.17,629.91 8.96,630.59 C5.9,631.37 4.94,636.77 3.89,639.25 C3.52,637.93 2.65,636.72 2.33,635.25 C7.81,627.24 4.7,626.52 0.27,617.25 C0.25,615.5 0.8,613.92 0.88,612.32 C0.88,612.32 7.99,626.42 7.99,626.42 C15.66,627.6 23.03,627.81 30.78,627.14 C30.78,627.14 42.54,605.07 42.54,605.07 C42.54,605.07 31.4,581.89 31.4,581.89 C24.02,581.69 17.43,580.98 11.08,582.27 C11.08,582.27 14.11,578.17 14.11,578.17 C14.11,578.17 31.12,578.37 31.12,578.37 C31.12,578.37 38.73,564.78 38.73,564.78 C39.61,563.21 40.3,561.79 40.04,560.28 C40.04,560.28 43.87,559.65 43.87,559.65z  M67.35 652.32 C70.02,644.13 76.3,637.84 77.85,629.95 C76.45,622 70.23,614.63 67.65,606.72 C67.65,606.72 45.15,606.34 45.15,606.34 C41.83,614.06 36.1,621.28 34.01,629.31 C35.65,637.17 41.35,644.35 44.28,652.14 C44.28,652.14 67.35,652.32 67.35,652.32z "/><path id="_R_G_L_11_G_D_4_P_0" fill="#d90483" fill-opacity="1" fill-rule="nonzero" d=" M94.01 583.05 C103.94,592.66 105.75,616.39 103.89,628.09 C103.89,628.09 81.02,628.33 81.02,628.33 C78.16,620.41 72.51,613.19 70.93,605.22 C72.5,597.4 78.94,590.5 81.51,582.95 C81.51,582.95 94.01,583.05 94.01,583.05z "/><path id="_R_G_L_11_G_D_5_P_0" fill="#d90483" fill-opacity="1" fill-rule="nonzero" d=" M31.97 673.16 C19.25,665.41 7.99,653.69 3.89,639.25 C4.94,636.77 5.9,631.37 8.96,630.59 C13.17,629.91 29.44,629.28 31.43,632.85 C35.19,639.58 38.04,646.35 41.52,653.59 C41.52,653.59 31.97,673.16 31.97,673.16z "/><path id="_R_G_L_11_G_D_6_P_0" fill="#da0583" fill-opacity="1" fill-rule="nonzero" d=" M77.8 670.55 C76.93,669.94 76.17,668.97 75.57,667.65 C75.57,667.65 69.57,654.32 69.57,654.32 C69.57,654.32 80.99,631.55 80.99,631.55 C88.1,631.05 95.21,631.02 103.3,631.77 C100.33,647.65 91,661.94 77.8,670.55z "/><path id="_R_G_L_11_G_D_7_P_0" fill="#da0583" fill-opacity="1" fill-rule="nonzero" d=" M74.24 672.87 C62.75,680.36 46.3,681.9 34.72,674.84 C36.82,668.41 40.62,662.59 43.96,656.07 C43.96,656.07 66.81,656.32 66.81,656.32 C69.5,661.99 73.07,667.15 74.24,672.87z "/><path id="_R_G_L_11_G_D_8_P_0" fill="#b0a0cd" fill-opacity="1" fill-rule="nonzero" d=" M79.54 1002.38 C64.28,1005.9 48.67,1005.89 33.86,1002.38 C32.54,1002.07 31.27,1000.63 31.39,999.76 C31.5,998.97 32.84,997.76 34.15,997.46 C49.06,994.05 64.74,994 79.57,997.61 C80.74,997.89 81.74,999.09 81.92,999.76 C82.11,1000.43 81.12,1002.01 79.54,1002.38z "/><path id="_R_G_L_11_G_D_9_P_0" fill="#da0583" fill-opacity="1" fill-rule="nonzero" d=" M40.04 560.28 C40.3,561.79 39.61,563.21 38.73,564.78 C38.73,564.78 31.12,578.37 31.12,578.37 C31.12,578.37 14.11,578.17 14.11,578.17 C20.48,569.55 29.48,562.03 40.04,560.28z "/><path id="_R_G_L_11_G_D_10_P_0" fill="#da0583" fill-opacity="1" fill-rule="nonzero" d=" M91.91 579.21 C88.6,580.18 84.93,580.1 81.25,578.96 C81.25,578.96 76.65,569.52 76.65,569.52 C75.76,567.68 74.78,566.11 75.02,564.31 C81.94,567.41 87.58,572.95 91.91,579.21z "/><path id="_R_G_L_11_G_D_11_P_0" fill="#da0583" fill-opacity="1" fill-rule="nonzero" d=" M2.33 635.25 C1.02,629.3 0.36,623.34 0.27,617.25 C4.7,626.52 7.81,627.24 2.33,635.25z "/><path id="_R_G_L_11_G_D_12_P_0" fill="#d90483" fill-opacity="1" fill-rule="nonzero" d=" M67.35 652.32 C67.35,652.32 44.27,652.14 44.27,652.14 C41.35,644.35 35.65,637.17 34.01,629.31 C36.1,621.28 41.83,614.06 45.15,606.34 C45.15,606.34 67.65,606.72 67.65,606.72 C70.23,614.63 76.45,622 77.84,629.95 C76.3,637.84 70.02,644.13 67.35,652.32z "/></g></g><g id="_R_G_L_10_G_M"><g id="_R_G_L_10_G" transform=" translate(778.974, 960) translate(-296.42, -960.25)"><path id="_R_G_L_10_G_D_0_P_0" fill="#fefefe" fill-opacity="1" fill-rule="nonzero" d=" M591.59 0.25 C591.59,0.25 592.59,0.25 592.59,0.25 C592.59,0.25 592.59,1920.25 592.59,1920.25 C592.59,1920.25 591.59,1920.25 591.59,1920.25 C591.59,1920.25 591.59,0.25 591.59,0.25z "/><path id="_R_G_L_10_G_D_1_P_0" fill="#d90482" fill-opacity="1" fill-rule="nonzero" d=" M0.44 627.22 C0.29,619.07 0.25,610.55 3.44,602.97 C4.38,600.75 6.81,598.6 7.79,595.66 C7.79,595.66 30.45,595.18 30.45,595.18 C33.45,602.73 39.61,610.18 41.22,618.3 C39.35,626.11 33.66,633.44 30.89,640.83 C30.89,640.83 8.06,640.58 8.06,640.58 C6.17,639 1.13,624.71 0.44,627.22z "/><path id="_R_G_L_10_G_D_2_P_0" fill="#e593cb" fill-opacity="1" fill-rule="nonzero" d=" M42.2 563.43 C42.61,564.94 43.21,566.58 45.08,567.54 C45.08,567.54 65.07,567.44 65.07,567.44 C66.93,567.43 68.04,565.87 68.19,564.58 C69.13,564.94 70.25,565.29 70.85,566.07 C68.86,567.9 69.8,570.78 71.09,573.19 C71.09,573.19 80.57,590.99 80.57,590.99 C86.28,591.68 91.75,591.22 97.07,591.15 C98.74,591.69 98.37,593.93 98.98,595.1 C92.98,594.93 86.84,594.52 80.54,595.44 C80.54,595.44 69.74,617.42 69.74,617.42 C69.74,617.42 81.27,641.01 81.27,641.01 C80.92,641.26 80.04,641.31 80.11,642.22 C80.11,642.22 102.02,642.28 102.02,642.28 C101.78,643.77 100.49,644.36 100.17,645.33 C99.55,644.06 97.81,644.22 96.13,644.2 C96.13,644.2 81.02,643.96 81.02,643.96 C81.02,643.96 69.8,667.03 69.8,667.03 C71.71,670.21 73.34,672.68 74.24,675.51 C73.92,676.54 72.75,676.6 71.96,677.04 C70.64,673.69 68.71,670.62 66.85,667.54 C68.61,666.78 67.79,666.09 66.22,666.11 C61.86,666.58 58.36,666.47 55.09,665.25 C54.63,662.95 64.37,665.26 67.42,664.51 C67.42,664.51 78.52,642.06 78.52,642.06 C78.52,642.06 67.15,619.05 67.15,619.05 C67.98,618.16 67.99,616.78 67.25,615.89 C67.25,615.89 77.94,593.07 77.94,593.07 C77.94,593.07 66.99,570.9 66.99,570.9 C59.15,570.54 51.97,570.45 43.84,570.9 C43.84,570.9 32.77,593.1 32.77,593.1 C32.77,593.1 43.21,614.37 43.21,614.37 C42.75,614.9 42.33,615.48 42.23,615.98 C41.73,618.5 46.32,618.13 45.07,619.06 C45.07,619.06 33.43,642.44 33.43,642.44 C33.43,642.44 45.06,665.18 45.06,665.18 C44.88,665.77 44.19,666.16 44.14,667.21 C44.14,667.21 56.15,667.24 56.15,667.24 C57.17,667.24 58.16,667.45 58.08,668.25 C51.55,671.96 45.11,664.24 42.09,673.33 C41.3,675.71 39.58,677.81 40.13,680.15 C38.55,679.86 37.46,678.82 36.07,678.32 C37.75,674.89 41.51,670.66 41.58,666.37 C38.82,658.34 34.25,651.4 30.42,644.08 C30.42,644.08 9.12,644.21 9.12,644.21 C7.6,644.34 7.01,646.88 5.96,647.31 C5.75,646.67 5.29,645.65 5.15,645.02 C6.28,641.63 3.98,637.98 1.96,635.25 C1.27,632.71 0.49,629.93 0.44,627.22 C1.13,624.71 6.17,639 8.06,640.58 C8.06,640.58 30.89,640.83 30.89,640.83 C33.66,633.44 39.35,626.11 41.22,618.3 C39.61,610.18 33.45,602.73 30.45,595.18 C30.45,595.18 7.79,595.66 7.79,595.66 C6.81,598.6 4.38,600.75 3.44,602.97 C3.93,599.05 4.36,594.16 7.96,592.07 C15.1,592.23 22.4,592.76 30.2,591.26 C30.2,591.26 39.45,573.57 39.45,573.57 C41.29,570.05 41.75,566.84 39.06,564.13 C39.96,563.88 41.35,563.74 42.2,563.43z "/><path id="_R_G_L_10_G_D_3_P_0" fill="#d90482" fill-opacity="1" fill-rule="nonzero" d=" M98.98 595.1 C106.06,608.62 106.31,625.24 102.18,640.13 C94.29,640.81 87.8,641.67 81.27,641.01 C81.27,641.01 69.74,617.42 69.74,617.42 C69.74,617.42 80.54,595.44 80.54,595.44 C86.84,594.52 92.98,594.93 98.98,595.1z "/><path id="_R_G_L_10_G_D_4_P_0" fill="#d90482" fill-opacity="1" fill-rule="nonzero" d=" M36.07 678.32 C22.13,673.29 10.61,661.39 5.96,647.31 C7.01,646.88 7.6,644.34 9.12,644.21 C9.12,644.21 30.42,644.08 30.42,644.08 C34.25,651.4 38.82,658.34 41.58,666.37 C41.51,670.66 37.75,674.89 36.07,678.32z "/><path id="_R_G_L_10_G_D_5_P_0" fill="#d90482" fill-opacity="1" fill-rule="nonzero" d=" M100.17 645.33 C95.98,658.05 86.67,670.54 74.24,675.5 C73.34,672.68 71.71,670.21 69.8,667.03 C69.8,667.03 81.02,643.96 81.02,643.96 C81.02,643.96 96.13,644.2 96.13,644.2 C97.81,644.22 99.55,644.06 100.17,645.33z "/><path id="_R_G_L_10_G_D_6_P_0" fill="#b09fcd" fill-opacity="1" fill-rule="nonzero" d=" M82.63 1002.5 C65.51,1006.57 47.63,1006.58 30.9,1002.48 C29.6,1002.17 28.08,1000.56 28.21,999.74 C28.34,998.92 29.91,997.51 31.16,997.22 C47.82,993.24 65.45,993.3 82.17,997.15 C83.54,997.47 84.35,998.42 84.81,998.99 C85.41,999.73 84.66,1002.02 82.63,1002.5z "/><path id="_R_G_L_10_G_D_7_P_0" fill="#d90482" fill-opacity="1" fill-rule="nonzero" d=" M39.06 564.13 C41.75,566.84 41.29,570.05 39.45,573.57 C39.45,573.57 30.2,591.26 30.2,591.26 C22.4,592.76 15.1,592.23 7.96,592.07 C12.71,578.62 25.32,567.92 39.06,564.13z "/><path id="_R_G_L_10_G_D_8_P_0" fill="#d90482" fill-opacity="1" fill-rule="nonzero" d=" M66.85 667.54 C68.71,670.62 70.64,673.69 71.96,677.04 C62.37,682.43 50.85,682.14 40.13,680.15 C39.58,677.81 41.3,675.71 42.09,673.34 C45.11,664.24 51.55,671.96 58.09,668.25 C60.66,666.79 64.08,667.33 66.85,667.54z "/><path id="_R_G_L_10_G_D_9_P_0" fill="#d90482" fill-opacity="1" fill-rule="nonzero" d=" M97.07 591.15 C91.75,591.21 86.28,591.67 80.57,590.99 C80.57,590.99 71.09,573.19 71.09,573.19 C69.8,570.78 68.87,567.9 70.86,566.07 C82.44,569.53 92.47,580.13 97.07,591.15z "/><path id="_R_G_L_10_G_D_10_P_0" fill="#d90482" fill-opacity="1" fill-rule="nonzero" d=" M68.19 564.58 C68.04,565.87 66.93,567.43 65.07,567.44 C65.07,567.44 45.08,567.54 45.08,567.54 C43.21,566.58 42.61,564.95 42.2,563.43 C50.49,560.41 59.97,561.43 68.19,564.58z "/><path id="_R_G_L_10_G_D_11_P_0" fill="#d90482" fill-opacity="1" fill-rule="nonzero" d=" M5.15 645.02 C3.07,642.53 2.8,638.36 1.96,635.25 C3.98,637.98 6.28,641.63 5.15,645.02z "/><path id="_R_G_L_10_G_D_12_P_0" fill="#d90482" fill-opacity="1" fill-rule="nonzero" d=" M67.15 619.05 C67.15,619.05 78.52,642.06 78.52,642.06 C78.52,642.06 67.43,664.51 67.43,664.51 C64.37,665.26 54.63,662.95 55.09,665.25 C55.09,665.25 45.06,665.18 45.06,665.18 C45.06,665.18 33.43,642.45 33.43,642.45 C33.43,642.45 45.07,619.06 45.07,619.06 C45.07,619.06 67.15,619.05 67.15,619.05z "/><path id="_R_G_L_10_G_D_13_P_0" fill="#d90482" fill-opacity="1" fill-rule="nonzero" d=" M67.25 615.89 C63.37,615.24 59.04,616.99 55.2,616.09 C51.87,615.31 48.51,614.78 44.89,615.39 C44.38,615.11 43.61,614.88 43.21,614.37 C43.21,614.37 32.77,593.1 32.77,593.1 C32.77,593.1 43.84,570.9 43.84,570.9 C51.97,570.45 59.15,570.54 66.99,570.9 C66.99,570.9 77.94,593.07 77.94,593.07 C77.94,593.07 67.25,615.89 67.25,615.89z "/><path id="_R_G_L_10_G_D_14_P_0" fill="#e593cb" fill-opacity="1" fill-rule="nonzero" d=" M44.9 615.39 C46.4,618.7 52.49,617.83 55.2,616.09 C59.04,616.99 63.37,615.24 67.25,615.89 C67.99,616.78 67.98,618.17 67.15,619.05 C67.15,619.05 45.07,619.06 45.07,619.06 C46.32,618.14 41.73,618.5 42.23,615.98 C42.33,615.48 42.75,614.9 43.21,614.37 C43.61,614.88 44.38,615.11 44.9,615.39z "/><path id="_R_G_L_10_G_D_15_P_0" fill="#e593cb" fill-opacity="1" fill-rule="nonzero" d=" M55.09 665.25 C58.36,666.47 61.86,666.58 66.23,666.11 C67.79,666.09 68.61,666.78 66.85,667.54 C64.08,667.33 60.66,666.79 58.09,668.25 C58.16,667.45 57.17,667.24 56.15,667.24 C56.15,667.24 44.14,667.21 44.14,667.21 C44.19,666.16 44.88,665.77 45.06,665.18 C45.06,665.18 55.09,665.25 55.09,665.25z "/><path id="_R_G_L_10_G_D_16_P_0" fill="#e593cb" fill-opacity="1" fill-rule="nonzero" d=" M55.2 616.09 C52.49,617.83 46.39,618.7 44.89,615.39 C48.51,614.78 51.87,615.31 55.2,616.09z "/></g></g><g id="_R_G_L_9_G_M"><g id="_R_G_L_9_G" transform=" translate(778.919, 960) translate(-296.475, -960.25)"><path id="_R_G_L_9_G_D_0_P_0" fill="#fefefe" fill-opacity="1" fill-rule="nonzero" d=" M591.7 0.25 C591.7,0.25 592.7,0.25 592.7,0.25 C592.7,0.25 592.7,1920.25 592.7,1920.25 C592.7,1920.25 591.7,1920.25 591.7,1920.25 C591.7,1920.25 591.7,0.25 591.7,0.25z "/><path id="_R_G_L_9_G_D_1_P_0" fill="#e383c2" fill-opacity="1" fill-rule="nonzero" d=" M77.1 580 C75.76,578.94 66.73,602.13 66.87,604.37 C68.73,611.94 75.48,618.52 78.67,625.48 C85.39,625.85 90.35,624.33 96.29,624.01 C99.64,623.82 102.13,623.47 103.57,620.47 C104.02,623.9 106.44,626.71 104.39,629.16 C101.98,626.2 98.58,626.97 94.93,627.7 C89.81,628.73 84.67,628 79.46,629.66 C79.46,629.66 69.93,653.14 69.93,653.14 C69.93,653.14 83.06,674.33 83.06,674.33 C83.06,674.33 89.94,673.43 89.94,673.43 C88.83,674.65 88.04,676.08 86.94,676.55 C83.45,676.44 81.76,679.13 81.09,682.33 C79.71,683.57 78.62,683.9 77.34,684.18 C77.34,684.18 80.48,676.1 80.48,676.1 C80.48,676.1 67.35,654.65 67.35,654.65 C67.35,654.65 45.27,657.09 45.27,657.09 C45.27,657.09 35.65,680.38 35.65,680.38 C35.65,680.38 41.16,690.05 41.16,690.05 C39.37,689.59 38.09,689.1 37.09,688.93 C36.27,686.92 35.14,684.96 33.51,683.01 C30.94,682.32 28.53,682.69 26.34,683.43 C24.35,682.18 23.4,681.21 22.17,680.31 C25.77,680.4 28.88,680.03 33.37,679.14 C34.98,671.38 40.88,664.23 41.5,656.22 C39.1,648.95 33.22,641.77 29.19,635.29 C26.88,634.62 7.46,636.2 6.71,637.66 C6.71,637.66 2.34,646.16 2.34,646.16 C2.34,646.16 1.41,640.11 1.41,640.11 C4.67,637.88 3.43,633.05 0.77,630.53 C0.77,630.53 0.79,626.23 0.79,626.23 C3.23,626.97 3.89,631.09 5.9,632.83 C13.51,633.6 21.14,631.44 28.65,631.21 C28.65,631.21 38.28,606.88 38.28,606.88 C38.28,606.88 25.59,586.77 25.59,586.77 C24.58,585.16 21.59,586.22 20.28,586.03 C23.38,583.74 25.05,579.65 29.13,579.53 C28.22,581.18 27.27,583.62 28.6,585.72 C28.6,585.72 40.82,605.03 40.82,605.03 C40.82,605.03 63.24,603 63.24,603 C63.24,603 71.3,584.12 71.3,584.12 C72.3,581.76 72.88,579.46 72.29,577.29 C74.19,578.44 76.99,577.52 77.1,580z  M67.49 651.36 C67.49,651.36 76.68,627.56 76.68,627.56 C76.68,627.56 63.45,606.39 63.45,606.39 C63.45,606.39 40.81,608.54 40.81,608.54 C38.51,616.89 33.23,624.22 32.13,632.34 C34.86,639.76 40.89,646.7 44.65,653.68 C44.65,653.68 67.49,651.36 67.49,651.36z "/><path id="_R_G_L_9_G_D_2_P_0" fill="#d90382" fill-opacity="1" fill-rule="nonzero" d=" M22.17 680.31 C10.94,672.1 4.34,659.13 2.34,646.16 C2.34,646.16 6.71,637.66 6.71,637.66 C7.46,636.2 26.88,634.62 29.19,635.29 C33.22,641.77 39.1,648.95 41.5,656.22 C40.88,664.24 34.98,671.38 33.37,679.14 C28.88,680.03 25.77,680.4 22.17,680.31z "/><path id="_R_G_L_9_G_D_3_P_0" fill="#d90382" fill-opacity="1" fill-rule="nonzero" d=" M77.34 684.18 C66.86,691.66 52.9,693.08 41.16,690.05 C41.16,690.05 35.65,680.38 35.65,680.38 C35.65,680.38 45.27,657.09 45.27,657.09 C45.27,657.09 67.35,654.65 67.35,654.65 C67.35,654.65 80.48,676.09 80.48,676.09 C80.48,676.09 77.34,684.18 77.34,684.18z "/><path id="_R_G_L_9_G_D_4_P_0" fill="#d90482" fill-opacity="1" fill-rule="nonzero" d=" M20.28 586.04 C21.59,586.22 24.58,585.16 25.59,586.77 C25.59,586.77 38.28,606.88 38.28,606.88 C38.28,606.88 28.65,631.21 28.65,631.21 C21.14,631.44 13.51,633.6 5.9,632.83 C3.89,631.09 3.23,626.97 0.79,626.23 C0.87,610.42 8.29,594.92 20.28,586.04z "/><path id="_R_G_L_9_G_D_5_P_0" fill="#d90482" fill-opacity="1" fill-rule="nonzero" d=" M104.39 629.16 C105.21,645.47 100.38,661.95 89.94,673.43 C89.94,673.43 83.06,674.33 83.06,674.33 C83.06,674.33 69.93,653.14 69.93,653.14 C69.93,653.14 79.46,629.66 79.46,629.66 C84.67,628 89.81,628.73 94.93,627.7 C98.58,626.97 101.99,626.2 104.39,629.16z "/><path id="_R_G_L_9_G_D_6_P_0" fill="#d90482" fill-opacity="1" fill-rule="nonzero" d=" M72.29 577.29 C72.88,579.46 72.31,581.76 71.3,584.12 C71.3,584.12 63.24,603 63.24,603 C63.24,603 40.81,605.03 40.81,605.03 C40.81,605.03 28.6,585.72 28.6,585.72 C27.27,583.62 28.23,581.18 29.13,579.53 C42.66,571.99 59.41,569.49 72.29,577.29z "/><path id="_R_G_L_9_G_D_7_P_0" fill="#d90482" fill-opacity="1" fill-rule="nonzero" d=" M103.57 620.47 C102.13,623.47 99.64,623.82 96.29,624.01 C90.35,624.33 85.39,625.85 78.67,625.48 C75.48,618.52 68.73,611.94 66.87,604.37 C66.73,602.14 75.76,578.94 77.1,580 C92.58,587.31 101.48,604.49 103.57,620.47z "/><path id="_R_G_L_9_G_D_8_P_0" fill="#b09fcd" fill-opacity="1" fill-rule="nonzero" d=" M85.08 1002.85 C66.35,1007.21 46.96,1007.16 28.65,1002.86 C27.1,1002.49 25.28,1000.83 25.33,999.76 C25.38,998.74 27.24,997.14 28.78,996.78 C47.32,992.51 66.94,992.44 85.37,996.96 C86.83,997.32 88.13,998.88 88.2,999.76 C88.28,1000.63 86.93,1002.42 85.08,1002.85z "/><path id="_R_G_L_9_G_D_9_P_0" fill="#d90482" fill-opacity="1" fill-rule="nonzero" d=" M37.09 688.93 C32.42,688.14 29.57,685.46 26.34,683.43 C28.53,682.69 30.94,682.32 33.51,683.01 C35.14,684.96 36.27,686.92 37.09,688.93z "/><path id="_R_G_L_9_G_D_10_P_0" fill="#d90482" fill-opacity="1" fill-rule="nonzero" d=" M1.41 640.11 C0.25,636.6 0.76,633.77 0.77,630.53 C3.43,633.05 4.67,637.88 1.41,640.11z "/><path id="_R_G_L_9_G_D_11_P_0" fill="#d90482" fill-opacity="1" fill-rule="nonzero" d=" M86.94 676.56 C85.66,679.13 82.88,680.73 81.09,682.34 C81.76,679.13 83.45,676.44 86.94,676.56z "/><path id="_R_G_L_9_G_D_12_P_0" fill="#d90382" fill-opacity="1" fill-rule="nonzero" d=" M67.49 651.36 C67.49,651.36 44.65,653.68 44.65,653.68 C40.89,646.7 34.86,639.76 32.13,632.34 C33.23,624.22 38.51,616.89 40.81,608.54 C40.81,608.54 63.45,606.39 63.45,606.39 C63.45,606.39 76.69,627.56 76.69,627.56 C76.69,627.56 67.49,651.36 67.49,651.36z "/></g></g><g id="_R_G_L_8_G_M"><g id="_R_G_L_8_G" transform=" translate(778.17, 960) translate(-297.224, -960.25)"><path id="_R_G_L_8_G_D_0_P_0" fill="#fefefe" fill-opacity="1" fill-rule="nonzero" d=" M593.2 0.25 C593.2,0.25 594.2,0.25 594.2,0.25 C594.2,0.25 594.2,1920.25 594.2,1920.25 C594.2,1920.25 593.2,1920.25 593.2,1920.25 C593.2,1920.25 593.2,0.25 593.2,0.25z "/><path id="_R_G_L_8_G_D_1_P_0" fill="#d90282" fill-opacity="1" fill-rule="nonzero" d=" M75.82 704.2 C67.72,708.61 59.06,711.01 50.5,710.22 C50.5,710.22 37.47,694.66 37.47,694.66 C37.47,694.66 43.76,670.46 43.76,670.46 C43.76,670.46 65.15,664.51 65.15,664.51 C65.15,664.51 81.13,682.25 81.13,682.25 C81.13,682.25 75.82,704.2 75.82,704.2z "/><path id="_R_G_L_8_G_D_2_P_0" fill="#d90282" fill-opacity="1" fill-rule="nonzero" d=" M104.68 639.99 C106.77,652.43 105.66,664.6 101.42,675.45 C95.61,675.72 89.95,679.98 83.86,679.48 C79.75,677.82 77.1,672.68 74.33,669.63 C72.38,667.48 68.8,665.26 68.22,662.21 C68.22,662.21 74.28,637.05 74.28,637.05 C81.87,634.47 88.82,632.06 96.6,630.85 C99.17,634.66 101.33,637.94 104.68,639.99z "/><path id="_R_G_L_8_G_D_3_P_0" fill="#e05aae" fill-opacity="1" fill-rule="nonzero" d=" M62.63 593.21 C62.63,593.21 57.21,615.08 57.21,615.08 C57.21,615.08 73.28,633.45 73.28,633.45 C73.28,633.45 95.21,626.96 95.21,626.96 C96.65,624.11 96.12,621.21 97.82,619.19 C97.82,619.19 100.58,623.41 100.58,623.41 C99.72,623.16 99.12,623.5 98.94,624.02 C97.2,628.98 99.36,631.13 103.56,634.08 C104.24,636.54 104.36,638.12 104.67,639.99 C101.33,637.94 99.17,634.66 96.6,630.85 C88.82,632.06 81.87,634.47 74.28,637.05 C74.28,637.05 68.22,662.21 68.22,662.21 C68.8,665.26 72.38,667.47 74.33,669.62 C77.1,672.68 79.75,677.82 83.85,679.47 C89.94,679.98 95.61,675.72 101.42,675.45 C100.72,677.26 100.42,678.54 99.72,679.39 C94.48,679.88 89.64,681.8 84.17,683.65 C82.53,690.19 79.87,696.11 79.75,702.32 C78.37,702.91 76.76,703.68 75.82,704.2 C75.82,704.2 81.13,682.25 81.13,682.25 C81.13,682.25 65.15,664.51 65.15,664.51 C65.15,664.51 43.76,670.46 43.76,670.46 C43.76,670.46 37.47,694.66 37.47,694.66 C37.47,694.66 50.5,710.22 50.5,710.22 C50.5,710.22 46.62,709.86 46.62,709.86 C43.53,705.59 39.95,700.87 35.34,697.63 C32.13,697.02 27.3,699 24.7,700.26 C24.7,700.26 20.79,697.17 20.79,697.17 C25.36,697.25 29.32,694.92 34.65,693.92 C36.03,685.85 39.46,678.45 40.01,670.16 C39.93,666.29 34.97,663.2 32.59,660.45 C30.07,657.55 27.6,652.21 23.87,651.58 C20.98,651.08 3.85,656.14 2.3,658.04 C2.3,658.04 1.82,653.32 1.82,653.32 C1.82,653.32 23.9,647.51 23.9,647.51 C23.9,647.51 30.01,622.34 30.01,622.34 C26.23,617.53 22.69,613.17 18.79,609.22 C20.06,608.49 20.05,606.4 21.4,606.57 C23.89,611.54 28.23,615.62 32.72,619.92 C40.28,618.41 47.08,616.23 54.28,613.76 C55.53,609.25 59.89,595.41 58.86,592.56 C58.86,592.56 62.63,593.21 62.63,593.21z  M65.08 661.06 C66.94,652.16 70.21,644.65 70.84,636.4 C70.46,632.9 66.09,630.39 64.13,627.93 C61.15,624.18 58.65,620.63 54.72,617.51 C54.72,617.51 33.15,623.65 33.15,623.65 C33.15,623.65 26.43,648.35 26.43,648.35 C26.43,648.35 42.88,667.36 42.88,667.36 C42.88,667.36 65.08,661.06 65.08,661.06z "/><path id="_R_G_L_8_G_D_4_P_0" fill="#d90282" fill-opacity="1" fill-rule="nonzero" d=" M20.79 697.17 C9.1,687.95 3.76,672.32 2.3,658.04 C3.85,656.14 20.98,651.08 23.87,651.58 C27.6,652.21 30.07,657.55 32.59,660.45 C34.97,663.2 39.93,666.29 40.01,670.16 C39.46,678.45 36.03,685.85 34.65,693.92 C29.32,694.92 25.36,697.25 20.79,697.17z "/><path id="_R_G_L_8_G_D_5_P_0" fill="#d90282" fill-opacity="1" fill-rule="nonzero" d=" M97.82 619.19 C96.12,621.21 96.65,624.11 95.21,626.96 C95.21,626.96 73.28,633.45 73.28,633.45 C73.28,633.45 57.2,615.08 57.2,615.08 C57.2,615.08 62.63,593.21 62.63,593.21 C78.25,595.89 89.82,606.93 97.82,619.19z "/><path id="_R_G_L_8_G_D_6_P_0" fill="#d90282" fill-opacity="1" fill-rule="nonzero" d=" M18.79 609.22 C22.69,613.17 26.23,617.53 30.01,622.33 C30.01,622.33 23.9,647.52 23.9,647.52 C23.9,647.52 1.82,653.32 1.82,653.32 C0.25,638 7.65,615.67 18.79,609.22z "/><path id="_R_G_L_8_G_D_7_P_0" fill="#af9fcd" fill-opacity="1" fill-rule="nonzero" d=" M89.66 1002.93 C70.49,1007.74 50.78,1007.49 31.53,1004.15 C28.98,1003.7 24.79,1002.61 24.02,1000.11 C23.35,997.95 27.39,996.29 29.39,995.89 C49.2,991.96 69.79,991.81 89.31,996.51 C90.81,996.87 92.03,998.29 92.54,999.02 C93.22,999.98 91.87,1002.37 89.66,1002.93z "/><path id="_R_G_L_8_G_D_8_P_0" fill="#d90282" fill-opacity="1" fill-rule="nonzero" d=" M58.86 592.56 C59.89,595.41 55.53,609.25 54.29,613.76 C47.08,616.23 40.28,618.41 32.72,619.92 C28.23,615.62 23.89,611.54 21.4,606.57 C32.34,597.54 45.49,590.28 58.86,592.56z "/><path id="_R_G_L_8_G_D_9_P_0" fill="#da0885" fill-opacity="1" fill-rule="nonzero" d=" M99.72 679.39 C95.9,689.53 88.95,698.32 79.75,702.32 C79.87,696.11 82.53,690.19 84.17,683.65 C89.64,681.8 94.48,679.88 99.72,679.39z "/><path id="_R_G_L_8_G_D_10_P_0" fill="#da0885" fill-opacity="1" fill-rule="nonzero" d=" M46.62 709.86 C37.91,709.05 30.78,705.06 24.7,700.26 C27.3,699.01 32.13,697.02 35.34,697.63 C39.95,700.87 43.53,705.59 46.62,709.86z "/><path id="_R_G_L_8_G_D_11_P_0" fill="#da0885" fill-opacity="1" fill-rule="nonzero" d=" M100.58 623.41 C102.83,626.85 102.63,630.7 103.56,634.08 C99.36,631.13 97.2,628.98 98.94,624.02 C99.12,623.5 99.72,623.15 100.58,623.41z "/><path id="_R_G_L_8_G_D_12_P_0" fill="#d90282" fill-opacity="1" fill-rule="nonzero" d=" M65.08 661.06 C65.08,661.06 42.88,667.36 42.88,667.36 C42.88,667.36 26.43,648.35 26.43,648.35 C26.43,648.35 33.15,623.65 33.15,623.65 C33.15,623.65 54.72,617.51 54.72,617.51 C58.65,620.63 61.15,624.18 64.13,627.93 C66.09,630.39 70.46,632.9 70.84,636.4 C70.21,644.65 66.94,652.16 65.08,661.06z "/></g></g><g id="_R_G_L_7_G_M"><g id="_R_G_L_7_G" transform=" translate(776.338, 960) translate(-299.056, -960.25)"><path id="_R_G_L_7_G_D_0_P_0" fill="#fefefe" fill-opacity="1" fill-rule="nonzero" d=" M596.86 0.25 C596.86,0.25 597.86,0.25 597.86,0.25 C597.86,0.25 597.86,1920.25 597.86,1920.25 C597.86,1920.25 596.86,1920.25 596.86,1920.25 C596.86,1920.25 596.86,0.25 596.86,0.25z "/><path id="_R_G_L_7_G_D_1_P_0" fill="#d90181" fill-opacity="1" fill-rule="nonzero" d=" M83.29 630.39 C83.29,630.39 82.52,654.39 82.52,654.39 C82.52,654.39 61.91,666.5 61.91,666.5 C61.91,666.5 42.4,653.13 42.4,653.13 C42.4,653.13 42.38,627.43 42.38,627.43 C55.62,620.81 72.01,621.6 83.29,630.39z "/><path id="_R_G_L_7_G_D_2_P_0" fill="#d90181" fill-opacity="1" fill-rule="nonzero" d=" M79.5 733.12 C71.87,739.71 61.56,741.21 52.3,740.54 C47.11,733.93 38.5,735.83 40.53,726.26 C41.78,720.4 40.46,714.44 41.34,708.4 C41.34,708.4 61.14,697.01 61.14,697.01 C61.14,697.01 80.72,709.89 80.72,709.89 C80.72,709.89 79.5,733.12 79.5,733.12z "/><path id="_R_G_L_7_G_D_3_P_0" fill="#dc2392" fill-opacity="1" fill-rule="nonzero" d=" M42.38 627.43 C42.38,627.43 42.4,653.13 42.4,653.13 C42.4,653.13 61.91,666.51 61.91,666.51 C61.91,666.51 82.52,654.39 82.52,654.39 C82.52,654.39 83.29,630.39 83.29,630.39 C84.76,631.53 86.34,632.54 87.27,633.16 C84.41,633.97 85.24,651.13 85.29,655.14 C85.29,655.14 103.69,667.76 103.69,667.76 C104.7,668.44 106.25,667.3 107.01,667.29 C107.01,667.29 107.76,670.14 107.76,670.14 C104.41,666.19 104.57,694.51 104.59,695.19 C104.66,696.95 107.16,697.39 108.09,698.03 C107.77,699.19 107.4,699.78 107.33,700.27 C105.95,700.11 104.24,698.19 102.48,698.43 C102.48,698.43 83.54,709.4 83.54,709.4 C82.11,717.06 82.7,724.1 82.54,731.18 C81.28,731.62 80.66,733.52 79.5,733.12 C79.5,733.12 80.72,709.89 80.72,709.89 C80.72,709.89 61.14,697.01 61.14,697.01 C61.14,697.01 41.34,708.4 41.34,708.4 C40.46,714.44 41.78,720.4 40.54,726.26 C38.5,735.83 47.11,733.93 52.3,740.54 C44.75,740 39.03,737.7 33.64,733.77 C34.68,733.46 37.71,732.72 37.83,730.92 C38.34,723.14 37.94,715.63 37.97,707.71 C37.97,707.71 19.13,695 19.13,695 C19.13,695 8.33,700.25 8.33,700.25 C8.33,700.25 6.53,697.22 6.53,697.22 C9.61,697.14 16.3,694.8 17.14,691.31 C17.14,691.31 18.2,667.03 18.2,667.03 C14.47,664.54 12.04,662.11 8.62,661.03 C8.62,661.03 10.38,657.19 10.38,657.19 C8.95,657.89 18.01,664.39 19.27,663.86 C26.23,660.92 32.2,656.52 39,652.74 C39.06,650.33 40.43,627.74 38.6,629.37 C39.82,628.75 40.74,627.26 42.38,627.43z  M42.03 704.29 C42.03,704.29 59.49,694.06 59.49,694.06 C59.49,694.06 60.35,668.89 60.35,668.89 C60.35,668.89 40.47,655.65 40.47,655.65 C40.47,655.65 21.1,667.35 21.1,667.35 C21.1,667.35 21.11,693.22 21.11,693.22 C27.28,695.58 37.78,706.77 42.03,704.29z  M82.19 706.95 C82.19,706.95 101.07,695.78 101.07,695.78 C102.69,687.34 103.17,678.96 102.61,670.41 C102.61,670.41 83.44,657.53 83.44,657.53 C83.44,657.53 63.2,669.52 63.2,669.52 C62.59,677.09 62.81,684.5 62.84,692.29 C62.85,694.08 64.76,695.82 66.04,696.63 C66.04,696.63 82.19,706.95 82.19,706.95z "/><path id="_R_G_L_7_G_D_4_P_0" fill="#b09fcd" fill-opacity="1" fill-rule="nonzero" d=" M92.82 1004.08 C71.9,1008.2 51.04,1008.19 30.6,1003.95 C28.34,1003.48 24.01,1001.84 24.55,999.46 C25.14,996.85 29.45,995.68 32.02,995.18 C51.26,991.44 70.72,991.4 90.06,994.82 C93.18,995.37 98.22,996.34 99.25,999.43 C100,1001.67 95.34,1003.59 92.82,1004.08z "/><path id="_R_G_L_7_G_D_5_P_0" fill="#d90181" fill-opacity="1" fill-rule="nonzero" d=" M33.64 733.77 C21.85,725.17 15.11,711.62 8.33,700.25 C8.33,700.25 19.13,695 19.13,695 C19.13,695 37.97,707.71 37.97,707.71 C37.94,715.63 38.34,723.14 37.83,730.92 C37.71,732.72 34.68,733.46 33.64,733.77z "/><path id="_R_G_L_7_G_D_6_P_0" fill="#d90181" fill-opacity="1" fill-rule="nonzero" d=" M38.61 629.37 C40.44,627.74 39.06,650.33 39,652.74 C32.2,656.52 26.23,660.92 19.27,663.86 C18.01,664.39 8.95,657.89 10.38,657.19 C16.07,644.79 27.13,635.23 38.61,629.37z "/><path id="_R_G_L_7_G_D_7_P_0" fill="#d90181" fill-opacity="1" fill-rule="nonzero" d=" M107.34 700.27 C105.79,711.53 99.32,720.21 90.48,726.26 C87.67,728.19 85.42,730.18 82.54,731.18 C82.7,724.1 82.11,717.06 83.54,709.4 C83.54,709.4 102.48,698.43 102.48,698.43 C104.24,698.19 105.95,700.11 107.34,700.27z "/><path id="_R_G_L_7_G_D_8_P_0" fill="#d90181" fill-opacity="1" fill-rule="nonzero" d=" M107.01 667.29 C106.25,667.3 104.7,668.44 103.69,667.76 C103.69,667.76 85.29,655.14 85.29,655.14 C85.24,651.13 84.41,633.97 87.27,633.16 C98.94,640.91 103.68,654.61 107.01,667.29z "/><path id="_R_G_L_7_G_D_9_P_0" fill="#d90181" fill-opacity="1" fill-rule="nonzero" d=" M6.53 697.22 C0.25,686.69 3.57,672.06 8.62,661.03 C12.04,662.11 14.47,664.53 18.2,667.03 C18.2,667.03 17.14,691.31 17.14,691.31 C16.3,694.8 9.61,697.14 6.53,697.22z "/><path id="_R_G_L_7_G_D_10_P_0" fill="#d90181" fill-opacity="1" fill-rule="nonzero" d=" M107.76 670.14 C110.12,679.15 110.6,689.02 108.09,698.03 C107.16,697.39 104.66,696.95 104.59,695.19 C104.57,694.51 104.41,666.19 107.76,670.14z "/><path id="_R_G_L_7_G_D_11_P_0" fill="#d90181" fill-opacity="1" fill-rule="nonzero" d=" M82.19 706.95 C82.19,706.95 66.04,696.63 66.04,696.63 C64.76,695.82 62.85,694.08 62.84,692.29 C62.81,684.5 62.59,677.09 63.2,669.52 C63.2,669.52 83.44,657.53 83.44,657.53 C83.44,657.53 102.61,670.41 102.61,670.41 C103.17,678.96 102.69,687.34 101.07,695.78 C101.07,695.78 82.19,706.95 82.19,706.95z "/><path id="_R_G_L_7_G_D_12_P_0" fill="#d90181" fill-opacity="1" fill-rule="nonzero" d=" M42.03 704.29 C37.78,706.77 27.28,695.58 21.11,693.22 C21.11,693.22 21.1,667.35 21.1,667.35 C21.1,667.35 40.47,655.65 40.47,655.65 C40.47,655.65 60.35,668.89 60.35,668.89 C60.35,668.89 59.49,694.06 59.49,694.06 C59.49,694.06 42.03,704.29 42.03,704.29z "/></g></g><g id="_R_G_L_6_G_M"><g id="_R_G_L_6_G" transform=" translate(537.088, 835.315) translate(-59.569, -173.388)"><path id="_R_G_L_6_G_D_0_P_0" fill="#d90281" fill-opacity="1" fill-rule="nonzero" d=" M89.02 109.13 C80.21,119.39 65.61,124.76 52.44,121.57 C41.48,118.91 32.87,112.66 23.75,106.22 C8.94,95.76 0.25,76.84 5.36,58.78 C9.28,44.94 16.77,32.58 25.44,21.36 C41.35,0.77 71.66,0.25 89.04,19.13 C102.82,34.1 118.89,61.32 108.92,81.17 C103.68,91.6 96.56,100.35 89.02,109.13z "/><path id="_R_G_L_6_G_D_1_P_0" fill="#af9ecd" fill-opacity="1" fill-rule="nonzero" d=" M93.26 342.57 C71.7,346.53 50.57,346.45 29.56,342.46 C26.77,341.93 20.87,340.31 21.33,337.29 C21.8,334.24 27.36,332.87 30.24,332.35 C51.69,328.48 73.31,328.43 94.64,332.72 C97.02,333.2 101.87,334.62 102.06,337.25 C102.27,340.41 96.74,341.93 93.26,342.57z "/></g></g><g id="_R_G_L_5_G_M"><g id="_R_G_L_5_G" transform=" translate(538.507, 868.441) translate(-53.222, -140.901)"><path id="_R_G_L_5_G_D_0_P_0" fill="#d90181" fill-opacity="1" fill-rule="nonzero" d=" M98.41 84.63 C95.42,98.17 85.06,109.88 71.48,112.17 C58.59,114.34 46.33,112.49 33.3,111.1 C18.44,109.52 4.51,98.5 2.33,83.33 C0.25,68.86 2.64,55.03 4.09,40.68 C6.53,16.59 29.4,0.25 52.94,6.35 C65.4,9.58 76.75,14.75 87.77,21.09 C97.12,26.47 106.19,38.03 104.22,50.5 C102.42,61.93 101.05,72.65 98.41,84.63z "/><path id="_R_G_L_5_G_D_1_P_0" fill="#af9fcd" fill-opacity="1" fill-rule="nonzero" d=" M88.69 277.14 C65.11,281.55 41.69,281.54 18.64,277.01 C15.84,276.46 9.98,274.57 10.38,271.69 C10.85,268.4 16.74,266.93 19.99,266.33 C41.93,262.27 64.08,262.25 86.06,265.98 C90.23,266.69 95.93,267.9 97.62,271.59 C97.21,274.58 92.28,276.47 88.69,277.14z "/></g></g><g id="_R_G_L_4_G_M"><g id="_R_G_L_4_G" transform=" translate(538.477, 914.962) translate(-62.952, -97.577)"><path id="_R_G_L_4_G_D_0_P_0" fill="#d90181" fill-opacity="1" fill-rule="nonzero" d=" M110.33 79.27 C97.56,87.41 86.04,94.54 72.52,100.96 C62.38,105.77 47.3,105.37 39.2,96.53 C26.74,82.93 16.08,68.16 7.19,52.02 C0.25,39.4 8.13,23.21 20.37,17.08 C34.76,9.87 49.56,5.9 65.02,1.51 C69.44,0.25 73.78,0.45 78.14,0.46 C85.59,0.46 91.86,3.55 95.79,9.81 C95.79,9.81 118.5,45.94 118.5,45.94 C125.66,57.32 121.9,71.9 110.33,79.27z "/><path id="_R_G_L_4_G_D_1_P_0" fill="#af9fcd" fill-opacity="1" fill-rule="nonzero" d=" M110.49 182.03 C110.24,191.8 38.38,194.9 18.89,184.78 C17.65,184.13 16.87,183.07 16.76,181.98 C16.39,178.14 28.61,175.63 32.32,175.08 C53.19,171.95 74.04,171.93 94.9,175.09 C98.82,175.68 110.59,178.02 110.49,182.03z "/></g></g><g id="_R_G_L_3_G_M"><g id="_R_G_L_3_G" transform=" translate(538.954, 951.335) translate(-63.717, -61.992)"><path id="_R_G_L_3_G_D_0_P_0" fill="#d90181" fill-opacity="1" fill-rule="nonzero" d=" M106.62 84.82 C102.51,93.4 90.95,96.04 82.59,93.97 C82.59,93.97 15.63,77.39 15.63,77.39 C7.34,73.73 0.25,64.82 3.97,55.79 C10.34,40.37 18.21,26.11 26.58,11.8 C30.82,4.55 39.14,0.25 47.49,2.48 C47.49,2.48 112.38,19.8 112.38,19.8 C120.5,21.97 127.18,30.51 124.59,38.56 C119.48,54.38 113.99,69.39 106.62,84.82z "/><path id="_R_G_L_3_G_D_1_P_0" fill="#af9ecd" fill-opacity="1" fill-rule="nonzero" d=" M111.63 112.9 C90.01,123.73 15.04,120.5 13.95,110.06 C13.51,105.75 27.11,103.12 31,102.54 C53.19,99.28 75.44,99.29 97.61,102.68 C101.45,103.27 114.14,105.87 113.81,110.06 C113.72,111.08 112.91,112.26 111.63,112.9z "/></g></g><g id="_R_G_L_2_G_M"><g id="_R_G_L_2_G" transform=" translate(540, 968.705) translate(-56.001, -41.48)"><path id="_R_G_L_2_G_D_0_P_0" fill="#d8cfe8" fill-opacity="1" fill-rule="nonzero" d=" M111.75 72.06 C111.75,77.94 86.79,82.71 56,82.71 C25.21,82.71 0.25,77.94 0.25,72.06 C0.25,66.18 25.21,61.42 56,61.42 C86.79,61.42 111.75,66.18 111.75,72.06z "/><path id="_R_G_L_2_G_D_1_P_0" fill="#da0081" fill-opacity="1" fill-rule="nonzero" d=" M94.1 0.25 C94.1,0.25 17.91,0.25 17.91,0.25 C9.09,0.25 1.94,5.82 1.94,12.7 C1.94,12.7 1.94,63.14 1.94,63.14 C1.94,70.02 9.09,75.59 17.91,75.59 C17.91,75.59 94.1,75.59 94.1,75.59 C102.92,75.59 110.06,70.02 110.06,63.14 C110.06,63.14 110.06,12.7 110.06,12.7 C110.06,5.82 102.92,0.25 94.1,0.25z "/></g></g><g id="_R_G_L_1_G_M"><g id="_R_G_L_1_G" transform=" translate(540, 965.904) translate(-56.001, -44.281)"><path id="_R_G_L_1_G_D_0_P_0" fill="#d8cfe8" fill-opacity="1" fill-rule="nonzero" d=" M111.75 77.67 C111.75,83.55 86.79,88.31 56,88.31 C25.21,88.31 0.25,83.55 0.25,77.67 C0.25,71.79 25.21,67.02 56,67.02 C86.79,67.02 111.75,71.79 111.75,77.67z "/><path id="_R_G_L_1_G_D_1_P_0" fill="#da0081" fill-opacity="1" fill-rule="nonzero" d=" M94.1 0.25 C94.1,0.25 17.91,0.25 17.91,0.25 C9.09,0.25 1.94,6.24 1.94,13.62 C1.94,13.62 1.94,67.82 1.94,67.82 C1.94,75.21 9.09,81.19 17.91,81.19 C17.91,81.19 94.1,81.19 94.1,81.19 C102.92,81.19 110.06,75.21 110.06,67.82 C110.06,67.82 110.06,13.62 110.06,13.62 C110.06,6.24 102.92,0.25 94.1,0.25z "/></g></g><g id="_R_G_L_0_G_M"><g id="_R_G_L_0_G" transform=" translate(540, 961.608) translate(-56.001, -48.577)"><path id="_R_G_L_0_G_D_0_P_0" fill="#d8cfe8" fill-opacity="1" fill-rule="nonzero" d=" M111.75 86.26 C111.75,92.14 86.79,96.9 56,96.9 C25.21,96.9 0.25,92.14 0.25,86.26 C0.25,80.38 25.21,75.61 56,75.61 C86.79,75.61 111.75,80.38 111.75,86.26z "/><path id="_R_G_L_0_G_D_1_P_0" fill="#da0081" fill-opacity="1" fill-rule="nonzero" d=" M94.1 0.25 C94.1,0.25 17.91,0.25 17.91,0.25 C9.09,0.25 1.94,6.87 1.94,15.04 C1.94,15.04 1.94,75 1.94,75 C1.94,83.17 9.09,89.79 17.91,89.79 C17.91,89.79 94.1,89.79 94.1,89.79 C102.92,89.79 110.06,83.17 110.06,75 C110.06,75 110.06,15.04 110.06,15.04 C110.06,6.87 102.92,0.25 94.1,0.25z "/></g></g></g><g id="time_group"/></svg>