<svg width="103" height="33" viewBox="0 0 103 33" fill="none" xmlns="http://www.w3.org/2000/svg">
<g clip-path="url(#clip0_6668_22379)">
<path d="M5.2481 0H0.909246C0.407083 0 0 0.421076 0 0.9405V4.752C0 5.27142 0.407083 5.6925 0.909246 5.6925H5.2481C5.75026 5.6925 6.15735 5.27142 6.15735 4.752V0.9405C6.15735 0.421076 5.75026 0 5.2481 0Z" fill="#DA0081"/>
<path d="M31.6798 0H27.9471C27.4366 0 27.0379 0.429 27.0379 0.9405V16.368C27.0379 16.6815 26.6391 16.797 26.4955 16.5165L17.8178 0.4125C17.6742 0.1485 17.419 0 17.1159 0H10.9107C10.4003 0 10.0015 0.429 10.0015 0.9405V25.5915C10.0015 26.1195 10.4162 26.532 10.9107 26.532H14.6434C15.1539 26.532 15.5526 26.103 15.5526 25.5915V9.702C15.5526 9.3885 15.9514 9.273 16.095 9.5535L25.012 26.136C25.1556 26.4 25.4108 26.5485 25.7139 26.5485H31.6479C32.1583 26.5485 32.5571 26.1195 32.5571 25.608V0.9405C32.5571 0.4125 32.1424 0 31.6479 0H31.6798Z" fill="#200020"/>
<path d="M54.1243 16.9125C54.1243 9.966 49.7535 6.5175 44.952 6.5175C38.7149 6.5175 35.1577 10.989 35.1577 17.028C35.1577 23.892 39.6242 27.159 44.8085 27.159C49.9928 27.159 53.0236 24.387 53.8371 20.79C53.9488 20.328 53.6936 19.9155 53.0236 19.9155H50.0885C49.7535 19.9155 49.4664 20.097 49.3228 20.4435C48.589 22.11 47.4086 22.9845 45.1435 22.9845C42.5752 22.9845 40.8525 21.318 40.5972 17.9355H53.215C53.7574 17.9355 54.1243 17.523 54.1243 16.9125ZM40.8046 14.289C41.347 11.7975 42.7507 10.692 44.8723 10.692C46.7705 10.692 48.3976 11.8305 48.6209 14.289H40.8046Z" fill="#200020"/>
<path d="M102.091 7.0125H98.3424C97.8402 7.0125 97.4331 7.43357 97.4331 7.953V25.608C97.4331 26.1274 97.8402 26.5485 98.3424 26.5485H102.091C102.593 26.5485 103 26.1274 103 25.608V7.953C103 7.43357 102.593 7.0125 102.091 7.0125Z" fill="#200020"/>
<path d="M74.2551 7.0125H70.5224C70.0119 7.0125 69.6131 7.4415 69.6131 7.953V8.91C68.4965 7.557 66.6621 6.6165 64.2534 6.6165C58.8617 6.6165 56.0063 11.6655 56.0063 17.0115C56.0063 21.681 58.3512 26.9115 64.1417 26.9115C66.2154 26.9115 68.4168 25.8885 69.6131 24.4365V32.0265C69.6131 32.5545 70.0279 32.967 70.5224 32.967H74.2551C74.7655 32.967 75.1643 32.538 75.1643 32.0265V7.9695C75.1643 7.4415 74.7496 7.029 74.2551 7.029V7.0125ZM65.7528 22.7535C63.2963 22.7535 61.5735 20.889 61.5735 16.8795C61.5735 12.87 63.2963 10.7745 65.7528 10.7745C68.2094 10.7745 69.9322 12.705 69.9322 16.8795C69.9322 21.054 68.2094 22.7535 65.7528 22.7535Z" fill="#200020"/>
<path d="M94.1311 7.0125H90.3984C89.8879 7.0125 89.4891 7.4415 89.4891 7.953V17.9355C89.4891 21.153 88.1013 22.0935 86.3307 22.0935C84.5601 22.0935 83.1723 21.153 83.1723 17.9355V7.953C83.1723 7.425 82.7575 7.0125 82.263 7.0125H78.5303C78.0199 7.0125 77.6211 7.4415 77.6211 7.953V18.348C77.6211 24.5355 80.9231 27.027 86.3467 27.027C91.7702 27.027 95.0722 24.519 95.0722 18.348V7.953C95.0722 7.425 94.6575 7.0125 94.163 7.0125H94.1311Z" fill="#200020"/>
</g>
<defs>
<clipPath id="clip0_6668_22379">
<rect width="103" height="33" fill="white"/>
</clipPath>
</defs>
</svg>
