<svg width="240" height="248" viewBox="0 0 240 248" fill="none" xmlns="http://www.w3.org/2000/svg">
<g clip-path="url(#clip0_9636_7289)">
<path d="M115.959 159.763C115.862 159.763 115.758 159.749 115.661 159.729C115.412 159.673 109.466 158.337 103.437 154.888C95.2396 150.2 90.9017 143.85 90.9017 136.524H93.6736C93.6736 150.893 113.277 156.28 115.959 156.952C118.585 156.287 137.586 150.913 137.586 135.645H140.358C140.358 154.189 116.499 159.673 116.264 159.729C116.167 159.749 116.063 159.763 115.966 159.763H115.959Z" fill="#DA0081"/>
<path d="M115.481 120.12C111.247 120.12 106.999 119.005 103.257 116.776C95.2397 111.991 90.5484 106.084 88.9338 98.7299C86.3906 98.9307 83.4109 96.978 80.6322 93.1832C76.6061 87.6712 74.2639 79.9571 77.8604 76.5086C79.5442 74.8951 81.3182 74.2304 83.1268 74.542C84.2494 74.7289 85.2265 75.2829 86.0511 75.9684C86.0303 75.6638 86.0095 75.366 85.9887 75.0613C85.9679 74.7566 86.0511 74.4589 86.2174 74.2096C86.2312 74.1819 88.0814 71.3358 91.0403 63.7879L91.1027 63.6217C91.373 62.9362 91.6432 62.2437 91.8788 61.5374C88.8991 60.4571 86.8064 58.636 86.8064 55.9699C86.8064 54.1557 88.2477 52.2791 90.6592 52.2791C93.3202 52.2791 95.1357 54.8274 95.2951 57.1887C95.3505 58.0266 95.3089 58.8229 95.1981 59.5916C96.5216 59.8339 98.0184 59.9724 99.6261 59.9724C105.599 59.9724 113.485 58.0543 120.207 54.9728C123.124 53.6363 125.397 52.2722 127.06 51.0049C126.561 49.5231 126.27 47.9027 126.27 46.1577C126.27 43.8864 127.774 42.2383 129.853 42.2383C131.932 42.2383 133.435 43.9556 133.435 46.3169C133.435 48.1104 132.299 49.9732 130.386 51.7736C132.437 55.8107 136.38 58.2135 138.813 58.726C139.485 58.8645 139.949 59.4808 139.907 60.1594C139.817 61.7313 140.704 67.3472 145.811 72.4092C146.089 72.6861 146.241 73.067 146.22 73.4548C146.186 74.2234 146.144 74.9921 146.096 75.7538C146.886 75.1444 147.8 74.6735 148.833 74.5004C150.593 74.2165 152.332 74.8466 154.002 76.3839C158.215 80.2548 154.55 89.5962 150.413 94.5751C147.786 97.7258 145.049 99.18 142.742 98.7299C140.961 105.675 136.644 111.111 129.194 115.792L128.016 116.54C124.233 118.922 119.86 120.12 115.467 120.12H115.481ZM90.0009 95.6138C90.2019 95.6138 90.4098 95.6553 90.5969 95.7454C90.9988 95.9323 91.2829 96.3063 91.366 96.7425L91.5116 97.525C92.8282 104.38 97.1314 109.899 104.678 114.4C111.406 118.41 119.985 118.334 126.54 114.2L127.725 113.445C134.71 109.055 138.667 104.013 140.185 97.5804C140.261 97.2342 140.344 96.8741 140.427 96.5071C140.531 96.05 140.857 95.6692 141.3 95.503C141.744 95.3368 142.236 95.413 142.617 95.69C144.114 96.8118 146.532 94.9283 148.306 92.8024C152.11 88.2321 154.626 80.698 152.152 78.4198C151.126 77.478 150.198 77.0902 149.297 77.2357C147.488 77.5265 146.019 79.9432 145.61 80.6772C145.292 81.252 144.613 81.522 143.989 81.3282C143.365 81.1343 142.956 80.5318 143.019 79.874C143.199 77.9628 143.338 75.9615 143.442 73.9326C139.124 69.4385 137.406 64.2588 137.17 61.1358C134.08 60.1248 130.4 57.5003 128.203 53.5601C121.246 58.6082 108.773 62.7354 99.633 62.7354C97.9075 62.7354 96.1751 62.583 94.5675 62.2645C94.2972 63.0954 93.9923 63.8849 93.6944 64.6327L93.632 64.792C91.1512 71.1212 89.4188 74.265 88.7952 75.3175C88.906 77.0002 89.0377 78.6829 89.1832 80.331C89.2387 80.9958 88.8229 81.6051 88.1854 81.7852C87.5479 81.9652 86.8688 81.6744 86.5708 81.0789C85.767 79.4862 84.2563 77.5334 82.6764 77.2703C81.7617 77.111 80.8193 77.5196 79.7868 78.5098C77.7703 80.4418 79.2116 86.5425 82.8773 91.5559C85.2611 94.8175 87.9221 96.5556 89.3495 95.7869C89.5574 95.6761 89.7861 95.6207 90.0078 95.6207L90.0009 95.6138ZM90.6592 55.042C89.7792 55.042 89.5782 55.7276 89.5782 55.963C89.5782 57.1125 90.6731 58.1166 92.4956 58.8368C92.5441 58.359 92.5579 57.8673 92.5233 57.3618C92.454 56.2677 91.6363 55.042 90.6523 55.042H90.6592ZM129.86 45.0012C129.09 45.0012 129.049 45.9638 129.049 46.1507C129.049 47.1271 129.16 48.0481 129.354 48.9137C130.241 47.8958 130.663 47.0025 130.663 46.3031C130.663 46.1715 130.643 44.9943 129.853 44.9943L129.86 45.0012Z" fill="#DA0081"/>
<path d="M101.088 85.4543C102.523 85.4543 103.68 84.104 103.68 82.4352C103.68 80.7663 102.523 79.416 101.088 79.416C99.6538 79.416 98.4966 80.7663 98.4966 82.4352C98.4966 84.104 99.6538 85.4543 101.088 85.4543Z" fill="#DA0081"/>
<path d="M130.885 85.4543C132.313 85.4543 133.477 84.104 133.477 82.4352C133.477 80.7663 132.32 79.416 130.885 79.416C129.451 79.416 128.294 80.7663 128.294 82.4352C128.294 84.104 129.451 85.4543 130.885 85.4543Z" fill="#DA0081"/>
<path d="M123.408 98.3077L125.189 98.7093C125.432 98.7716 125.57 99.0694 125.487 99.3394C125.362 99.7549 125.224 100.15 125.064 100.544C124.704 101.438 124.261 102.303 123.727 103.127C123.18 103.944 122.528 104.713 121.759 105.392C120.214 106.735 118.093 107.538 116.049 107.531C114.074 107.573 111.947 106.984 110.284 105.717C109.452 105.094 108.738 104.332 108.184 103.494C107.616 102.663 107.172 101.77 106.84 100.842C106.687 100.392 106.542 99.9488 106.438 99.478C106.368 99.201 106.528 98.9032 106.777 98.8547L108.579 98.5916C108.828 98.55 109.05 98.647 109.099 98.8617C109.175 99.2079 109.293 99.568 109.411 99.9142C109.944 101.361 110.776 102.684 111.933 103.529C113.076 104.388 114.504 104.817 116.035 104.796C117.511 104.782 118.862 104.263 119.978 103.321C120.526 102.829 121.018 102.262 121.447 101.618C121.863 100.967 122.23 100.267 122.521 99.5333C122.653 99.2148 122.771 98.8824 122.868 98.557C122.937 98.3423 123.166 98.2454 123.408 98.3077Z" fill="#DA0081"/>
<path d="M168.928 243.477L167.134 243.789C166.884 243.83 166.649 243.664 166.607 243.415L166.399 242.279L155.977 184.209L155.755 182.969C155.714 182.72 155.873 182.485 156.123 182.443L157.917 182.131C158.167 182.09 158.402 182.256 158.444 182.505L158.666 183.745L169.088 241.815L169.296 242.951C169.337 243.2 169.178 243.436 168.928 243.477Z" fill="#DA0081"/>
<path d="M63.4539 243.789L61.6591 243.477C61.4097 243.436 61.2434 243.2 61.2919 242.951L61.4997 241.815L71.9218 183.745L72.1435 182.505C72.1851 182.256 72.4276 182.09 72.6702 182.131L74.4649 182.443C74.7144 182.485 74.8807 182.72 74.8322 182.969L74.6104 184.209L64.1884 242.279L63.9805 243.415C63.9389 243.664 63.6964 243.83 63.4539 243.789Z" fill="#DA0081"/>
<path d="M100.097 130.84C92.5925 130.84 87.4577 127.904 84.3533 125.259C84.7206 126.727 84.9562 127.558 84.9631 127.579C85.0948 128.036 84.9839 128.534 84.6651 128.888C84.3464 129.241 83.8682 129.407 83.397 129.324C74.7836 127.828 68.4015 123.923 64.4309 117.718C59.3307 109.748 59.4555 99.6516 61.271 92.8654C62.9202 86.46 64.029 84.3134 66.4612 79.6115C68.2837 76.0868 70.7714 71.2603 74.839 62.1405C81.0063 48.4642 85.8224 43.0561 88.809 40.9302C89.9385 39.8084 99.6191 30.6816 115.938 30.6816C133.116 30.6816 142.956 40.4524 143.975 41.5119C148.105 44.8565 152.533 51.795 157.141 62.1405C161.202 71.2603 163.676 76.0868 165.477 79.6115C167.889 84.3134 168.991 86.46 170.702 92.8723C172.525 99.6169 172.65 109.679 167.542 117.69C163.572 123.916 157.19 127.828 148.576 129.331C148.112 129.414 147.641 129.255 147.322 128.908C147.003 128.562 146.879 128.084 146.989 127.627C146.989 127.607 147.28 126.471 147.745 124.518C144.308 127.26 138.522 130.771 131.426 130.771V128.001C141.543 128.001 149.02 119.588 149.096 119.505C149.512 119.027 150.205 118.895 150.773 119.186C151.341 119.477 151.632 120.114 151.494 120.73C150.967 122.995 150.523 124.864 150.205 126.173C156.954 124.58 161.992 121.236 165.2 116.202C169.822 108.951 169.691 99.7693 168.021 93.5925C166.378 87.4572 165.394 85.5321 163.004 80.8718C161.181 77.3194 158.687 72.4514 154.598 63.2692C149.048 50.8117 144.765 45.7082 142.153 43.617C142.097 43.5754 142.049 43.5269 142 43.4785C141.91 43.3815 132.444 33.4584 115.924 33.4584C99.4043 33.4584 90.7839 42.8691 90.6869 42.9591C90.6245 43.0214 90.5552 43.0838 90.486 43.1322C88.2824 44.6626 83.6465 49.316 77.3614 63.2762C73.266 72.4652 70.7506 77.3333 68.9212 80.8856C66.5167 85.5321 65.5257 87.4572 63.9527 93.5717C62.2896 99.8039 62.1511 109.014 66.7661 116.229C69.9676 121.229 74.9915 124.567 81.7201 126.159C81.3875 124.844 80.944 122.981 80.4658 120.696C80.3272 120.038 80.6876 119.373 81.3112 119.124C81.9349 118.875 82.6556 119.117 83.002 119.692C83.2099 120.031 88.3239 128.077 100.097 128.077V130.847V130.84Z" fill="#DA0081"/>
<path d="M44.2729 234.275H42.4573C42.2048 234.275 42 234.48 42 234.732V236.879C42 237.131 42.2048 237.336 42.4573 237.336H44.2729C44.5255 237.336 44.7302 237.131 44.7302 236.879V234.732C44.7302 234.48 44.5255 234.275 44.2729 234.275Z" fill="#200020"/>
<path d="M42.4573 232.744H44.2798C44.5293 232.744 44.7372 232.544 44.7372 232.287V17.1512L44.7649 16.7911C44.8065 16.5556 44.8273 16.3133 44.9035 16.0847C45.0213 15.6208 45.2084 15.1707 45.4648 14.7621C45.7142 14.3467 46.0261 13.9727 46.3864 13.6542C47.1001 13.0033 48.0148 12.5809 48.9711 12.4493C49.2067 12.4008 49.4493 12.4147 49.6987 12.3939H52.4705H82.0528H141.217L170.799 12.4077H185.594H189.294C189.925 12.4077 190.486 12.4147 191.193 12.3939C191.872 12.3662 192.572 12.2969 193.3 12.1238C194.02 11.9507 194.783 11.6668 195.496 11.1059C196.217 10.5727 196.771 9.64479 196.924 8.75843C197.083 7.90669 197.021 6.95108 196.605 6.09934C196.203 5.25453 195.42 4.50667 194.478 4.20198C194.013 4.04271 193.514 3.98731 193.085 4.00809C192.669 4.02194 192.246 4.07733 191.837 4.20198C191.02 4.43049 190.278 4.8806 189.689 5.44842C188.504 6.591 187.936 8.10058 187.742 9.54092C187.694 9.90792 187.673 10.268 187.666 10.6281V11.5629V13.4118V17.1096V31.8938V48.9909L187.659 108.114L187.645 226.36V233.749V237.419C187.631 238.388 187.326 239.337 186.779 240.133C186.225 240.929 185.442 241.56 184.548 241.913C184.104 242.1 183.626 242.19 183.148 242.245C182.725 242.28 182.011 242.266 181.422 242.266H50.1284C49.8789 242.266 49.671 242.467 49.671 242.723V244.544C49.671 244.793 49.872 245.001 50.1284 245.001H181.402C182.046 244.994 182.559 245.022 183.37 244.967C184.111 244.89 184.859 244.731 185.552 244.447C186.945 243.886 188.158 242.91 189.017 241.677C189.433 241.054 189.772 240.382 190.008 239.669C190.223 238.949 190.362 238.208 190.368 237.46V233.742V226.353L190.382 108.107V48.984L190.389 31.8869V17.1027V13.4049V11.556V10.6489C190.389 10.3927 190.41 10.1434 190.445 9.89407C190.569 8.91077 190.964 7.99671 191.574 7.42196C191.872 7.13805 192.219 6.93723 192.586 6.82644C192.766 6.77104 192.96 6.74334 193.161 6.73642C193.348 6.72949 193.466 6.75027 193.591 6.78489C194.041 6.91646 194.388 7.51891 194.235 8.23907C194.166 8.55761 194.048 8.76535 193.785 8.97309C193.521 9.18083 193.119 9.36087 192.641 9.47167C191.685 9.71403 190.556 9.67248 189.287 9.67248H185.587H170.792H141.21L82.0458 9.65864H52.4705H50.6204H49.6987C49.3315 9.67941 48.9503 9.67248 48.5831 9.74173C47.1001 9.94947 45.6727 10.6142 44.5639 11.6114C44.0026 12.1031 43.5176 12.6916 43.1295 13.3287C42.7345 13.9658 42.4366 14.6652 42.2564 15.3923C42.1524 15.7524 42.1039 16.1263 42.0485 16.4933C42.0277 16.6803 42.0277 16.8672 42.0139 17.0542L42 17.3312V232.287C42 232.537 42.201 232.744 42.4573 232.744Z" fill="#200020"/>
<path d="M115.294 230.75C104.872 230.75 96.3969 222.281 96.3969 211.866C96.3969 201.451 104.872 192.982 115.294 192.982C125.716 192.982 134.191 201.451 134.191 211.866C134.191 222.281 125.716 230.75 115.294 230.75ZM115.294 195.745C106.403 195.745 99.1687 202.975 99.1687 211.859C99.1687 220.744 106.403 227.973 115.294 227.973C124.184 227.973 131.419 220.744 131.419 211.859C131.419 202.975 124.184 195.745 115.294 195.745Z" fill="#DA0081"/>
<path d="M115.294 222.916C109.196 222.916 104.227 217.958 104.227 211.858C104.227 205.757 109.189 200.799 115.294 200.799C121.399 200.799 126.36 205.757 126.36 211.858C126.36 217.958 121.399 222.916 115.294 222.916ZM115.294 203.576C110.72 203.576 106.999 207.294 106.999 211.864C106.999 216.435 110.72 220.153 115.294 220.153C119.867 220.153 123.588 216.435 123.588 211.864C123.588 207.294 119.867 203.576 115.294 203.576Z" fill="#DA0081"/>
<path d="M44.2036 172.312L42.5336 171.592C42.3049 171.495 42.201 171.225 42.298 170.996L42.8039 169.861L44.1759 166.779L45.6242 163.732C47.5922 159.681 49.678 155.672 52.1241 151.836C54.5702 148.013 57.4113 144.336 61.0147 141.317C62.8372 139.842 64.8537 138.561 67.0434 137.626C69.2262 136.684 71.5407 136.13 73.8274 135.791C78.3455 135.154 82.8012 134.829 87.2846 134.517C89.5228 134.372 91.7611 134.247 94.0062 134.15C95.1288 134.101 96.2514 134.06 97.3809 134.032L98.7738 134.005V113.611C98.7738 113.362 98.9747 113.154 99.2311 113.154H101.054C101.303 113.154 101.511 113.355 101.511 113.611L101.497 134.884C101.442 135.41 101.206 135.86 100.818 136.214C100.423 136.553 99.9726 136.733 99.4044 136.733L98.2748 136.747L97.4433 136.767C96.3415 136.795 95.2258 136.837 94.1171 136.885C91.8997 136.982 89.6753 137.107 87.4578 137.252C83.0298 137.557 78.5603 137.896 74.2293 138.506C72.102 138.824 70.03 139.323 68.1036 140.154C66.1772 140.978 64.3894 142.106 62.7471 143.436C59.4902 146.171 56.7807 149.634 54.4247 153.318C52.0617 157.015 50.0175 160.942 48.0842 164.923L46.6567 167.929L45.3054 170.969L44.8065 172.09C44.7025 172.319 44.4323 172.423 44.2036 172.326V172.312Z" fill="#DA0081"/>
<path d="M189.987 171.052L188.317 171.772C188.089 171.869 187.818 171.772 187.714 171.537L187.216 170.415L185.864 167.375L184.437 164.37C182.503 160.388 180.459 156.462 178.096 152.764C175.74 149.073 173.031 145.611 169.774 142.883C168.125 141.553 166.344 140.417 164.417 139.6C162.491 138.762 160.419 138.264 158.292 137.952C153.961 137.343 149.491 137.003 145.063 136.699C142.846 136.553 140.621 136.429 138.404 136.332C137.295 136.283 136.186 136.242 135.078 136.214L134.246 136.193L133.117 136.179C132.548 136.179 132.098 135.999 131.703 135.66C131.315 135.307 131.086 134.857 131.024 134.331L131.01 112.199C131.01 111.95 131.211 111.742 131.467 111.742H133.29C133.539 111.742 133.747 111.943 133.747 112.199V133.458L135.14 133.486C136.27 133.513 137.392 133.555 138.515 133.603C140.76 133.7 142.998 133.825 145.236 133.97C149.72 134.282 154.175 134.608 158.694 135.245C160.98 135.584 163.295 136.138 165.478 137.08C167.667 138.008 169.684 139.296 171.506 140.77C175.11 143.79 177.944 147.467 180.397 151.289C182.843 155.125 184.929 159.135 186.897 163.186L188.345 166.233L189.717 169.314L190.223 170.45C190.327 170.678 190.223 170.948 189.987 171.045V171.052Z" fill="#DA0081"/>
<path d="M61.9363 45.2915H60.1138C59.8644 45.2915 59.6565 45.0907 59.6565 44.8345V32.8201C59.6288 31.1651 60.5573 29.4755 62.0195 28.6376C62.7401 28.2014 63.5855 27.9798 64.424 27.959H66.2534H69.8706H78.3732C78.6226 27.959 78.8305 28.1598 78.8305 28.416V30.2372C78.8305 30.4865 78.6296 30.6942 78.3732 30.6942H64.4587C64.0914 30.7081 63.7311 30.7981 63.4192 30.992C62.7748 31.3659 62.3867 32.0653 62.3867 32.827V44.8414C62.3867 45.0907 62.1858 45.2984 61.9294 45.2984L61.9363 45.2915Z" fill="#DA0081"/>
<path d="M153.136 30.2378V28.4166C153.136 28.1674 153.337 27.9596 153.593 27.9596H167.425C168.215 27.9458 169.095 28.1604 169.822 28.5621C171.305 29.3653 172.296 30.9996 172.31 32.6892V36.3316V43.5679V44.8282C172.31 45.0774 172.109 45.2852 171.853 45.2852H170.03C169.781 45.2852 169.573 45.0844 169.573 44.8282V32.7377C169.566 32.0036 169.136 31.2973 168.492 30.9442C168.159 30.771 167.834 30.681 167.418 30.681H153.587C153.337 30.681 153.129 30.4802 153.129 30.224L153.136 30.2378Z" fill="#DA0081"/>
<path d="M78.8305 149.544V151.365C78.8305 151.614 78.6296 151.822 78.3732 151.822H64.4933C63.6618 151.822 62.8025 151.608 62.0749 151.178C60.592 150.354 59.6426 148.685 59.6496 146.996V143.36V136.096V134.836C59.6496 134.587 59.8505 134.379 60.1069 134.379H61.9294C62.1789 134.379 62.3867 134.58 62.3867 134.836V146.989C62.3867 147.723 62.7956 148.443 63.44 148.803C63.7588 148.99 64.1122 149.073 64.4933 149.08H78.3732C78.6227 149.08 78.8305 149.281 78.8305 149.537V149.544Z" fill="#DA0081"/>
<path d="M170.037 134.386H171.86C172.109 134.386 172.317 134.587 172.317 134.843V146.892C172.345 147.654 172.13 148.561 171.735 149.288C171.326 150.022 170.737 150.666 170.016 151.102C169.303 151.552 168.457 151.795 167.612 151.815H165.762H162.131H153.6C153.351 151.815 153.143 151.614 153.143 151.358V149.537C153.143 149.288 153.344 149.08 153.6 149.08H167.549C167.917 149.066 168.277 148.962 168.589 148.768C168.908 148.581 169.157 148.298 169.337 147.979C169.504 147.633 169.601 147.335 169.587 146.885V134.836C169.587 134.587 169.788 134.379 170.044 134.379L170.037 134.386Z" fill="#DA0081"/>
</g>
<defs>
<clipPath id="clip0_9636_7289">
<rect width="155" height="241" fill="white" transform="translate(42 4)"/>
</clipPath>
</defs>
</svg>
